<ttFont>
    <TTGlyph name="A" xMin="-8" yMin="4" xMax="1075" yMax="1430">
      <contour>
        <pt x="1069" y="522" on="1"/>
        <pt x="1075" y="489" on="0"/>
        <pt x="1075" y="461" on="1"/>
        <pt x="1075" y="430" on="0"/>
        <pt x="1063" y="381" on="0"/>
        <pt x="1048" y="346" on="0"/>
        <pt x="1035" y="325" on="0"/>
        <pt x="1034" y="324" on="1"/>
        <pt x="1026" y="313" on="1"/>
        <pt x="1012" y="315" on="1"/>
        <pt x="998" y="317" on="0"/>
        <pt x="970" y="317" on="0"/>
        <pt x="956" y="317" on="1"/>
        <pt x="970" y="268" on="0"/>
        <pt x="1012" y="176" on="0"/>
        <pt x="1038" y="133" on="1"/>
        <pt x="1049" y="117" on="1"/>
        <pt x="1036" y="102" on="1"/>
        <pt x="1035" y="101" on="0"/>
        <pt x="1016" y="82" on="0"/>
        <pt x="978" y="57" on="0"/>
        <pt x="919" y="29" on="0"/>
        <pt x="879" y="20" on="1"/>
        <pt x="860" y="15" on="0"/>
        <pt x="823" y="10" on="0"/>
        <pt x="805" y="10" on="1"/>
        <pt x="779" y="10" on="0"/>
        <pt x="736" y="18" on="0"/>
        <pt x="706" y="29" on="0"/>
        <pt x="689" y="37" on="0"/>
        <pt x="688" y="37" on="1"/>
        <pt x="674" y="45" on="1"/>
        <pt x="676" y="61" on="1"/>
        <pt x="676" y="74" on="0"/>
        <pt x="678" y="98" on="0"/>
        <pt x="678" y="111" on="1"/>
        <pt x="678" y="180" on="0"/>
        <pt x="666" y="248" on="1"/>
        <pt x="662" y="244" on="0"/>
        <pt x="659" y="244" on="1"/>
        <pt x="645" y="240" on="1"/>
        <pt x="582" y="240" on="0"/>
        <pt x="450" y="224" on="0"/>
        <pt x="385" y="203" on="1"/>
        <pt x="385" y="172" on="1"/>
        <pt x="385" y="129" on="0"/>
        <pt x="391" y="86" on="1"/>
        <pt x="393" y="76" on="1"/>
        <pt x="387" y="68" on="1"/>
        <pt x="386" y="67" on="0"/>
        <pt x="368" y="47" on="0"/>
        <pt x="330" y="23" on="0"/>
        <pt x="272" y="4" on="0"/>
        <pt x="231" y="4" on="1"/>
        <pt x="151" y="4" on="0"/>
        <pt x="58" y="50" on="0"/>
        <pt x="33" y="79" on="1"/>
        <pt x="4" y="112" on="0"/>
        <pt x="-6" y="154" on="1"/>
        <pt x="-8" y="162" on="1"/>
        <pt x="-2" y="170" on="1"/>
        <pt x="49" y="248" on="0"/>
        <pt x="98" y="425" on="0"/>
        <pt x="98" y="528" on="1"/>
        <pt x="98" y="563" on="1"/>
        <pt x="102" y="575" on="1"/>
        <pt x="141" y="653" on="0"/>
        <pt x="178" y="808" on="0"/>
        <pt x="178" y="887" on="1"/>
        <pt x="178" y="907" on="0"/>
        <pt x="176" y="947" on="0"/>
        <pt x="174" y="967" on="1"/>
        <pt x="172" y="977" on="1"/>
        <pt x="178" y="985" on="1"/>
        <pt x="274" y="1132" on="0"/>
        <pt x="274" y="1303" on="1"/>
        <pt x="274" y="1318" on="0"/>
        <pt x="272" y="1351" on="0"/>
        <pt x="270" y="1368" on="1"/>
        <pt x="270" y="1380" on="1"/>
        <pt x="279" y="1389" on="1"/>
        <pt x="280" y="1390" on="0"/>
        <pt x="299" y="1403" on="0"/>
        <pt x="333" y="1418" on="0"/>
        <pt x="382" y="1430" on="0"/>
        <pt x="414" y="1430" on="1"/>
        <pt x="476" y="1430" on="0"/>
        <pt x="563" y="1392" on="0"/>
        <pt x="617" y="1346" on="0"/>
        <pt x="642" y="1308" on="0"/>
        <pt x="643" y="1307" on="1"/>
        <pt x="649" y="1294" on="1"/>
        <pt x="643" y="1282" on="1"/>
        <pt x="639" y="1278" on="0"/>
        <pt x="639" y="1276" on="1"/>
        <pt x="653" y="1276" on="1"/>
        <pt x="697" y="1276" on="0"/>
        <pt x="748" y="1264" on="0"/>
        <pt x="750" y="1264" on="1"/>
        <pt x="762" y="1255" on="1"/>
        <pt x="760" y="1241" on="1"/>
        <pt x="758" y="1229" on="0"/>
        <pt x="758" y="1206" on="0"/>
        <pt x="758" y="1194" on="1"/>
        <pt x="758" y="1016" on="0"/>
        <pt x="842" y="868" on="1"/>
        <pt x="846" y="856" on="1"/>
        <pt x="846" y="829" on="1"/>
        <pt x="846" y="777" on="0"/>
        <pt x="854" y="682" on="0"/>
        <pt x="866" y="639" on="1"/>
        <pt x="886" y="647" on="0"/>
        <pt x="924" y="665" on="0"/>
        <pt x="942" y="676" on="1"/>
        <pt x="952" y="682" on="1"/>
        <pt x="965" y="678" on="1"/>
        <pt x="966" y="677" on="0"/>
        <pt x="991" y="661" on="0"/>
        <pt x="1024" y="625" on="0"/>
        <pt x="1059" y="566" on="0"/>
      </contour>
      <contour>
        <pt x="592" y="1294" on="1"/>
        <pt x="586" y="1303" on="0"/>
        <pt x="558" y="1331" on="0"/>
        <pt x="515" y="1358" on="0"/>
        <pt x="454" y="1378" on="0"/>
        <pt x="414" y="1378" on="1"/>
        <pt x="379" y="1378" on="0"/>
        <pt x="333" y="1364" on="0"/>
        <pt x="322" y="1358" on="1"/>
        <pt x="324" y="1344" on="0"/>
        <pt x="324" y="1317" on="0"/>
        <pt x="324" y="1303" on="1"/>
        <pt x="324" y="1221" on="0"/>
        <pt x="284" y="1073" on="0"/>
        <pt x="246" y="1001" on="1"/>
        <pt x="254" y="1001" on="0"/>
        <pt x="268" y="1004" on="0"/>
        <pt x="276" y="1004" on="1"/>
        <pt x="315" y="1004" on="0"/>
        <pt x="377" y="988" on="0"/>
        <pt x="422" y="968" on="0"/>
        <pt x="448" y="951" on="0"/>
        <pt x="449" y="950" on="1"/>
        <pt x="459" y="943" on="0"/>
        <pt x="459" y="934" on="1"/>
        <pt x="459" y="923" on="0"/>
        <pt x="444" y="913" on="0"/>
        <pt x="436" y="913" on="1"/>
        <pt x="429" y="913" on="0"/>
        <pt x="426" y="918" on="1"/>
        <pt x="425" y="919" on="0"/>
        <pt x="404" y="930" on="0"/>
        <pt x="367" y="943" on="0"/>
        <pt x="316" y="954" on="0"/>
        <pt x="285" y="954" on="1"/>
        <pt x="258" y="954" on="0"/>
        <pt x="227" y="948" on="1"/>
        <pt x="227" y="934" on="0"/>
        <pt x="229" y="909" on="0"/>
        <pt x="229" y="895" on="1"/>
        <pt x="229" y="737" on="0"/>
        <pt x="162" y="588" on="1"/>
        <pt x="190" y="586" on="0"/>
        <pt x="266" y="571" on="0"/>
        <pt x="336" y="549" on="0"/>
        <pt x="385" y="522" on="0"/>
        <pt x="385" y="508" on="1"/>
        <pt x="385" y="499" on="0"/>
        <pt x="373" y="489" on="0"/>
        <pt x="365" y="489" on="1"/>
        <pt x="361" y="489" on="0"/>
        <pt x="357" y="492" on="0"/>
        <pt x="354" y="492" on="1"/>
        <pt x="317" y="512" on="0"/>
        <pt x="205" y="537" on="0"/>
        <pt x="150" y="537" on="1"/>
        <pt x="150" y="425" on="0"/>
        <pt x="99" y="238" on="0"/>
        <pt x="45" y="152" on="1"/>
        <pt x="48" y="145" on="0"/>
        <pt x="68" y="112" on="0"/>
        <pt x="111" y="79" on="0"/>
        <pt x="180" y="53" on="0"/>
        <pt x="231" y="53" on="1"/>
        <pt x="279" y="53" on="0"/>
        <pt x="331" y="81" on="0"/>
        <pt x="340" y="90" on="1"/>
        <pt x="337" y="110" on="0"/>
        <pt x="336" y="150" on="0"/>
        <pt x="336" y="170" on="1"/>
        <pt x="336" y="260" on="0"/>
        <pt x="380" y="427" on="0"/>
        <pt x="426" y="508" on="1"/>
        <pt x="420" y="548" on="0"/>
        <pt x="420" y="588" on="1"/>
        <pt x="420" y="671" on="0"/>
        <pt x="463" y="835" on="0"/>
        <pt x="506" y="922" on="1"/>
        <pt x="504" y="934" on="0"/>
        <pt x="504" y="958" on="0"/>
        <pt x="504" y="971" on="1"/>
        <pt x="504" y="1054" on="0"/>
        <pt x="547" y="1216" on="0"/>
      </contour>
      <contour>
        <pt x="641" y="289" on="1"/>
        <pt x="710" y="327" on="0"/>
        <pt x="863" y="367" on="0"/>
        <pt x="946" y="367" on="1"/>
        <pt x="960" y="367" on="0"/>
        <pt x="988" y="367" on="0"/>
        <pt x="1004" y="365" on="1"/>
        <pt x="1010" y="376" on="0"/>
        <pt x="1028" y="425" on="0"/>
        <pt x="1028" y="459" on="1"/>
        <pt x="1028" y="496" on="0"/>
        <pt x="1010" y="555" on="0"/>
        <pt x="985" y="597" on="0"/>
        <pt x="959" y="622" on="0"/>
        <pt x="952" y="627" on="1"/>
        <pt x="810" y="547" on="0"/>
        <pt x="657" y="547" on="1"/>
        <pt x="645" y="547" on="0"/>
        <pt x="623" y="547" on="0"/>
        <pt x="612" y="549" on="1"/>
        <pt x="635" y="506" on="0"/>
        <pt x="651" y="429" on="0"/>
        <pt x="651" y="401" on="1"/>
        <pt x="651" y="377" on="0"/>
        <pt x="647" y="350" on="0"/>
        <pt x="640" y="337" on="0"/>
        <pt x="630" y="334" on="0"/>
        <pt x="625" y="334" on="1"/>
        <pt x="617" y="334" on="0"/>
        <pt x="608" y="344" on="0"/>
        <pt x="608" y="352" on="1"/>
        <pt x="608" y="379" on="1"/>
        <pt x="608" y="391" on="0"/>
        <pt x="605" y="428" on="0"/>
        <pt x="594" y="471" on="0"/>
        <pt x="574" y="520" on="0"/>
        <pt x="557" y="545" on="1"/>
        <pt x="546" y="534" on="0"/>
        <pt x="498" y="516" on="0"/>
        <pt x="475" y="510" on="1"/>
        <pt x="475" y="508" on="0"/>
        <pt x="477" y="508" on="0"/>
        <pt x="477" y="506" on="1"/>
        <pt x="479" y="498" on="1"/>
        <pt x="473" y="489" on="1"/>
        <pt x="439" y="434" on="0"/>
        <pt x="398" y="318" on="0"/>
        <pt x="389" y="256" on="1"/>
        <pt x="455" y="276" on="0"/>
        <pt x="584" y="289" on="0"/>
      </contour>
      <contour>
        <pt x="754" y="846" on="1"/>
        <pt x="752" y="838" on="0"/>
        <pt x="739" y="829" on="0"/>
        <pt x="733" y="829" on="1"/>
        <pt x="731" y="829" on="0"/>
        <pt x="729" y="830" on="1"/>
        <pt x="727" y="830" on="0"/>
        <pt x="722" y="831" on="0"/>
        <pt x="719" y="831" on="1"/>
        <pt x="699" y="831" on="0"/>
        <pt x="627" y="814" on="0"/>
        <pt x="590" y="786" on="1"/>
        <pt x="588" y="786" on="0"/>
        <pt x="586" y="784" on="0"/>
        <pt x="584" y="784" on="1"/>
        <pt x="626" y="685" on="0"/>
        <pt x="647" y="596" on="1"/>
        <pt x="653" y="596" on="1"/>
        <pt x="740" y="596" on="0"/>
        <pt x="821" y="621" on="1"/>
        <pt x="807" y="673" on="0"/>
        <pt x="795" y="787" on="0"/>
        <pt x="795" y="850" on="1"/>
        <pt x="707" y="1011" on="0"/>
        <pt x="707" y="1192" on="1"/>
        <pt x="707" y="1200" on="0"/>
        <pt x="709" y="1217" on="0"/>
        <pt x="709" y="1227" on="1"/>
        <pt x="706" y="1229" on="0"/>
        <pt x="681" y="1231" on="0"/>
        <pt x="664" y="1231" on="1"/>
        <pt x="651" y="1231" on="0"/>
        <pt x="627" y="1231" on="0"/>
        <pt x="614" y="1229" on="1"/>
        <pt x="582" y="1163" on="0"/>
        <pt x="553" y="1033" on="0"/>
        <pt x="553" y="967" on="1"/>
        <pt x="553" y="954" on="0"/>
        <pt x="553" y="930" on="0"/>
        <pt x="555" y="918" on="1"/>
        <pt x="557" y="911" on="1"/>
        <pt x="553" y="905" on="1"/>
        <pt x="552" y="903" on="0"/>
        <pt x="552" y="903" on="1"/>
        <pt x="551" y="903" on="1"/>
        <pt x="557" y="881" on="0"/>
        <pt x="571" y="833" on="0"/>
        <pt x="571" y="829" on="1"/>
        <pt x="609" y="854" on="0"/>
        <pt x="678" y="868" on="0"/>
        <pt x="702" y="868" on="1"/>
        <pt x="738" y="868" on="0"/>
        <pt x="754" y="859" on="0"/>
        <pt x="754" y="848" on="1"/>
      </contour>
      <contour>
        <pt x="713" y="270" on="1"/>
        <pt x="721" y="232" on="0"/>
        <pt x="727" y="157" on="0"/>
        <pt x="727" y="119" on="1"/>
        <pt x="727" y="76" on="1"/>
        <pt x="739" y="70" on="0"/>
        <pt x="781" y="61" on="0"/>
        <pt x="809" y="61" on="1"/>
        <pt x="841" y="61" on="0"/>
        <pt x="899" y="76" on="0"/>
        <pt x="945" y="96" on="0"/>
        <pt x="977" y="118" on="0"/>
        <pt x="985" y="125" on="1"/>
        <pt x="959" y="171" on="0"/>
        <pt x="919" y="266" on="0"/>
        <pt x="905" y="315" on="1"/>
        <pt x="854" y="312" on="0"/>
        <pt x="758" y="290" on="0"/>
      </contour>
      <contour>
        <pt x="516" y="825" on="1"/>
        <pt x="493" y="765" on="0"/>
        <pt x="471" y="647" on="0"/>
        <pt x="471" y="590" on="1"/>
        <pt x="471" y="563" on="1"/>
        <pt x="514" y="578" on="0"/>
        <pt x="553" y="598" on="1"/>
        <pt x="569" y="602" on="1"/>
        <pt x="576" y="600" on="0"/>
        <pt x="590" y="598" on="0"/>
        <pt x="596" y="598" on="1"/>
        <pt x="585" y="641" on="0"/>
        <pt x="552" y="730" on="0"/>
        <pt x="530" y="778" on="1"/>
      </contour>
    </TTGlyph>
    <TTGlyph name="AE" xMin="-43" yMin="-8" xMax="1630" yMax="1438">
      <contour>
        <pt x="1440" y="707" on="1"/>
        <pt x="1440" y="662" on="0"/>
        <pt x="1416" y="595" on="0"/>
        <pt x="1386" y="549" on="0"/>
        <pt x="1361" y="525" on="0"/>
        <pt x="1360" y="524" on="1"/>
        <pt x="1348" y="516" on="1"/>
        <pt x="1335" y="520" on="1"/>
        <pt x="1280" y="539" on="0"/>
        <pt x="1193" y="557" on="0"/>
        <pt x="1153" y="557" on="1"/>
        <pt x="1122" y="557" on="0"/>
        <pt x="1092" y="551" on="1"/>
        <pt x="1098" y="539" on="1"/>
        <pt x="1098" y="522" on="1"/>
        <pt x="1085" y="488" on="0"/>
        <pt x="1070" y="421" on="0"/>
        <pt x="1065" y="387" on="1"/>
        <pt x="1082" y="391" on="0"/>
        <pt x="1122" y="397" on="0"/>
        <pt x="1140" y="399" on="1"/>
        <pt x="1161" y="402" on="0"/>
        <pt x="1182" y="403" on="1"/>
        <pt x="1190" y="406" on="1"/>
        <pt x="1198" y="401" on="1"/>
        <pt x="1255" y="378" on="0"/>
        <pt x="1335" y="354" on="0"/>
        <pt x="1376" y="354" on="1"/>
        <pt x="1404" y="354" on="0"/>
        <pt x="1469" y="366" on="0"/>
        <pt x="1511" y="377" on="1"/>
        <pt x="1524" y="381" on="1"/>
        <pt x="1534" y="373" on="1"/>
        <pt x="1535" y="371" on="0"/>
        <pt x="1556" y="350" on="0"/>
        <pt x="1580" y="307" on="0"/>
        <pt x="1599" y="242" on="0"/>
        <pt x="1599" y="197" on="1"/>
        <pt x="1598" y="152" on="0"/>
        <pt x="1573" y="86" on="0"/>
        <pt x="1542" y="41" on="0"/>
        <pt x="1515" y="17" on="0"/>
        <pt x="1513" y="16" on="1"/>
        <pt x="1503" y="10" on="1"/>
        <pt x="1491" y="14" on="1"/>
        <pt x="1432" y="36" on="0"/>
        <pt x="1354" y="55" on="0"/>
        <pt x="1317" y="55" on="1"/>
        <pt x="1291" y="55" on="0"/>
        <pt x="1233" y="46" on="0"/>
        <pt x="1196" y="37" on="1"/>
        <pt x="1184" y="37" on="1"/>
        <pt x="1153" y="43" on="0"/>
        <pt x="1101" y="56" on="0"/>
        <pt x="1073" y="61" on="1"/>
        <pt x="1064" y="50" on="0"/>
        <pt x="1034" y="25" on="0"/>
        <pt x="989" y="5" on="0"/>
        <pt x="929" y="-8" on="0"/>
        <pt x="891" y="-8" on="1"/>
        <pt x="832" y="-8" on="0"/>
        <pt x="755" y="24" on="0"/>
        <pt x="710" y="63" on="0"/>
        <pt x="692" y="96" on="0"/>
        <pt x="692" y="98" on="1"/>
        <pt x="688" y="106" on="1"/>
        <pt x="692" y="117" on="1"/>
        <pt x="729" y="207" on="0"/>
        <pt x="735" y="307" on="1"/>
        <pt x="673" y="313" on="0"/>
        <pt x="608" y="313" on="1"/>
        <pt x="553" y="313" on="0"/>
        <pt x="448" y="303" on="0"/>
        <pt x="408" y="291" on="1"/>
        <pt x="397" y="287" on="1"/>
        <pt x="393" y="289" on="1"/>
        <pt x="340" y="186" on="0"/>
        <pt x="328" y="68" on="1"/>
        <pt x="326" y="57" on="1"/>
        <pt x="317" y="51" on="1"/>
        <pt x="316" y="50" on="0"/>
        <pt x="303" y="40" on="0"/>
        <pt x="277" y="29" on="0"/>
        <pt x="240" y="20" on="0"/>
        <pt x="215" y="20" on="1"/>
        <pt x="189" y="20" on="0"/>
        <pt x="127" y="34" on="0"/>
        <pt x="92" y="51" on="1"/>
        <pt x="38" y="76" on="0"/>
        <pt x="-17" y="137" on="0"/>
        <pt x="-41" y="191" on="0"/>
        <pt x="-43" y="229" on="0"/>
        <pt x="-43" y="231" on="1"/>
        <pt x="-43" y="242" on="1"/>
        <pt x="-35" y="248" on="1"/>
        <pt x="41" y="316" on="0"/>
        <pt x="137" y="491" on="0"/>
        <pt x="162" y="602" on="1"/>
        <pt x="166" y="614" on="1"/>
        <pt x="237" y="696" on="0"/>
        <pt x="321" y="877" on="0"/>
        <pt x="334" y="977" on="1"/>
        <pt x="342" y="991" on="1"/>
        <pt x="419" y="1063" on="0"/>
        <pt x="511" y="1234" on="0"/>
        <pt x="526" y="1339" on="1"/>
        <pt x="528" y="1352" on="1"/>
        <pt x="541" y="1358" on="1"/>
        <pt x="543" y="1358" on="0"/>
        <pt x="582" y="1372" on="0"/>
        <pt x="616" y="1372" on="1"/>
        <pt x="651" y="1372" on="0"/>
        <pt x="702" y="1361" on="0"/>
        <pt x="727" y="1350" on="1"/>
        <pt x="725" y="1356" on="1"/>
        <pt x="733" y="1366" on="1"/>
        <pt x="734" y="1367" on="0"/>
        <pt x="756" y="1390" on="0"/>
        <pt x="801" y="1417" on="0"/>
        <pt x="868" y="1438" on="0"/>
        <pt x="915" y="1438" on="1"/>
        <pt x="969" y="1438" on="0"/>
        <pt x="1046" y="1408" on="0"/>
        <pt x="1069" y="1391" on="1"/>
        <pt x="1098" y="1394" on="0"/>
        <pt x="1162" y="1406" on="0"/>
        <pt x="1194" y="1417" on="1"/>
        <pt x="1202" y="1421" on="1"/>
        <pt x="1210" y="1419" on="1"/>
        <pt x="1260" y="1404" on="0"/>
        <pt x="1332" y="1389" on="0"/>
        <pt x="1364" y="1389" on="1"/>
        <pt x="1399" y="1389" on="0"/>
        <pt x="1473" y="1407" on="0"/>
        <pt x="1526" y="1425" on="1"/>
        <pt x="1538" y="1430" on="1"/>
        <pt x="1548" y="1423" on="1"/>
        <pt x="1549" y="1422" on="0"/>
        <pt x="1572" y="1402" on="0"/>
        <pt x="1601" y="1361" on="0"/>
        <pt x="1627" y="1298" on="0"/>
        <pt x="1630" y="1253" on="1"/>
        <pt x="1630" y="1235" on="1"/>
        <pt x="1630" y="1195" on="0"/>
        <pt x="1610" y="1133" on="0"/>
        <pt x="1585" y="1090" on="0"/>
        <pt x="1564" y="1068" on="0"/>
        <pt x="1563" y="1067" on="1"/>
        <pt x="1552" y="1059" on="1"/>
        <pt x="1538" y="1063" on="1"/>
        <pt x="1490" y="1074" on="0"/>
        <pt x="1422" y="1085" on="0"/>
        <pt x="1393" y="1085" on="1"/>
        <pt x="1359" y="1085" on="0"/>
        <pt x="1290" y="1070" on="0"/>
        <pt x="1243" y="1055" on="1"/>
        <pt x="1231" y="1053" on="1"/>
        <pt x="1189" y="1061" on="0"/>
        <pt x="1111" y="1069" on="0"/>
        <pt x="1073" y="1069" on="1"/>
        <pt x="1076" y="1041" on="0"/>
        <pt x="1086" y="986" on="0"/>
        <pt x="1096" y="958" on="1"/>
        <pt x="1096" y="944" on="1"/>
        <pt x="1089" y="926" on="0"/>
        <pt x="1082" y="891" on="0"/>
        <pt x="1079" y="872" on="1"/>
        <pt x="1108" y="864" on="0"/>
        <pt x="1160" y="858" on="0"/>
        <pt x="1188" y="858" on="1"/>
        <pt x="1225" y="858" on="0"/>
        <pt x="1301" y="871" on="0"/>
        <pt x="1346" y="885" on="1"/>
        <pt x="1358" y="889" on="1"/>
        <pt x="1368" y="881" on="1"/>
        <pt x="1369" y="880" on="0"/>
        <pt x="1392" y="859" on="0"/>
        <pt x="1419" y="816" on="0"/>
        <pt x="1440" y="751" on="0"/>
      </contour>
      <contour>
        <pt x="819" y="1190" on="1"/>
        <pt x="815" y="1201" on="0"/>
        <pt x="786" y="1245" on="0"/>
        <pt x="735" y="1288" on="0"/>
        <pt x="662" y="1321" on="0"/>
        <pt x="614" y="1321" on="1"/>
        <pt x="600" y="1321" on="0"/>
        <pt x="580" y="1319" on="0"/>
        <pt x="573" y="1317" on="1"/>
        <pt x="556" y="1221" on="0"/>
        <pt x="478" y="1060" on="0"/>
        <pt x="412" y="991" on="1"/>
        <pt x="456" y="984" on="0"/>
        <pt x="524" y="952" on="0"/>
        <pt x="571" y="918" on="0"/>
        <pt x="595" y="892" on="0"/>
        <pt x="596" y="891" on="1"/>
        <pt x="600" y="887" on="0"/>
        <pt x="600" y="879" on="1"/>
        <pt x="600" y="871" on="0"/>
        <pt x="591" y="858" on="0"/>
        <pt x="580" y="858" on="1"/>
        <pt x="571" y="858" on="0"/>
        <pt x="565" y="864" on="1"/>
        <pt x="564" y="865" on="0"/>
        <pt x="539" y="889" on="0"/>
        <pt x="491" y="917" on="0"/>
        <pt x="423" y="942" on="0"/>
        <pt x="379" y="944" on="1"/>
        <pt x="365" y="853" on="0"/>
        <pt x="289" y="686" on="0"/>
        <pt x="229" y="610" on="1"/>
        <pt x="255" y="602" on="0"/>
        <pt x="323" y="569" on="0"/>
        <pt x="383" y="532" on="0"/>
        <pt x="424" y="495" on="0"/>
        <pt x="424" y="483" on="1"/>
        <pt x="424" y="475" on="0"/>
        <pt x="412" y="465" on="0"/>
        <pt x="406" y="465" on="1"/>
        <pt x="401" y="465" on="0"/>
        <pt x="394" y="469" on="0"/>
        <pt x="391" y="469" on="1"/>
        <pt x="360" y="497" on="0"/>
        <pt x="259" y="550" on="0"/>
        <pt x="205" y="565" on="1"/>
        <pt x="177" y="459" on="0"/>
        <pt x="80" y="287" on="0"/>
        <pt x="8" y="219" on="1"/>
        <pt x="9" y="213" on="0"/>
        <pt x="28" y="165" on="0"/>
        <pt x="75" y="112" on="0"/>
        <pt x="154" y="70" on="0"/>
        <pt x="215" y="70" on="1"/>
        <pt x="240" y="70" on="0"/>
        <pt x="271" y="81" on="0"/>
        <pt x="279" y="86" on="1"/>
        <pt x="306" y="308" on="0"/>
        <pt x="465" y="467" on="1"/>
        <pt x="477" y="570" on="0"/>
        <pt x="566" y="758" on="0"/>
        <pt x="643" y="848" on="1"/>
        <pt x="678" y="1040" on="0"/>
      </contour>
      <contour>
        <pt x="877" y="1176" on="1"/>
        <pt x="866" y="1165" on="1"/>
        <pt x="848" y="1147" on="0"/>
        <pt x="815" y="1110" on="0"/>
        <pt x="801" y="1092" on="1"/>
        <pt x="796" y="1064" on="0"/>
        <pt x="784" y="1007" on="0"/>
        <pt x="776" y="979" on="1"/>
        <pt x="801" y="987" on="0"/>
        <pt x="846" y="991" on="0"/>
        <pt x="866" y="991" on="1"/>
        <pt x="920" y="991" on="0"/>
        <pt x="974" y="978" on="0"/>
        <pt x="985" y="970" on="1"/>
        <pt x="998" y="961" on="0"/>
        <pt x="997" y="950" on="1"/>
        <pt x="997" y="941" on="0"/>
        <pt x="983" y="930" on="0"/>
        <pt x="977" y="930" on="1"/>
        <pt x="975" y="930" on="0"/>
        <pt x="968" y="935" on="0"/>
        <pt x="948" y="941" on="0"/>
        <pt x="912" y="946" on="0"/>
        <pt x="881" y="946" on="1"/>
        <pt x="856" y="946" on="0"/>
        <pt x="797" y="936" on="0"/>
        <pt x="766" y="924" on="1"/>
        <pt x="793" y="828" on="0"/>
        <pt x="793" y="725" on="1"/>
        <pt x="793" y="683" on="0"/>
        <pt x="783" y="600" on="0"/>
        <pt x="774" y="557" on="1"/>
        <pt x="790" y="559" on="0"/>
        <pt x="818" y="561" on="0"/>
        <pt x="834" y="561" on="1"/>
        <pt x="857" y="561" on="0"/>
        <pt x="917" y="556" on="0"/>
        <pt x="971" y="546" on="0"/>
        <pt x="1008" y="531" on="0"/>
        <pt x="1008" y="520" on="1"/>
        <pt x="1008" y="509" on="0"/>
        <pt x="990" y="500" on="0"/>
        <pt x="981" y="500" on="1"/>
        <pt x="958" y="506" on="0"/>
        <pt x="898" y="514" on="0"/>
        <pt x="866" y="514" on="1"/>
        <pt x="843" y="514" on="0"/>
        <pt x="793" y="509" on="0"/>
        <pt x="770" y="506" on="1"/>
        <pt x="779" y="464" on="0"/>
        <pt x="786" y="386" on="0"/>
        <pt x="786" y="348" on="1"/>
        <pt x="786" y="285" on="0"/>
        <pt x="764" y="166" on="0"/>
        <pt x="741" y="109" on="1"/>
        <pt x="746" y="102" on="0"/>
        <pt x="766" y="79" on="0"/>
        <pt x="801" y="58" on="0"/>
        <pt x="853" y="43" on="0"/>
        <pt x="891" y="43" on="1"/>
        <pt x="928" y="43" on="0"/>
        <pt x="982" y="57" on="0"/>
        <pt x="1019" y="76" on="0"/>
        <pt x="1039" y="97" on="0"/>
        <pt x="1044" y="104" on="1"/>
        <pt x="1027" y="157" on="0"/>
        <pt x="1010" y="259" on="0"/>
        <pt x="1010" y="311" on="1"/>
        <pt x="1010" y="367" on="0"/>
        <pt x="1029" y="475" on="0"/>
        <pt x="1049" y="530" on="1"/>
        <pt x="1014" y="633" on="0"/>
        <pt x="1014" y="737" on="1"/>
        <pt x="1014" y="840" on="0"/>
        <pt x="1044" y="950" on="1"/>
        <pt x="1033" y="991" on="0"/>
        <pt x="1022" y="1073" on="0"/>
        <pt x="1022" y="1116" on="1"/>
        <pt x="1022" y="1224" on="0"/>
        <pt x="1059" y="1335" on="1"/>
        <pt x="1052" y="1341" on="0"/>
        <pt x="1027" y="1359" on="0"/>
        <pt x="991" y="1375" on="0"/>
        <pt x="944" y="1386" on="0"/>
        <pt x="915" y="1386" on="1"/>
        <pt x="888" y="1386" on="0"/>
        <pt x="844" y="1377" on="0"/>
        <pt x="811" y="1363" on="0"/>
        <pt x="787" y="1349" on="0"/>
        <pt x="780" y="1343" on="1"/>
        <pt x="788" y="1311" on="1"/>
        <pt x="810" y="1291" on="0"/>
        <pt x="842" y="1246" on="0"/>
        <pt x="863" y="1209" on="0"/>
        <pt x="872" y="1186" on="0"/>
        <pt x="872" y="1188" on="1"/>
      </contour>
      <contour>
        <pt x="1114" y="1346" on="1"/>
        <pt x="1110" y="1333" on="1"/>
        <pt x="1091" y="1278" on="0"/>
        <pt x="1073" y="1171" on="0"/>
        <pt x="1073" y="1120" on="1"/>
        <pt x="1073" y="1118" on="1"/>
        <pt x="1111" y="1118" on="0"/>
        <pt x="1191" y="1108" on="0"/>
        <pt x="1233" y="1102" on="1"/>
        <pt x="1282" y="1119" on="0"/>
        <pt x="1355" y="1135" on="0"/>
        <pt x="1391" y="1135" on="1"/>
        <pt x="1422" y="1135" on="0"/>
        <pt x="1490" y="1123" on="0"/>
        <pt x="1536" y="1112" on="1"/>
        <pt x="1541" y="1118" on="0"/>
        <pt x="1557" y="1140" on="0"/>
        <pt x="1571" y="1172" on="0"/>
        <pt x="1581" y="1213" on="0"/>
        <pt x="1581" y="1239" on="1"/>
        <pt x="1581" y="1267" on="0"/>
        <pt x="1569" y="1313" on="0"/>
        <pt x="1552" y="1347" on="0"/>
        <pt x="1534" y="1370" on="0"/>
        <pt x="1528" y="1376" on="1"/>
        <pt x="1475" y="1358" on="0"/>
        <pt x="1404" y="1341" on="0"/>
        <pt x="1370" y="1341" on="1"/>
        <pt x="1344" y="1341" on="0"/>
        <pt x="1283" y="1351" on="0"/>
        <pt x="1245" y="1360" on="1"/>
        <pt x="1256" y="1331" on="0"/>
        <pt x="1264" y="1278" on="0"/>
        <pt x="1264" y="1255" on="1"/>
        <pt x="1264" y="1210" on="0"/>
        <pt x="1254" y="1165" on="0"/>
        <pt x="1241" y="1147" on="0"/>
        <pt x="1230" y="1147" on="0"/>
        <pt x="1229" y="1147" on="1"/>
        <pt x="1221" y="1147" on="0"/>
        <pt x="1208" y="1159" on="0"/>
        <pt x="1208" y="1167" on="1"/>
        <pt x="1208" y="1168" on="0"/>
        <pt x="1211" y="1174" on="0"/>
        <pt x="1216" y="1188" on="0"/>
        <pt x="1219" y="1215" on="0"/>
        <pt x="1219" y="1239" on="1"/>
        <pt x="1219" y="1265" on="0"/>
        <pt x="1206" y="1329" on="0"/>
        <pt x="1188" y="1364" on="1"/>
        <pt x="1169" y="1364" on="0"/>
        <pt x="1129" y="1355" on="0"/>
        <pt x="1110" y="1350" on="1"/>
      </contour>
      <contour>
        <pt x="1061" y="313" on="1"/>
        <pt x="1061" y="262" on="0"/>
        <pt x="1077" y="162" on="0"/>
        <pt x="1096" y="111" on="1"/>
        <pt x="1096" y="106" on="1"/>
        <pt x="1119" y="101" on="0"/>
        <pt x="1165" y="90" on="0"/>
        <pt x="1190" y="84" on="1"/>
        <pt x="1228" y="93" on="0"/>
        <pt x="1289" y="102" on="0"/>
        <pt x="1315" y="102" on="1"/>
        <pt x="1335" y="102" on="0"/>
        <pt x="1374" y="97" on="0"/>
        <pt x="1416" y="88" on="0"/>
        <pt x="1464" y="73" on="0"/>
        <pt x="1493" y="63" on="1"/>
        <pt x="1499" y="69" on="0"/>
        <pt x="1518" y="92" on="0"/>
        <pt x="1537" y="126" on="0"/>
        <pt x="1550" y="171" on="0"/>
        <pt x="1550" y="199" on="1"/>
        <pt x="1550" y="251" on="0"/>
        <pt x="1520" y="315" on="0"/>
        <pt x="1509" y="328" on="1"/>
        <pt x="1467" y="317" on="0"/>
        <pt x="1406" y="307" on="0"/>
        <pt x="1380" y="307" on="1"/>
        <pt x="1345" y="307" on="0"/>
        <pt x="1276" y="323" on="0"/>
        <pt x="1227" y="340" on="1"/>
        <pt x="1233" y="318" on="0"/>
        <pt x="1237" y="281" on="0"/>
        <pt x="1237" y="262" on="1"/>
        <pt x="1237" y="208" on="0"/>
        <pt x="1222" y="154" on="0"/>
        <pt x="1205" y="132" on="0"/>
        <pt x="1191" y="131" on="0"/>
        <pt x="1192" y="131" on="1"/>
        <pt x="1183" y="131" on="0"/>
        <pt x="1171" y="143" on="0"/>
        <pt x="1171" y="150" on="1"/>
        <pt x="1171" y="151" on="0"/>
        <pt x="1177" y="159" on="0"/>
        <pt x="1184" y="180" on="0"/>
        <pt x="1190" y="218" on="0"/>
        <pt x="1190" y="248" on="1"/>
        <pt x="1190" y="269" on="0"/>
        <pt x="1182" y="322" on="0"/>
        <pt x="1169" y="350" on="1"/>
        <pt x="1140" y="350" on="0"/>
        <pt x="1086" y="343" on="0"/>
        <pt x="1061" y="340" on="1"/>
      </contour>
      <contour>
        <pt x="1151" y="604" on="1"/>
        <pt x="1194" y="604" on="0"/>
        <pt x="1282" y="588" on="0"/>
        <pt x="1337" y="571" on="1"/>
        <pt x="1343" y="577" on="0"/>
        <pt x="1361" y="601" on="0"/>
        <pt x="1378" y="635" on="0"/>
        <pt x="1389" y="679" on="0"/>
        <pt x="1389" y="707" on="1"/>
        <pt x="1389" y="734" on="0"/>
        <pt x="1379" y="776" on="0"/>
        <pt x="1366" y="807" on="0"/>
        <pt x="1351" y="828" on="0"/>
        <pt x="1346" y="834" on="1"/>
        <pt x="1301" y="821" on="0"/>
        <pt x="1230" y="811" on="0"/>
        <pt x="1196" y="811" on="1"/>
        <pt x="1165" y="811" on="0"/>
        <pt x="1105" y="818" on="0"/>
        <pt x="1071" y="827" on="1"/>
        <pt x="1068" y="804" on="0"/>
        <pt x="1065" y="757" on="0"/>
        <pt x="1065" y="735" on="1"/>
        <pt x="1065" y="700" on="0"/>
        <pt x="1071" y="632" on="0"/>
        <pt x="1079" y="598" on="1"/>
        <pt x="1116" y="604" on="0"/>
      </contour>
      <contour>
        <pt x="717" y="535" on="1"/>
        <pt x="723" y="557" on="1"/>
        <pt x="721" y="557" on="1"/>
        <pt x="674" y="557" on="0"/>
        <pt x="582" y="563" on="0"/>
        <pt x="539" y="569" on="1"/>
        <pt x="529" y="541" on="0"/>
        <pt x="517" y="482" on="0"/>
        <pt x="514" y="453" on="1"/>
        <pt x="506" y="438" on="1"/>
        <pt x="483" y="415" on="0"/>
        <pt x="441" y="366" on="0"/>
        <pt x="424" y="340" on="1"/>
        <pt x="466" y="349" on="0"/>
        <pt x="562" y="358" on="0"/>
        <pt x="614" y="358" on="1"/>
        <pt x="643" y="358" on="0"/>
        <pt x="706" y="353" on="0"/>
        <pt x="737" y="350" on="1"/>
        <pt x="737" y="392" on="0"/>
        <pt x="726" y="476" on="0"/>
        <pt x="717" y="522" on="1"/>
      </contour>
      <contour>
        <pt x="743" y="727" on="1"/>
        <pt x="743" y="828" on="0"/>
        <pt x="713" y="924" on="1"/>
        <pt x="707" y="902" on="0"/>
        <pt x="695" y="857" on="0"/>
        <pt x="692" y="834" on="1"/>
        <pt x="686" y="821" on="1"/>
        <pt x="640" y="770" on="0"/>
        <pt x="575" y="666" on="0"/>
        <pt x="553" y="612" on="1"/>
        <pt x="626" y="600" on="0"/>
        <pt x="709" y="600" on="1"/>
        <pt x="731" y="600" on="1"/>
        <pt x="743" y="664" on="0"/>
      </contour>
    </TTGlyph>
    <TTGlyph name="AEacute" xMin="-43" yMin="-8" xMax="1630" yMax="1948">
      <component glyphName="AE" x="0" y="0" flags="0x204"/>
      <component glyphName="acute" x="756" y="-32" flags="0x4"/>
    </TTGlyph>
    <TTGlyph name="Aacute" xMin="-8" yMin="4" xMax="1075" yMax="1934">
      <component glyphName="A" x="0" y="0" flags="0x204"/>
      <component glyphName="acute" x="473" y="-46" flags="0x4"/>
    </TTGlyph>
    <TTGlyph name="Abreve" xMin="-8" yMin="4" xMax="1075" yMax="1963">
      <component glyphName="A" x="0" y="0" flags="0x204"/>
      <component glyphName="breve" x="178" y="-60" flags="0x4"/>
    </TTGlyph>
    <TTGlyph name="Acircumflex" xMin="-8" yMin="4" xMax="1075" yMax="2002">
      <component glyphName="A" x="0" y="0" flags="0x204"/>
      <component glyphName="circumflex" x="217" y="-48" flags="0x4"/>
    </TTGlyph>
    <TTGlyph name="Adieresis" xMin="-8" yMin="4" xMax="1075" yMax="1829">
      <component glyphName="A" x="0" y="0" flags="0x204"/>
      <component glyphName="dieresis" x="174" y="-24" flags="0x4"/>
    </TTGlyph>
    <TTGlyph name="Agrave" xMin="-8" yMin="4" xMax="1075" yMax="1943">
      <component glyphName="A" x="0" y="0" flags="0x204"/>
      <component glyphName="grave" x="252" y="-48" flags="0x4"/>
    </TTGlyph>
    <TTGlyph name="Amacron" xMin="-8" yMin="4" xMax="1075" yMax="1746">
      <component glyphName="A" x="0" y="0" flags="0x204"/>
      <component glyphName="macron" x="250" y="-62" flags="0x4"/>
    </TTGlyph>
    <TTGlyph name="Aogonek" xMin="-8" yMin="-434" xMax="1096" yMax="1430">
      <contour>
        <pt x="1069" y="522" on="1"/>
        <pt x="1075" y="489" on="0"/>
        <pt x="1075" y="461" on="1"/>
        <pt x="1075" y="430" on="0"/>
        <pt x="1063" y="381" on="0"/>
        <pt x="1048" y="346" on="0"/>
        <pt x="1035" y="325" on="0"/>
        <pt x="1034" y="324" on="1"/>
        <pt x="1026" y="313" on="1"/>
        <pt x="1012" y="315" on="1"/>
        <pt x="998" y="317" on="0"/>
        <pt x="970" y="317" on="0"/>
        <pt x="956" y="317" on="1"/>
        <pt x="970" y="268" on="0"/>
        <pt x="1012" y="176" on="0"/>
        <pt x="1038" y="133" on="1"/>
        <pt x="1049" y="117" on="1"/>
        <pt x="1036" y="102" on="1"/>
        <pt x="1034" y="100" on="0"/>
        <pt x="1009" y="77" on="0"/>
        <pt x="983" y="61" on="1"/>
        <pt x="955" y="21" on="0"/>
        <pt x="915" y="-58" on="0"/>
        <pt x="899" y="-100" on="1"/>
        <pt x="976" y="-171" on="0"/>
        <pt x="1081" y="-221" on="1"/>
        <pt x="1092" y="-225" on="1"/>
        <pt x="1094" y="-238" on="1"/>
        <pt x="1094" y="-243" on="0"/>
        <pt x="1096" y="-253" on="0"/>
        <pt x="1096" y="-258" on="1"/>
        <pt x="1096" y="-290" on="0"/>
        <pt x="1069" y="-351" on="0"/>
        <pt x="1025" y="-399" on="0"/>
        <pt x="970" y="-431" on="0"/>
        <pt x="942" y="-434" on="1"/>
        <pt x="930" y="-434" on="1"/>
        <pt x="922" y="-426" on="1"/>
        <pt x="825" y="-308" on="0"/>
        <pt x="707" y="-244" on="1"/>
        <pt x="698" y="-240" on="1"/>
        <pt x="696" y="-233" on="1"/>
        <pt x="687" y="-208" on="0"/>
        <pt x="684" y="-188" on="1"/>
        <pt x="654" y="-164" on="0"/>
        <pt x="639" y="-133" on="1"/>
        <pt x="633" y="-121" on="1"/>
        <pt x="641" y="-111" on="1"/>
        <pt x="663" y="-80" on="0"/>
        <pt x="699" y="-11" on="0"/>
        <pt x="715" y="25" on="1"/>
        <pt x="708" y="27" on="0"/>
        <pt x="699" y="31" on="0"/>
        <pt x="695" y="33" on="1"/>
        <pt x="691" y="35" on="0"/>
        <pt x="688" y="37" on="1"/>
        <pt x="674" y="45" on="1"/>
        <pt x="676" y="61" on="1"/>
        <pt x="676" y="74" on="0"/>
        <pt x="678" y="98" on="0"/>
        <pt x="678" y="111" on="1"/>
        <pt x="678" y="180" on="0"/>
        <pt x="666" y="248" on="1"/>
        <pt x="662" y="244" on="0"/>
        <pt x="659" y="244" on="1"/>
        <pt x="645" y="240" on="1"/>
        <pt x="582" y="240" on="0"/>
        <pt x="450" y="224" on="0"/>
        <pt x="385" y="203" on="1"/>
        <pt x="385" y="172" on="1"/>
        <pt x="385" y="129" on="0"/>
        <pt x="391" y="86" on="1"/>
        <pt x="393" y="76" on="1"/>
        <pt x="387" y="68" on="1"/>
        <pt x="386" y="67" on="0"/>
        <pt x="368" y="47" on="0"/>
        <pt x="330" y="23" on="0"/>
        <pt x="272" y="4" on="0"/>
        <pt x="231" y="4" on="1"/>
        <pt x="151" y="4" on="0"/>
        <pt x="58" y="50" on="0"/>
        <pt x="33" y="79" on="1"/>
        <pt x="4" y="112" on="0"/>
        <pt x="-6" y="154" on="1"/>
        <pt x="-8" y="162" on="1"/>
        <pt x="-2" y="170" on="1"/>
        <pt x="49" y="248" on="0"/>
        <pt x="98" y="425" on="0"/>
        <pt x="98" y="528" on="1"/>
        <pt x="98" y="563" on="1"/>
        <pt x="102" y="575" on="1"/>
        <pt x="141" y="653" on="0"/>
        <pt x="178" y="808" on="0"/>
        <pt x="178" y="887" on="1"/>
        <pt x="178" y="907" on="0"/>
        <pt x="176" y="947" on="0"/>
        <pt x="174" y="967" on="1"/>
        <pt x="172" y="977" on="1"/>
        <pt x="178" y="985" on="1"/>
        <pt x="274" y="1132" on="0"/>
        <pt x="274" y="1303" on="1"/>
        <pt x="274" y="1318" on="0"/>
        <pt x="272" y="1351" on="0"/>
        <pt x="270" y="1368" on="1"/>
        <pt x="270" y="1380" on="1"/>
        <pt x="279" y="1389" on="1"/>
        <pt x="280" y="1390" on="0"/>
        <pt x="299" y="1403" on="0"/>
        <pt x="333" y="1418" on="0"/>
        <pt x="382" y="1430" on="0"/>
        <pt x="414" y="1430" on="1"/>
        <pt x="476" y="1430" on="0"/>
        <pt x="563" y="1392" on="0"/>
        <pt x="617" y="1346" on="0"/>
        <pt x="642" y="1308" on="0"/>
        <pt x="643" y="1307" on="1"/>
        <pt x="649" y="1294" on="1"/>
        <pt x="643" y="1282" on="1"/>
        <pt x="639" y="1278" on="0"/>
        <pt x="639" y="1276" on="1"/>
        <pt x="653" y="1276" on="1"/>
        <pt x="697" y="1276" on="0"/>
        <pt x="748" y="1264" on="0"/>
        <pt x="750" y="1264" on="1"/>
        <pt x="762" y="1255" on="1"/>
        <pt x="760" y="1241" on="1"/>
        <pt x="758" y="1229" on="0"/>
        <pt x="758" y="1206" on="0"/>
        <pt x="758" y="1194" on="1"/>
        <pt x="758" y="1016" on="0"/>
        <pt x="842" y="868" on="1"/>
        <pt x="846" y="856" on="1"/>
        <pt x="846" y="829" on="1"/>
        <pt x="846" y="777" on="0"/>
        <pt x="854" y="682" on="0"/>
        <pt x="866" y="639" on="1"/>
        <pt x="886" y="647" on="0"/>
        <pt x="924" y="665" on="0"/>
        <pt x="942" y="676" on="1"/>
        <pt x="952" y="682" on="1"/>
        <pt x="965" y="678" on="1"/>
        <pt x="966" y="677" on="0"/>
        <pt x="991" y="661" on="0"/>
        <pt x="1024" y="625" on="0"/>
        <pt x="1059" y="566" on="0"/>
      </contour>
      <contour>
        <pt x="592" y="1294" on="1"/>
        <pt x="586" y="1303" on="0"/>
        <pt x="558" y="1331" on="0"/>
        <pt x="515" y="1358" on="0"/>
        <pt x="454" y="1378" on="0"/>
        <pt x="414" y="1378" on="1"/>
        <pt x="379" y="1378" on="0"/>
        <pt x="333" y="1364" on="0"/>
        <pt x="322" y="1358" on="1"/>
        <pt x="324" y="1344" on="0"/>
        <pt x="324" y="1317" on="0"/>
        <pt x="324" y="1303" on="1"/>
        <pt x="324" y="1221" on="0"/>
        <pt x="284" y="1073" on="0"/>
        <pt x="246" y="1001" on="1"/>
        <pt x="254" y="1001" on="0"/>
        <pt x="268" y="1004" on="0"/>
        <pt x="276" y="1004" on="1"/>
        <pt x="315" y="1004" on="0"/>
        <pt x="377" y="988" on="0"/>
        <pt x="422" y="968" on="0"/>
        <pt x="448" y="951" on="0"/>
        <pt x="449" y="950" on="1"/>
        <pt x="459" y="943" on="0"/>
        <pt x="459" y="934" on="1"/>
        <pt x="459" y="923" on="0"/>
        <pt x="444" y="913" on="0"/>
        <pt x="436" y="913" on="1"/>
        <pt x="429" y="913" on="0"/>
        <pt x="426" y="918" on="1"/>
        <pt x="425" y="919" on="0"/>
        <pt x="404" y="930" on="0"/>
        <pt x="367" y="943" on="0"/>
        <pt x="316" y="954" on="0"/>
        <pt x="285" y="954" on="1"/>
        <pt x="258" y="954" on="0"/>
        <pt x="227" y="948" on="1"/>
        <pt x="227" y="934" on="0"/>
        <pt x="229" y="909" on="0"/>
        <pt x="229" y="895" on="1"/>
        <pt x="229" y="737" on="0"/>
        <pt x="162" y="588" on="1"/>
        <pt x="190" y="586" on="0"/>
        <pt x="266" y="571" on="0"/>
        <pt x="336" y="549" on="0"/>
        <pt x="385" y="522" on="0"/>
        <pt x="385" y="508" on="1"/>
        <pt x="385" y="499" on="0"/>
        <pt x="373" y="489" on="0"/>
        <pt x="365" y="489" on="1"/>
        <pt x="361" y="489" on="0"/>
        <pt x="357" y="492" on="0"/>
        <pt x="354" y="492" on="1"/>
        <pt x="317" y="512" on="0"/>
        <pt x="205" y="537" on="0"/>
        <pt x="150" y="537" on="1"/>
        <pt x="150" y="425" on="0"/>
        <pt x="99" y="238" on="0"/>
        <pt x="45" y="152" on="1"/>
        <pt x="48" y="145" on="0"/>
        <pt x="68" y="112" on="0"/>
        <pt x="111" y="79" on="0"/>
        <pt x="180" y="53" on="0"/>
        <pt x="231" y="53" on="1"/>
        <pt x="279" y="53" on="0"/>
        <pt x="331" y="81" on="0"/>
        <pt x="340" y="90" on="1"/>
        <pt x="337" y="110" on="0"/>
        <pt x="336" y="150" on="0"/>
        <pt x="336" y="170" on="1"/>
        <pt x="336" y="260" on="0"/>
        <pt x="380" y="427" on="0"/>
        <pt x="426" y="508" on="1"/>
        <pt x="420" y="548" on="0"/>
        <pt x="420" y="588" on="1"/>
        <pt x="420" y="671" on="0"/>
        <pt x="463" y="835" on="0"/>
        <pt x="506" y="922" on="1"/>
        <pt x="504" y="934" on="0"/>
        <pt x="504" y="958" on="0"/>
        <pt x="504" y="971" on="1"/>
        <pt x="504" y="1054" on="0"/>
        <pt x="547" y="1216" on="0"/>
      </contour>
      <contour>
        <pt x="641" y="289" on="1"/>
        <pt x="710" y="327" on="0"/>
        <pt x="863" y="367" on="0"/>
        <pt x="946" y="367" on="1"/>
        <pt x="960" y="367" on="0"/>
        <pt x="988" y="367" on="0"/>
        <pt x="1004" y="365" on="1"/>
        <pt x="1010" y="376" on="0"/>
        <pt x="1028" y="425" on="0"/>
        <pt x="1028" y="459" on="1"/>
        <pt x="1028" y="496" on="0"/>
        <pt x="1010" y="555" on="0"/>
        <pt x="985" y="597" on="0"/>
        <pt x="959" y="622" on="0"/>
        <pt x="952" y="627" on="1"/>
        <pt x="810" y="547" on="0"/>
        <pt x="657" y="547" on="1"/>
        <pt x="645" y="547" on="0"/>
        <pt x="623" y="547" on="0"/>
        <pt x="612" y="549" on="1"/>
        <pt x="635" y="506" on="0"/>
        <pt x="651" y="429" on="0"/>
        <pt x="651" y="401" on="1"/>
        <pt x="651" y="377" on="0"/>
        <pt x="647" y="350" on="0"/>
        <pt x="640" y="337" on="0"/>
        <pt x="630" y="334" on="0"/>
        <pt x="625" y="334" on="1"/>
        <pt x="617" y="334" on="0"/>
        <pt x="608" y="344" on="0"/>
        <pt x="608" y="352" on="1"/>
        <pt x="608" y="379" on="1"/>
        <pt x="608" y="391" on="0"/>
        <pt x="605" y="428" on="0"/>
        <pt x="594" y="471" on="0"/>
        <pt x="574" y="520" on="0"/>
        <pt x="557" y="545" on="1"/>
        <pt x="546" y="534" on="0"/>
        <pt x="498" y="516" on="0"/>
        <pt x="475" y="510" on="1"/>
        <pt x="475" y="508" on="0"/>
        <pt x="477" y="508" on="0"/>
        <pt x="477" y="506" on="1"/>
        <pt x="479" y="498" on="1"/>
        <pt x="473" y="489" on="1"/>
        <pt x="439" y="434" on="0"/>
        <pt x="398" y="318" on="0"/>
        <pt x="389" y="256" on="1"/>
        <pt x="455" y="276" on="0"/>
        <pt x="584" y="289" on="0"/>
      </contour>
      <contour>
        <pt x="754" y="846" on="1"/>
        <pt x="752" y="838" on="0"/>
        <pt x="739" y="829" on="0"/>
        <pt x="733" y="829" on="1"/>
        <pt x="731" y="829" on="0"/>
        <pt x="729" y="830" on="1"/>
        <pt x="727" y="830" on="0"/>
        <pt x="722" y="831" on="0"/>
        <pt x="719" y="831" on="1"/>
        <pt x="699" y="831" on="0"/>
        <pt x="627" y="814" on="0"/>
        <pt x="590" y="786" on="1"/>
        <pt x="588" y="786" on="0"/>
        <pt x="586" y="784" on="0"/>
        <pt x="584" y="784" on="1"/>
        <pt x="626" y="685" on="0"/>
        <pt x="647" y="596" on="1"/>
        <pt x="653" y="596" on="1"/>
        <pt x="740" y="596" on="0"/>
        <pt x="821" y="621" on="1"/>
        <pt x="807" y="673" on="0"/>
        <pt x="795" y="787" on="0"/>
        <pt x="795" y="850" on="1"/>
        <pt x="707" y="1011" on="0"/>
        <pt x="707" y="1192" on="1"/>
        <pt x="707" y="1200" on="0"/>
        <pt x="709" y="1217" on="0"/>
        <pt x="709" y="1227" on="1"/>
        <pt x="706" y="1229" on="0"/>
        <pt x="681" y="1231" on="0"/>
        <pt x="664" y="1231" on="1"/>
        <pt x="651" y="1231" on="0"/>
        <pt x="627" y="1231" on="0"/>
        <pt x="614" y="1229" on="1"/>
        <pt x="582" y="1163" on="0"/>
        <pt x="553" y="1033" on="0"/>
        <pt x="553" y="967" on="1"/>
        <pt x="553" y="954" on="0"/>
        <pt x="553" y="930" on="0"/>
        <pt x="555" y="918" on="1"/>
        <pt x="557" y="911" on="1"/>
        <pt x="553" y="905" on="1"/>
        <pt x="552" y="903" on="0"/>
        <pt x="552" y="903" on="1"/>
        <pt x="551" y="903" on="1"/>
        <pt x="557" y="881" on="0"/>
        <pt x="571" y="833" on="0"/>
        <pt x="571" y="829" on="1"/>
        <pt x="609" y="854" on="0"/>
        <pt x="678" y="868" on="0"/>
        <pt x="702" y="868" on="1"/>
        <pt x="738" y="868" on="0"/>
        <pt x="754" y="859" on="0"/>
        <pt x="754" y="848" on="1"/>
      </contour>
      <contour>
        <pt x="713" y="270" on="1"/>
        <pt x="721" y="232" on="0"/>
        <pt x="727" y="157" on="0"/>
        <pt x="727" y="119" on="1"/>
        <pt x="727" y="76" on="1"/>
        <pt x="739" y="70" on="0"/>
        <pt x="781" y="61" on="0"/>
        <pt x="809" y="61" on="1"/>
        <pt x="841" y="61" on="0"/>
        <pt x="899" y="76" on="0"/>
        <pt x="945" y="96" on="0"/>
        <pt x="977" y="118" on="0"/>
        <pt x="985" y="125" on="1"/>
        <pt x="959" y="171" on="0"/>
        <pt x="919" y="266" on="0"/>
        <pt x="905" y="315" on="1"/>
        <pt x="854" y="312" on="0"/>
        <pt x="758" y="290" on="0"/>
      </contour>
      <contour>
        <pt x="866" y="-197" on="1"/>
        <pt x="826" y="-225" on="0"/>
        <pt x="782" y="-225" on="1"/>
        <pt x="777" y="-225" on="0"/>
        <pt x="769" y="-225" on="0"/>
        <pt x="764" y="-223" on="1"/>
        <pt x="813" y="-255" on="0"/>
        <pt x="906" y="-336" on="0"/>
        <pt x="948" y="-387" on="1"/>
        <pt x="967" y="-383" on="0"/>
        <pt x="1004" y="-357" on="0"/>
        <pt x="1033" y="-321" on="0"/>
        <pt x="1051" y="-278" on="0"/>
        <pt x="1051" y="-256" on="1"/>
        <pt x="957" y="-212" on="0"/>
        <pt x="883" y="-147" on="1"/>
        <pt x="880" y="-157" on="0"/>
        <pt x="876" y="-173" on="0"/>
        <pt x="874" y="-182" on="1"/>
      </contour>
      <contour>
        <pt x="879" y="20" on="1"/>
        <pt x="860" y="15" on="0"/>
        <pt x="823" y="10" on="0"/>
        <pt x="805" y="10" on="1"/>
        <pt x="791" y="10" on="0"/>
        <pt x="769" y="11" on="0"/>
        <pt x="758" y="14" on="1"/>
        <pt x="729" y="-62" on="0"/>
        <pt x="686" y="-125" on="1"/>
        <pt x="700" y="-147" on="0"/>
        <pt x="751" y="-180" on="0"/>
        <pt x="782" y="-180" on="1"/>
        <pt x="795" y="-180" on="0"/>
        <pt x="819" y="-173" on="0"/>
        <pt x="831" y="-164" on="1"/>
        <pt x="844" y="-114" on="0"/>
        <pt x="885" y="-18" on="0"/>
        <pt x="911" y="29" on="1"/>
      </contour>
      <contour>
        <pt x="516" y="825" on="1"/>
        <pt x="493" y="765" on="0"/>
        <pt x="471" y="647" on="0"/>
        <pt x="471" y="590" on="1"/>
        <pt x="471" y="563" on="1"/>
        <pt x="514" y="578" on="0"/>
        <pt x="553" y="598" on="1"/>
        <pt x="569" y="602" on="1"/>
        <pt x="576" y="600" on="0"/>
        <pt x="590" y="598" on="0"/>
        <pt x="596" y="598" on="1"/>
        <pt x="585" y="641" on="0"/>
        <pt x="552" y="730" on="0"/>
        <pt x="530" y="778" on="1"/>
      </contour>
    </TTGlyph>
    <TTGlyph name="Aring" xMin="-8" yMin="4" xMax="1075" yMax="2043">
      <component glyphName="A" x="0" y="0" flags="0x204"/>
      <component glyphName="ring" x="217" y="-81" flags="0x4"/>
    </TTGlyph>
    <TTGlyph name="Atilde" xMin="-8" yMin="4" xMax="1075" yMax="1994">
      <component glyphName="A" x="0" y="0" flags="0x204"/>
      <component glyphName="tilde" x="133" y="-62" flags="0x4"/>
    </TTGlyph>
    <TTGlyph name="B" xMin="57" yMin="-84" xMax="1079" yMax="1524">
      <contour>
        <pt x="1024" y="831" on="1"/>
        <pt x="1012" y="827" on="1"/>
        <pt x="881" y="791" on="0"/>
        <pt x="784" y="717" on="1"/>
        <pt x="835" y="672" on="0"/>
        <pt x="951" y="610" on="0"/>
        <pt x="1020" y="592" on="1"/>
        <pt x="1032" y="588" on="1"/>
        <pt x="1038" y="575" on="1"/>
        <pt x="1038" y="573" on="0"/>
        <pt x="1044" y="545" on="0"/>
        <pt x="1044" y="522" on="1"/>
        <pt x="1044" y="502" on="0"/>
        <pt x="1039" y="470" on="0"/>
        <pt x="1034" y="455" on="1"/>
        <pt x="1051" y="424" on="0"/>
        <pt x="1065" y="357" on="0"/>
        <pt x="1065" y="334" on="1"/>
        <pt x="1065" y="294" on="0"/>
        <pt x="1049" y="244" on="0"/>
        <pt x="1047" y="242" on="1"/>
        <pt x="1040" y="231" on="1"/>
        <pt x="1026" y="229" on="1"/>
        <pt x="822" y="205" on="0"/>
        <pt x="682" y="80" on="1"/>
        <pt x="670" y="74" on="1"/>
        <pt x="620" y="64" on="0"/>
        <pt x="535" y="41" on="0"/>
        <pt x="458" y="7" on="0"/>
        <pt x="386" y="-41" on="0"/>
        <pt x="350" y="-76" on="1"/>
        <pt x="332" y="-84" on="1"/>
        <pt x="330" y="-84" on="0"/>
        <pt x="302" y="-81" on="0"/>
        <pt x="259" y="-65" on="0"/>
        <pt x="208" y="-29" on="0"/>
        <pt x="184" y="4" on="1"/>
        <pt x="148" y="13" on="0"/>
        <pt x="101" y="44" on="0"/>
        <pt x="72" y="75" on="0"/>
        <pt x="61" y="98" on="0"/>
        <pt x="61" y="100" on="1"/>
        <pt x="57" y="111" on="1"/>
        <pt x="61" y="119" on="1"/>
        <pt x="84" y="175" on="0"/>
        <pt x="106" y="290" on="0"/>
        <pt x="106" y="352" on="1"/>
        <pt x="106" y="394" on="0"/>
        <pt x="97" y="479" on="0"/>
        <pt x="86" y="524" on="1"/>
        <pt x="86" y="537" on="1"/>
        <pt x="98" y="586" on="0"/>
        <pt x="113" y="681" on="0"/>
        <pt x="113" y="729" on="1"/>
        <pt x="113" y="783" on="0"/>
        <pt x="95" y="885" on="0"/>
        <pt x="80" y="936" on="1"/>
        <pt x="78" y="944" on="1"/>
        <pt x="82" y="952" on="1"/>
        <pt x="125" y="1062" on="0"/>
        <pt x="125" y="1171" on="1"/>
        <pt x="125" y="1215" on="0"/>
        <pt x="112" y="1301" on="0"/>
        <pt x="98" y="1346" on="1"/>
        <pt x="94" y="1358" on="1"/>
        <pt x="102" y="1368" on="1"/>
        <pt x="103" y="1369" on="0"/>
        <pt x="117" y="1384" on="0"/>
        <pt x="145" y="1405" on="0"/>
        <pt x="189" y="1426" on="0"/>
        <pt x="219" y="1432" on="1"/>
        <pt x="239" y="1464" on="0"/>
        <pt x="289" y="1501" on="0"/>
        <pt x="334" y="1519" on="0"/>
        <pt x="363" y="1524" on="0"/>
        <pt x="362" y="1524" on="1"/>
        <pt x="373" y="1524" on="1"/>
        <pt x="381" y="1518" on="1"/>
        <pt x="413" y="1489" on="0"/>
        <pt x="477" y="1447" on="0"/>
        <pt x="546" y="1416" on="0"/>
        <pt x="624" y="1395" on="0"/>
        <pt x="670" y="1386" on="1"/>
        <pt x="675" y="1384" on="0"/>
        <pt x="685" y="1384" on="0"/>
        <pt x="690" y="1384" on="1"/>
        <pt x="698" y="1384" on="1"/>
        <pt x="707" y="1378" on="1"/>
        <pt x="747" y="1344" on="0"/>
        <pt x="820" y="1295" on="0"/>
        <pt x="898" y="1262" on="0"/>
        <pt x="984" y="1244" on="0"/>
        <pt x="1036" y="1241" on="1"/>
        <pt x="1049" y="1241" on="1"/>
        <pt x="1057" y="1229" on="1"/>
        <pt x="1057" y="1228" on="0"/>
        <pt x="1064" y="1214" on="0"/>
        <pt x="1072" y="1188" on="0"/>
        <pt x="1079" y="1152" on="0"/>
        <pt x="1079" y="1130" on="1"/>
        <pt x="1079" y="1110" on="0"/>
        <pt x="1072" y="1066" on="0"/>
        <pt x="1063" y="1040" on="1"/>
        <pt x="1048" y="999" on="0"/>
        <pt x="1028" y="973" on="1"/>
        <pt x="1033" y="954" on="0"/>
        <pt x="1038" y="921" on="0"/>
        <pt x="1038" y="907" on="1"/>
        <pt x="1038" y="879" on="0"/>
        <pt x="1028" y="846" on="0"/>
        <pt x="1028" y="844" on="1"/>
      </contour>
      <contour>
        <pt x="375" y="516" on="1"/>
        <pt x="371" y="502" on="0"/>
        <pt x="356" y="502" on="1"/>
        <pt x="333" y="502" on="0"/>
        <pt x="274" y="516" on="0"/>
        <pt x="240" y="516" on="1"/>
        <pt x="215" y="516" on="0"/>
        <pt x="164" y="513" on="0"/>
        <pt x="139" y="508" on="1"/>
        <pt x="149" y="466" on="0"/>
        <pt x="156" y="386" on="0"/>
        <pt x="156" y="348" on="1"/>
        <pt x="156" y="319" on="0"/>
        <pt x="150" y="262" on="0"/>
        <pt x="145" y="233" on="1"/>
        <pt x="153" y="250" on="0"/>
        <pt x="168" y="268" on="0"/>
        <pt x="170" y="270" on="1"/>
        <pt x="178" y="279" on="1"/>
        <pt x="188" y="279" on="1"/>
        <pt x="242" y="282" on="0"/>
        <pt x="334" y="306" on="0"/>
        <pt x="379" y="328" on="1"/>
        <pt x="379" y="379" on="0"/>
        <pt x="399" y="481" on="0"/>
        <pt x="418" y="532" on="1"/>
        <pt x="401" y="583" on="0"/>
        <pt x="385" y="685" on="0"/>
        <pt x="385" y="739" on="1"/>
        <pt x="385" y="790" on="0"/>
        <pt x="400" y="897" on="0"/>
        <pt x="416" y="952" on="1"/>
        <pt x="391" y="1031" on="0"/>
        <pt x="391" y="1116" on="1"/>
        <pt x="391" y="1126" on="1"/>
        <pt x="357" y="1137" on="0"/>
        <pt x="287" y="1149" on="0"/>
        <pt x="244" y="1151" on="1"/>
        <pt x="233" y="1151" on="1"/>
        <pt x="227" y="1159" on="1"/>
        <pt x="225" y="1160" on="0"/>
        <pt x="211" y="1176" on="0"/>
        <pt x="195" y="1207" on="0"/>
        <pt x="182" y="1253" on="0"/>
        <pt x="182" y="1284" on="1"/>
        <pt x="182" y="1332" on="0"/>
        <pt x="193" y="1370" on="1"/>
        <pt x="177" y="1362" on="0"/>
        <pt x="158" y="1351" on="0"/>
        <pt x="152" y="1346" on="1"/>
        <pt x="164" y="1301" on="0"/>
        <pt x="176" y="1214" on="0"/>
        <pt x="176" y="1169" on="1"/>
        <pt x="176" y="1123" on="0"/>
        <pt x="161" y="1029" on="0"/>
        <pt x="145" y="983" on="1"/>
        <pt x="168" y="989" on="0"/>
        <pt x="213" y="995" on="0"/>
        <pt x="233" y="995" on="1"/>
        <pt x="288" y="995" on="0"/>
        <pt x="344" y="981" on="0"/>
        <pt x="355" y="973" on="1"/>
        <pt x="368" y="963" on="0"/>
        <pt x="367" y="952" on="1"/>
        <pt x="367" y="943" on="0"/>
        <pt x="354" y="932" on="0"/>
        <pt x="346" y="932" on="1"/>
        <pt x="344" y="932" on="0"/>
        <pt x="337" y="937" on="0"/>
        <pt x="317" y="943" on="0"/>
        <pt x="281" y="948" on="0"/>
        <pt x="250" y="948" on="1"/>
        <pt x="225" y="948" on="0"/>
        <pt x="167" y="938" on="0"/>
        <pt x="135" y="926" on="1"/>
        <pt x="149" y="878" on="0"/>
        <pt x="164" y="782" on="0"/>
        <pt x="164" y="731" on="1"/>
        <pt x="164" y="689" on="0"/>
        <pt x="153" y="602" on="0"/>
        <pt x="143" y="559" on="1"/>
        <pt x="159" y="561" on="0"/>
        <pt x="187" y="563" on="0"/>
        <pt x="203" y="563" on="1"/>
        <pt x="226" y="563" on="0"/>
        <pt x="286" y="558" on="0"/>
        <pt x="340" y="548" on="0"/>
        <pt x="377" y="533" on="0"/>
        <pt x="377" y="522" on="1"/>
        <pt x="377" y="520" on="0"/>
        <pt x="375" y="518" on="0"/>
      </contour>
      <contour>
        <pt x="1018" y="1194" on="1"/>
        <pt x="970" y="1198" on="0"/>
        <pt x="892" y="1214" on="0"/>
        <pt x="821" y="1242" on="0"/>
        <pt x="752" y="1282" on="0"/>
        <pt x="715" y="1311" on="1"/>
        <pt x="713" y="1268" on="0"/>
        <pt x="688" y="1199" on="0"/>
        <pt x="661" y="1151" on="0"/>
        <pt x="638" y="1125" on="0"/>
        <pt x="637" y="1124" on="1"/>
        <pt x="631" y="1118" on="0"/>
        <pt x="623" y="1118" on="1"/>
        <pt x="613" y="1118" on="0"/>
        <pt x="602" y="1131" on="0"/>
        <pt x="602" y="1139" on="1"/>
        <pt x="602" y="1147" on="0"/>
        <pt x="606" y="1151" on="1"/>
        <pt x="607" y="1152" on="0"/>
        <pt x="625" y="1177" on="0"/>
        <pt x="646" y="1222" on="0"/>
        <pt x="664" y="1283" on="0"/>
        <pt x="664" y="1321" on="1"/>
        <pt x="664" y="1330" on="0"/>
        <pt x="663" y="1334" on="0"/>
        <pt x="653" y="1339" on="1"/>
        <pt x="606" y="1348" on="0"/>
        <pt x="527" y="1371" on="0"/>
        <pt x="456" y="1403" on="0"/>
        <pt x="390" y="1444" on="0"/>
        <pt x="356" y="1473" on="1"/>
        <pt x="350" y="1471" on="0"/>
        <pt x="309" y="1453" on="0"/>
        <pt x="266" y="1411" on="0"/>
        <pt x="231" y="1338" on="0"/>
        <pt x="231" y="1282" on="1"/>
        <pt x="231" y="1248" on="0"/>
        <pt x="248" y="1208" on="0"/>
        <pt x="256" y="1200" on="1"/>
        <pt x="303" y="1198" on="0"/>
        <pt x="383" y="1183" on="0"/>
        <pt x="457" y="1157" on="0"/>
        <pt x="529" y="1120" on="0"/>
        <pt x="567" y="1096" on="1"/>
        <pt x="575" y="1091" on="0"/>
        <pt x="591" y="1080" on="0"/>
        <pt x="600" y="1075" on="1"/>
        <pt x="648" y="1071" on="0"/>
        <pt x="729" y="1053" on="0"/>
        <pt x="805" y="1021" on="0"/>
        <pt x="880" y="975" on="0"/>
        <pt x="922" y="944" on="1"/>
        <pt x="932" y="949" on="0"/>
        <pt x="968" y="977" on="0"/>
        <pt x="1004" y="1024" on="0"/>
        <pt x="1030" y="1090" on="0"/>
        <pt x="1030" y="1133" on="1"/>
        <pt x="1030" y="1154" on="0"/>
        <pt x="1023" y="1185" on="0"/>
      </contour>
      <contour>
        <pt x="825" y="274" on="1"/>
        <pt x="817" y="285" on="1"/>
        <pt x="788" y="319" on="0"/>
        <pt x="728" y="376" on="0"/>
        <pt x="696" y="399" on="1"/>
        <pt x="635" y="378" on="0"/>
        <pt x="569" y="369" on="1"/>
        <pt x="598" y="337" on="0"/>
        <pt x="629" y="273" on="0"/>
        <pt x="643" y="220" on="0"/>
        <pt x="645" y="184" on="0"/>
        <pt x="645" y="182" on="1"/>
        <pt x="645" y="174" on="0"/>
        <pt x="635" y="162" on="0"/>
        <pt x="627" y="162" on="1"/>
        <pt x="617" y="162" on="0"/>
        <pt x="606" y="172" on="0"/>
        <pt x="606" y="180" on="1"/>
        <pt x="606" y="181" on="0"/>
        <pt x="601" y="215" on="0"/>
        <pt x="582" y="265" on="0"/>
        <pt x="545" y="325" on="0"/>
        <pt x="514" y="352" on="1"/>
        <pt x="506" y="346" on="1"/>
        <pt x="467" y="319" on="0"/>
        <pt x="395" y="279" on="0"/>
        <pt x="322" y="251" on="0"/>
        <pt x="245" y="234" on="0"/>
        <pt x="201" y="231" on="1"/>
        <pt x="195" y="222" on="0"/>
        <pt x="180" y="188" on="0"/>
        <pt x="180" y="162" on="1"/>
        <pt x="180" y="104" on="0"/>
        <pt x="222" y="29" on="0"/>
        <pt x="274" y="-15" on="0"/>
        <pt x="320" y="-33" on="0"/>
        <pt x="324" y="-33" on="1"/>
        <pt x="396" y="34" on="0"/>
        <pt x="554" y="104" on="0"/>
        <pt x="655" y="121" on="1"/>
        <pt x="800" y="247" on="0"/>
        <pt x="1008" y="274" on="1"/>
        <pt x="1010" y="284" on="0"/>
        <pt x="1016" y="313" on="0"/>
        <pt x="1016" y="332" on="1"/>
        <pt x="1016" y="344" on="0"/>
        <pt x="1013" y="374" on="0"/>
        <pt x="1008" y="391" on="1"/>
        <pt x="985" y="356" on="0"/>
        <pt x="925" y="310" on="0"/>
        <pt x="872" y="283" on="0"/>
        <pt x="836" y="272" on="0"/>
        <pt x="838" y="274" on="1"/>
      </contour>
      <contour>
        <pt x="913" y="889" on="1"/>
        <pt x="903" y="897" on="1"/>
        <pt x="861" y="928" on="0"/>
        <pt x="791" y="974" on="0"/>
        <pt x="754" y="989" on="1"/>
        <pt x="661" y="918" on="0"/>
        <pt x="549" y="883" on="1"/>
        <pt x="582" y="857" on="0"/>
        <pt x="620" y="802" on="0"/>
        <pt x="640" y="754" on="0"/>
        <pt x="645" y="721" on="0"/>
        <pt x="645" y="717" on="1"/>
        <pt x="645" y="709" on="0"/>
        <pt x="633" y="698" on="0"/>
        <pt x="625" y="698" on="1"/>
        <pt x="612" y="698" on="0"/>
        <pt x="605" y="709" on="0"/>
        <pt x="601" y="729" on="0"/>
        <pt x="596" y="758" on="0"/>
        <pt x="576" y="793" on="0"/>
        <pt x="535" y="835" on="0"/>
        <pt x="498" y="858" on="1"/>
        <pt x="484" y="844" on="0"/>
        <pt x="453" y="819" on="0"/>
        <pt x="436" y="807" on="1"/>
        <pt x="434" y="788" on="0"/>
        <pt x="434" y="754" on="0"/>
        <pt x="434" y="737" on="1"/>
        <pt x="434" y="645" on="0"/>
        <pt x="459" y="561" on="1"/>
        <pt x="508" y="595" on="0"/>
        <pt x="612" y="647" on="0"/>
        <pt x="662" y="664" on="1"/>
        <pt x="725" y="736" on="0"/>
        <pt x="888" y="837" on="0"/>
        <pt x="987" y="868" on="1"/>
        <pt x="989" y="875" on="0"/>
        <pt x="989" y="890" on="0"/>
        <pt x="989" y="899" on="1"/>
        <pt x="989" y="905" on="0"/>
        <pt x="987" y="920" on="0"/>
        <pt x="987" y="928" on="1"/>
        <pt x="964" y="909" on="0"/>
        <pt x="928" y="893" on="0"/>
        <pt x="926" y="893" on="1"/>
      </contour>
      <contour>
        <pt x="692" y="631" on="1"/>
        <pt x="682" y="623" on="1"/>
        <pt x="642" y="606" on="0"/>
        <pt x="560" y="570" on="0"/>
        <pt x="520" y="545" on="1"/>
        <pt x="526" y="541" on="1"/>
        <pt x="617" y="513" on="0"/>
        <pt x="778" y="406" on="0"/>
        <pt x="844" y="326" on="1"/>
        <pt x="857" y="329" on="0"/>
        <pt x="908" y="357" on="0"/>
        <pt x="958" y="406" on="0"/>
        <pt x="995" y="477" on="0"/>
        <pt x="995" y="522" on="1"/>
        <pt x="995" y="530" on="0"/>
        <pt x="993" y="544" on="0"/>
        <pt x="993" y="549" on="1"/>
        <pt x="852" y="593" on="0"/>
        <pt x="745" y="686" on="1"/>
      </contour>
      <contour>
        <pt x="578" y="1032" on="1"/>
        <pt x="539" y="1054" on="0"/>
        <pt x="473" y="1092" on="0"/>
        <pt x="442" y="1106" on="1"/>
        <pt x="442" y="1069" on="0"/>
        <pt x="454" y="996" on="0"/>
        <pt x="465" y="961" on="1"/>
        <pt x="465" y="946" on="1"/>
        <pt x="460" y="928" on="0"/>
        <pt x="452" y="894" on="0"/>
        <pt x="449" y="877" on="1"/>
        <pt x="477" y="905" on="1"/>
        <pt x="483" y="913" on="1"/>
        <pt x="492" y="915" on="1"/>
        <pt x="550" y="929" on="0"/>
        <pt x="654" y="974" on="0"/>
        <pt x="702" y="1008" on="1"/>
        <pt x="651" y="1020" on="0"/>
        <pt x="590" y="1026" on="1"/>
      </contour>
      <contour>
        <pt x="461" y="508" on="1"/>
        <pt x="436" y="433" on="0"/>
        <pt x="430" y="356" on="1"/>
        <pt x="444" y="364" on="0"/>
        <pt x="471" y="380" on="0"/>
        <pt x="485" y="391" on="1"/>
        <pt x="500" y="403" on="1"/>
        <pt x="506" y="410" on="1"/>
        <pt x="516" y="412" on="1"/>
        <pt x="548" y="414" on="0"/>
        <pt x="613" y="425" on="0"/>
        <pt x="645" y="434" on="1"/>
        <pt x="579" y="471" on="0"/>
        <pt x="506" y="496" on="1"/>
        <pt x="494" y="502" on="1"/>
        <pt x="477" y="518" on="1"/>
        <pt x="472" y="516" on="0"/>
        <pt x="466" y="511" on="0"/>
      </contour>
      <contour>
        <pt x="113" y="111" on="1"/>
        <pt x="116" y="104" on="0"/>
        <pt x="132" y="85" on="0"/>
        <pt x="147" y="74" on="1"/>
        <pt x="138" y="98" on="0"/>
        <pt x="131" y="141" on="0"/>
        <pt x="131" y="160" on="1"/>
        <pt x="131" y="166" on="1"/>
      </contour>
    </TTGlyph>
    <TTGlyph name="C" xMin="16" yMin="-53" xMax="1053" yMax="1462">
      <contour>
        <pt x="512" y="913" on="1"/>
        <pt x="510" y="907" on="1"/>
        <pt x="481" y="839" on="0"/>
        <pt x="455" y="728" on="0"/>
        <pt x="455" y="674" on="1"/>
        <pt x="455" y="642" on="0"/>
        <pt x="463" y="578" on="0"/>
        <pt x="471" y="543" on="1"/>
        <pt x="473" y="535" on="1"/>
        <pt x="469" y="526" on="1"/>
        <pt x="440" y="469" on="0"/>
        <pt x="409" y="380" on="0"/>
        <pt x="406" y="332" on="1"/>
        <pt x="426" y="335" on="0"/>
        <pt x="458" y="343" on="0"/>
        <pt x="489" y="354" on="0"/>
        <pt x="522" y="366" on="0"/>
        <pt x="543" y="373" on="1"/>
        <pt x="548" y="375" on="0"/>
        <pt x="556" y="378" on="0"/>
        <pt x="561" y="381" on="1"/>
        <pt x="569" y="385" on="1"/>
        <pt x="578" y="383" on="1"/>
        <pt x="612" y="375" on="0"/>
        <pt x="673" y="369" on="0"/>
        <pt x="700" y="369" on="1"/>
        <pt x="757" y="369" on="0"/>
        <pt x="865" y="397" on="0"/>
        <pt x="930" y="428" on="1"/>
        <pt x="942" y="434" on="1"/>
        <pt x="952" y="428" on="1"/>
        <pt x="953" y="427" on="0"/>
        <pt x="979" y="409" on="0"/>
        <pt x="1012" y="370" on="0"/>
        <pt x="1044" y="309" on="0"/>
        <pt x="1051" y="264" on="1"/>
        <pt x="1053" y="253" on="0"/>
        <pt x="1053" y="233" on="0"/>
        <pt x="1053" y="223" on="1"/>
        <pt x="1053" y="188" on="0"/>
        <pt x="1037" y="132" on="0"/>
        <pt x="1017" y="93" on="0"/>
        <pt x="1000" y="71" on="0"/>
        <pt x="999" y="70" on="1"/>
        <pt x="989" y="59" on="1"/>
        <pt x="977" y="63" on="1"/>
        <pt x="946" y="68" on="0"/>
        <pt x="890" y="74" on="0"/>
        <pt x="864" y="74" on="1"/>
        <pt x="805" y="74" on="0"/>
        <pt x="704" y="46" on="0"/>
        <pt x="645" y="18" on="1"/>
        <pt x="637" y="14" on="1"/>
        <pt x="631" y="16" on="1"/>
        <pt x="608" y="16" on="0"/>
        <pt x="564" y="20" on="0"/>
        <pt x="543" y="20" on="1"/>
        <pt x="468" y="20" on="0"/>
        <pt x="326" y="-14" on="0"/>
        <pt x="258" y="-49" on="1"/>
        <pt x="248" y="-53" on="1"/>
        <pt x="240" y="-51" on="1"/>
        <pt x="243" y="-52" on="0"/>
        <pt x="207" y="-38" on="0"/>
        <pt x="159" y="-1" on="0"/>
        <pt x="114" y="64" on="0"/>
        <pt x="109" y="115" on="1"/>
        <pt x="82" y="130" on="0"/>
        <pt x="47" y="165" on="0"/>
        <pt x="26" y="195" on="0"/>
        <pt x="18" y="216" on="0"/>
        <pt x="18" y="217" on="1"/>
        <pt x="16" y="227" on="1"/>
        <pt x="20" y="236" on="1"/>
        <pt x="39" y="270" on="0"/>
        <pt x="67" y="330" on="0"/>
        <pt x="85" y="387" on="0"/>
        <pt x="94" y="446" on="0"/>
        <pt x="94" y="481" on="1"/>
        <pt x="94" y="522" on="0"/>
        <pt x="88" y="573" on="1"/>
        <pt x="90" y="586" on="1"/>
        <pt x="116" y="649" on="0"/>
        <pt x="141" y="757" on="0"/>
        <pt x="141" y="811" on="1"/>
        <pt x="141" y="842" on="0"/>
        <pt x="133" y="907" on="0"/>
        <pt x="127" y="942" on="1"/>
        <pt x="125" y="952" on="1"/>
        <pt x="129" y="958" on="1"/>
        <pt x="152" y="1003" on="0"/>
        <pt x="182" y="1078" on="0"/>
        <pt x="190" y="1116" on="1"/>
        <pt x="175" y="1136" on="0"/>
        <pt x="154" y="1203" on="0"/>
        <pt x="154" y="1251" on="1"/>
        <pt x="154" y="1315" on="0"/>
        <pt x="187" y="1396" on="0"/>
        <pt x="228" y="1442" on="0"/>
        <pt x="262" y="1458" on="0"/>
        <pt x="264" y="1458" on="1"/>
        <pt x="274" y="1462" on="1"/>
        <pt x="283" y="1458" on="1"/>
        <pt x="335" y="1432" on="0"/>
        <pt x="441" y="1409" on="0"/>
        <pt x="500" y="1409" on="1"/>
        <pt x="524" y="1409" on="0"/>
        <pt x="588" y="1410" on="0"/>
        <pt x="614" y="1419" on="1"/>
        <pt x="623" y="1421" on="1"/>
        <pt x="631" y="1417" on="1"/>
        <pt x="690" y="1391" on="0"/>
        <pt x="787" y="1364" on="0"/>
        <pt x="838" y="1364" on="1"/>
        <pt x="869" y="1364" on="0"/>
        <pt x="932" y="1373" on="0"/>
        <pt x="967" y="1382" on="1"/>
        <pt x="979" y="1384" on="1"/>
        <pt x="987" y="1376" on="1"/>
        <pt x="988" y="1375" on="0"/>
        <pt x="1008" y="1355" on="0"/>
        <pt x="1029" y="1315" on="0"/>
        <pt x="1047" y="1254" on="0"/>
        <pt x="1047" y="1212" on="1"/>
        <pt x="1047" y="1196" on="1"/>
        <pt x="1044" y="1151" on="0"/>
        <pt x="1017" y="1084" on="0"/>
        <pt x="987" y="1041" on="0"/>
        <pt x="962" y="1019" on="0"/>
        <pt x="961" y="1018" on="1"/>
        <pt x="948" y="1010" on="1"/>
        <pt x="936" y="1014" on="1"/>
        <pt x="877" y="1039" on="0"/>
        <pt x="784" y="1063" on="0"/>
        <pt x="737" y="1063" on="1"/>
        <pt x="709" y="1063" on="0"/>
        <pt x="653" y="1055" on="0"/>
        <pt x="621" y="1047" on="1"/>
        <pt x="606" y="1049" on="1"/>
        <pt x="577" y="1054" on="0"/>
        <pt x="529" y="1067" on="0"/>
        <pt x="504" y="1073" on="1"/>
        <pt x="502" y="1058" on="0"/>
        <pt x="502" y="1030" on="0"/>
        <pt x="502" y="1016" on="1"/>
        <pt x="502" y="994" on="0"/>
        <pt x="507" y="948" on="0"/>
        <pt x="512" y="922" on="1"/>
      </contour>
      <contour>
        <pt x="393" y="1090" on="1"/>
        <pt x="326" y="1090" on="0"/>
        <pt x="256" y="1069" on="1"/>
        <pt x="246" y="1067" on="1"/>
        <pt x="238" y="1071" on="1"/>
        <pt x="235" y="1071" on="1"/>
        <pt x="233" y="1071" on="0"/>
        <pt x="231" y="1073" on="1"/>
        <pt x="225" y="1051" on="0"/>
        <pt x="208" y="1006" on="0"/>
        <pt x="197" y="981" on="1"/>
        <pt x="211" y="983" on="0"/>
        <pt x="237" y="985" on="0"/>
        <pt x="250" y="985" on="1"/>
        <pt x="283" y="985" on="0"/>
        <pt x="338" y="973" on="0"/>
        <pt x="378" y="959" on="0"/>
        <pt x="401" y="947" on="0"/>
        <pt x="403" y="946" on="1"/>
        <pt x="412" y="941" on="0"/>
        <pt x="412" y="928" on="1"/>
        <pt x="412" y="920" on="0"/>
        <pt x="400" y="907" on="0"/>
        <pt x="391" y="907" on="1"/>
        <pt x="389" y="907" on="0"/>
        <pt x="379" y="916" on="0"/>
        <pt x="353" y="927" on="0"/>
        <pt x="304" y="936" on="0"/>
        <pt x="262" y="936" on="1"/>
        <pt x="244" y="936" on="0"/>
        <pt x="202" y="932" on="0"/>
        <pt x="180" y="926" on="1"/>
        <pt x="185" y="894" on="0"/>
        <pt x="190" y="837" on="0"/>
        <pt x="190" y="809" on="1"/>
        <pt x="190" y="758" on="0"/>
        <pt x="171" y="659" on="0"/>
        <pt x="150" y="600" on="1"/>
        <pt x="180" y="600" on="0"/>
        <pt x="260" y="590" on="0"/>
        <pt x="330" y="573" on="0"/>
        <pt x="379" y="550" on="0"/>
        <pt x="379" y="537" on="1"/>
        <pt x="379" y="529" on="0"/>
        <pt x="366" y="518" on="0"/>
        <pt x="358" y="518" on="1"/>
        <pt x="356" y="518" on="0"/>
        <pt x="352" y="518" on="0"/>
        <pt x="350" y="520" on="1"/>
        <pt x="316" y="534" on="0"/>
        <pt x="217" y="551" on="0"/>
        <pt x="168" y="551" on="1"/>
        <pt x="141" y="551" on="1"/>
        <pt x="143" y="531" on="0"/>
        <pt x="145" y="494" on="0"/>
        <pt x="145" y="477" on="1"/>
        <pt x="145" y="439" on="0"/>
        <pt x="136" y="377" on="0"/>
        <pt x="117" y="317" on="0"/>
        <pt x="89" y="256" on="0"/>
        <pt x="70" y="221" on="1"/>
        <pt x="74" y="213" on="0"/>
        <pt x="94" y="185" on="0"/>
        <pt x="135" y="158" on="0"/>
        <pt x="200" y="137" on="0"/>
        <pt x="248" y="137" on="1"/>
        <pt x="275" y="137" on="0"/>
        <pt x="315" y="147" on="0"/>
        <pt x="345" y="161" on="0"/>
        <pt x="365" y="177" on="0"/>
        <pt x="371" y="182" on="1"/>
        <pt x="363" y="219" on="0"/>
        <pt x="354" y="281" on="0"/>
        <pt x="354" y="309" on="1"/>
        <pt x="354" y="367" on="0"/>
        <pt x="388" y="475" on="0"/>
        <pt x="420" y="541" on="1"/>
        <pt x="412" y="576" on="0"/>
        <pt x="403" y="642" on="0"/>
        <pt x="403" y="674" on="1"/>
        <pt x="403" y="731" on="0"/>
        <pt x="432" y="848" on="0"/>
        <pt x="461" y="920" on="1"/>
        <pt x="456" y="947" on="0"/>
        <pt x="453" y="999" on="0"/>
        <pt x="453" y="1022" on="1"/>
        <pt x="453" y="1037" on="0"/>
        <pt x="454" y="1068" on="0"/>
        <pt x="457" y="1083" on="1"/>
        <pt x="441" y="1086" on="0"/>
        <pt x="410" y="1090" on="0"/>
      </contour>
      <contour>
        <pt x="999" y="1198" on="1"/>
        <pt x="999" y="1255" on="0"/>
        <pt x="974" y="1317" on="0"/>
        <pt x="965" y="1331" on="1"/>
        <pt x="930" y="1323" on="0"/>
        <pt x="869" y="1315" on="0"/>
        <pt x="840" y="1315" on="1"/>
        <pt x="795" y="1315" on="0"/>
        <pt x="710" y="1335" on="0"/>
        <pt x="657" y="1354" on="1"/>
        <pt x="662" y="1335" on="0"/>
        <pt x="666" y="1301" on="0"/>
        <pt x="666" y="1284" on="1"/>
        <pt x="666" y="1226" on="0"/>
        <pt x="649" y="1168" on="0"/>
        <pt x="630" y="1144" on="0"/>
        <pt x="614" y="1143" on="0"/>
        <pt x="616" y="1143" on="1"/>
        <pt x="608" y="1143" on="0"/>
        <pt x="598" y="1155" on="0"/>
        <pt x="598" y="1161" on="1"/>
        <pt x="598" y="1163" on="0"/>
        <pt x="604" y="1171" on="0"/>
        <pt x="612" y="1193" on="0"/>
        <pt x="618" y="1234" on="0"/>
        <pt x="618" y="1270" on="1"/>
        <pt x="618" y="1291" on="0"/>
        <pt x="611" y="1340" on="0"/>
        <pt x="602" y="1366" on="1"/>
        <pt x="577" y="1366" on="0"/>
        <pt x="529" y="1360" on="0"/>
        <pt x="506" y="1360" on="1"/>
        <pt x="444" y="1360" on="0"/>
        <pt x="329" y="1383" on="0"/>
        <pt x="272" y="1409" on="1"/>
        <pt x="264" y="1404" on="0"/>
        <pt x="241" y="1385" on="0"/>
        <pt x="219" y="1349" on="0"/>
        <pt x="203" y="1293" on="0"/>
        <pt x="203" y="1251" on="1"/>
        <pt x="203" y="1219" on="0"/>
        <pt x="214" y="1173" on="0"/>
        <pt x="231" y="1142" on="0"/>
        <pt x="248" y="1122" on="0"/>
        <pt x="254" y="1118" on="1"/>
        <pt x="289" y="1127" on="0"/>
        <pt x="355" y="1137" on="0"/>
        <pt x="389" y="1137" on="1"/>
        <pt x="442" y="1137" on="0"/>
        <pt x="562" y="1117" on="0"/>
        <pt x="614" y="1096" on="1"/>
        <pt x="646" y="1104" on="0"/>
        <pt x="704" y="1110" on="0"/>
        <pt x="733" y="1110" on="1"/>
        <pt x="783" y="1110" on="0"/>
        <pt x="882" y="1088" on="0"/>
        <pt x="942" y="1065" on="1"/>
        <pt x="948" y="1071" on="0"/>
        <pt x="966" y="1093" on="0"/>
        <pt x="984" y="1126" on="0"/>
        <pt x="997" y="1170" on="0"/>
      </contour>
      <contour>
        <pt x="424" y="172" on="1"/>
        <pt x="418" y="162" on="1"/>
        <pt x="417" y="161" on="0"/>
        <pt x="399" y="137" on="0"/>
        <pt x="359" y="109" on="0"/>
        <pt x="295" y="86" on="0"/>
        <pt x="250" y="86" on="1"/>
        <pt x="227" y="86" on="0"/>
        <pt x="187" y="89" on="0"/>
        <pt x="170" y="94" on="1"/>
        <pt x="177" y="70" on="0"/>
        <pt x="197" y="37" on="0"/>
        <pt x="218" y="14" on="0"/>
        <pt x="238" y="1" on="0"/>
        <pt x="244" y="-2" on="1"/>
        <pt x="316" y="35" on="0"/>
        <pt x="463" y="70" on="0"/>
        <pt x="541" y="70" on="1"/>
        <pt x="564" y="70" on="0"/>
        <pt x="607" y="66" on="0"/>
        <pt x="629" y="66" on="1"/>
        <pt x="692" y="93" on="0"/>
        <pt x="802" y="121" on="0"/>
        <pt x="864" y="121" on="1"/>
        <pt x="889" y="121" on="0"/>
        <pt x="942" y="118" on="0"/>
        <pt x="971" y="113" on="1"/>
        <pt x="980" y="125" on="0"/>
        <pt x="1004" y="181" on="0"/>
        <pt x="1004" y="223" on="1"/>
        <pt x="1004" y="257" on="0"/>
        <pt x="988" y="310" on="0"/>
        <pt x="966" y="349" on="0"/>
        <pt x="944" y="374" on="0"/>
        <pt x="938" y="379" on="1"/>
        <pt x="872" y="348" on="0"/>
        <pt x="763" y="319" on="0"/>
        <pt x="702" y="319" on="1"/>
        <pt x="684" y="319" on="0"/>
        <pt x="641" y="323" on="0"/>
        <pt x="618" y="326" on="1"/>
        <pt x="635" y="291" on="0"/>
        <pt x="647" y="225" on="0"/>
        <pt x="647" y="199" on="1"/>
        <pt x="647" y="163" on="0"/>
        <pt x="641" y="126" on="0"/>
        <pt x="633" y="111" on="0"/>
        <pt x="624" y="111" on="0"/>
        <pt x="621" y="111" on="1"/>
        <pt x="611" y="111" on="0"/>
        <pt x="598" y="121" on="0"/>
        <pt x="598" y="129" on="1"/>
        <pt x="598" y="131" on="0"/>
        <pt x="600" y="134" on="0"/>
        <pt x="602" y="142" on="0"/>
        <pt x="604" y="160" on="0"/>
        <pt x="604" y="178" on="1"/>
        <pt x="604" y="206" on="0"/>
        <pt x="587" y="284" on="0"/>
        <pt x="561" y="326" on="1"/>
        <pt x="558" y="326" on="0"/>
        <pt x="554" y="324" on="0"/>
        <pt x="551" y="322" on="1"/>
        <pt x="530" y="316" on="0"/>
        <pt x="495" y="304" on="0"/>
        <pt x="462" y="293" on="0"/>
        <pt x="427" y="285" on="0"/>
        <pt x="406" y="283" on="1"/>
        <pt x="408" y="260" on="0"/>
        <pt x="416" y="209" on="0"/>
        <pt x="422" y="180" on="1"/>
      </contour>
    </TTGlyph>
    <TTGlyph name="Cacute" xMin="16" yMin="-53" xMax="1053" yMax="1938">
      <component glyphName="C" x="0" y="0" flags="0x204"/>
      <component glyphName="acute" x="510" y="-42" flags="0x4"/>
    </TTGlyph>
    <TTGlyph name="Ccaron" xMin="16" yMin="-53" xMax="1053" yMax="2002">
      <component glyphName="C" x="0" y="0" flags="0x204"/>
      <component glyphName="caron" x="319" y="-62" flags="0x4"/>
    </TTGlyph>
    <TTGlyph name="Ccedilla" xMin="16" yMin="-459" xMax="1053" yMax="1462">
      <contour>
        <pt x="512" y="913" on="1"/>
        <pt x="510" y="907" on="1"/>
        <pt x="481" y="839" on="0"/>
        <pt x="455" y="728" on="0"/>
        <pt x="455" y="674" on="1"/>
        <pt x="455" y="642" on="0"/>
        <pt x="463" y="578" on="0"/>
        <pt x="471" y="543" on="1"/>
        <pt x="473" y="535" on="1"/>
        <pt x="469" y="526" on="1"/>
        <pt x="440" y="469" on="0"/>
        <pt x="409" y="380" on="0"/>
        <pt x="406" y="332" on="1"/>
        <pt x="426" y="335" on="0"/>
        <pt x="458" y="343" on="0"/>
        <pt x="489" y="354" on="0"/>
        <pt x="522" y="366" on="0"/>
        <pt x="543" y="373" on="1"/>
        <pt x="548" y="375" on="0"/>
        <pt x="556" y="378" on="0"/>
        <pt x="561" y="381" on="1"/>
        <pt x="569" y="385" on="1"/>
        <pt x="578" y="383" on="1"/>
        <pt x="612" y="375" on="0"/>
        <pt x="673" y="369" on="0"/>
        <pt x="700" y="369" on="1"/>
        <pt x="757" y="369" on="0"/>
        <pt x="865" y="397" on="0"/>
        <pt x="930" y="428" on="1"/>
        <pt x="942" y="434" on="1"/>
        <pt x="952" y="428" on="1"/>
        <pt x="953" y="427" on="0"/>
        <pt x="979" y="409" on="0"/>
        <pt x="1012" y="370" on="0"/>
        <pt x="1044" y="309" on="0"/>
        <pt x="1051" y="264" on="1"/>
        <pt x="1053" y="253" on="0"/>
        <pt x="1053" y="233" on="0"/>
        <pt x="1053" y="223" on="1"/>
        <pt x="1053" y="188" on="0"/>
        <pt x="1037" y="132" on="0"/>
        <pt x="1017" y="93" on="0"/>
        <pt x="1000" y="71" on="0"/>
        <pt x="999" y="70" on="1"/>
        <pt x="989" y="59" on="1"/>
        <pt x="977" y="63" on="1"/>
        <pt x="946" y="68" on="0"/>
        <pt x="890" y="74" on="0"/>
        <pt x="864" y="74" on="1"/>
        <pt x="808" y="74" on="0"/>
        <pt x="760" y="61" on="1"/>
        <pt x="755" y="37" on="0"/>
        <pt x="754" y="-8" on="0"/>
        <pt x="754" y="-33" on="1"/>
        <pt x="754" y="-75" on="0"/>
        <pt x="765" y="-161" on="0"/>
        <pt x="776" y="-205" on="1"/>
        <pt x="778" y="-215" on="1"/>
        <pt x="770" y="-225" on="1"/>
        <pt x="761" y="-235" on="0"/>
        <pt x="739" y="-250" on="0"/>
        <pt x="727" y="-256" on="1"/>
        <pt x="727" y="-270" on="1"/>
        <pt x="727" y="-300" on="0"/>
        <pt x="715" y="-328" on="1"/>
        <pt x="711" y="-340" on="1"/>
        <pt x="696" y="-342" on="1"/>
        <pt x="548" y="-363" on="0"/>
        <pt x="412" y="-451" on="1"/>
        <pt x="401" y="-459" on="1"/>
        <pt x="391" y="-453" on="1"/>
        <pt x="370" y="-444" on="0"/>
        <pt x="334" y="-411" on="0"/>
        <pt x="307" y="-368" on="0"/>
        <pt x="291" y="-315" on="0"/>
        <pt x="291" y="-287" on="1"/>
        <pt x="291" y="-249" on="0"/>
        <pt x="307" y="-219" on="1"/>
        <pt x="313" y="-209" on="1"/>
        <pt x="324" y="-207" on="1"/>
        <pt x="379" y="-199" on="0"/>
        <pt x="480" y="-174" on="0"/>
        <pt x="526" y="-154" on="1"/>
        <pt x="535" y="-96" on="0"/>
        <pt x="535" y="-39" on="1"/>
        <pt x="535" y="-23" on="0"/>
        <pt x="532" y="5" on="0"/>
        <pt x="532" y="20" on="1"/>
        <pt x="460" y="18" on="0"/>
        <pt x="323" y="-15" on="0"/>
        <pt x="258" y="-49" on="1"/>
        <pt x="248" y="-53" on="1"/>
        <pt x="240" y="-51" on="1"/>
        <pt x="243" y="-52" on="0"/>
        <pt x="207" y="-38" on="0"/>
        <pt x="159" y="-1" on="0"/>
        <pt x="114" y="64" on="0"/>
        <pt x="109" y="115" on="1"/>
        <pt x="82" y="130" on="0"/>
        <pt x="47" y="165" on="0"/>
        <pt x="26" y="195" on="0"/>
        <pt x="18" y="216" on="0"/>
        <pt x="18" y="217" on="1"/>
        <pt x="16" y="227" on="1"/>
        <pt x="20" y="236" on="1"/>
        <pt x="39" y="270" on="0"/>
        <pt x="67" y="330" on="0"/>
        <pt x="85" y="387" on="0"/>
        <pt x="94" y="446" on="0"/>
        <pt x="94" y="481" on="1"/>
        <pt x="94" y="522" on="0"/>
        <pt x="88" y="573" on="1"/>
        <pt x="90" y="586" on="1"/>
        <pt x="116" y="649" on="0"/>
        <pt x="141" y="757" on="0"/>
        <pt x="141" y="811" on="1"/>
        <pt x="141" y="842" on="0"/>
        <pt x="133" y="907" on="0"/>
        <pt x="127" y="942" on="1"/>
        <pt x="125" y="952" on="1"/>
        <pt x="129" y="958" on="1"/>
        <pt x="152" y="1003" on="0"/>
        <pt x="182" y="1078" on="0"/>
        <pt x="190" y="1116" on="1"/>
        <pt x="175" y="1136" on="0"/>
        <pt x="154" y="1203" on="0"/>
        <pt x="154" y="1251" on="1"/>
        <pt x="154" y="1315" on="0"/>
        <pt x="187" y="1396" on="0"/>
        <pt x="228" y="1442" on="0"/>
        <pt x="262" y="1458" on="0"/>
        <pt x="264" y="1458" on="1"/>
        <pt x="274" y="1462" on="1"/>
        <pt x="283" y="1458" on="1"/>
        <pt x="335" y="1432" on="0"/>
        <pt x="441" y="1409" on="0"/>
        <pt x="500" y="1409" on="1"/>
        <pt x="524" y="1409" on="0"/>
        <pt x="588" y="1410" on="0"/>
        <pt x="614" y="1419" on="1"/>
        <pt x="623" y="1421" on="1"/>
        <pt x="631" y="1417" on="1"/>
        <pt x="690" y="1391" on="0"/>
        <pt x="787" y="1364" on="0"/>
        <pt x="838" y="1364" on="1"/>
        <pt x="869" y="1364" on="0"/>
        <pt x="932" y="1373" on="0"/>
        <pt x="967" y="1382" on="1"/>
        <pt x="979" y="1384" on="1"/>
        <pt x="987" y="1376" on="1"/>
        <pt x="988" y="1375" on="0"/>
        <pt x="1008" y="1355" on="0"/>
        <pt x="1029" y="1315" on="0"/>
        <pt x="1047" y="1254" on="0"/>
        <pt x="1047" y="1212" on="1"/>
        <pt x="1047" y="1196" on="1"/>
        <pt x="1044" y="1151" on="0"/>
        <pt x="1017" y="1084" on="0"/>
        <pt x="987" y="1041" on="0"/>
        <pt x="962" y="1019" on="0"/>
        <pt x="961" y="1018" on="1"/>
        <pt x="948" y="1010" on="1"/>
        <pt x="936" y="1014" on="1"/>
        <pt x="877" y="1039" on="0"/>
        <pt x="784" y="1063" on="0"/>
        <pt x="737" y="1063" on="1"/>
        <pt x="709" y="1063" on="0"/>
        <pt x="653" y="1055" on="0"/>
        <pt x="621" y="1047" on="1"/>
        <pt x="606" y="1049" on="1"/>
        <pt x="577" y="1054" on="0"/>
        <pt x="529" y="1067" on="0"/>
        <pt x="504" y="1073" on="1"/>
        <pt x="502" y="1058" on="0"/>
        <pt x="502" y="1030" on="0"/>
        <pt x="502" y="1016" on="1"/>
        <pt x="502" y="994" on="0"/>
        <pt x="507" y="948" on="0"/>
        <pt x="512" y="922" on="1"/>
      </contour>
      <contour>
        <pt x="393" y="1090" on="1"/>
        <pt x="326" y="1090" on="0"/>
        <pt x="256" y="1069" on="1"/>
        <pt x="246" y="1067" on="1"/>
        <pt x="238" y="1071" on="1"/>
        <pt x="235" y="1071" on="1"/>
        <pt x="233" y="1071" on="0"/>
        <pt x="231" y="1073" on="1"/>
        <pt x="225" y="1051" on="0"/>
        <pt x="208" y="1006" on="0"/>
        <pt x="197" y="981" on="1"/>
        <pt x="211" y="983" on="0"/>
        <pt x="237" y="985" on="0"/>
        <pt x="250" y="985" on="1"/>
        <pt x="283" y="985" on="0"/>
        <pt x="338" y="973" on="0"/>
        <pt x="378" y="959" on="0"/>
        <pt x="401" y="947" on="0"/>
        <pt x="403" y="946" on="1"/>
        <pt x="412" y="941" on="0"/>
        <pt x="412" y="928" on="1"/>
        <pt x="412" y="920" on="0"/>
        <pt x="400" y="907" on="0"/>
        <pt x="391" y="907" on="1"/>
        <pt x="389" y="907" on="0"/>
        <pt x="379" y="916" on="0"/>
        <pt x="353" y="927" on="0"/>
        <pt x="304" y="936" on="0"/>
        <pt x="262" y="936" on="1"/>
        <pt x="244" y="936" on="0"/>
        <pt x="202" y="932" on="0"/>
        <pt x="180" y="926" on="1"/>
        <pt x="185" y="894" on="0"/>
        <pt x="190" y="837" on="0"/>
        <pt x="190" y="809" on="1"/>
        <pt x="190" y="758" on="0"/>
        <pt x="171" y="659" on="0"/>
        <pt x="150" y="600" on="1"/>
        <pt x="180" y="600" on="0"/>
        <pt x="260" y="590" on="0"/>
        <pt x="330" y="573" on="0"/>
        <pt x="379" y="550" on="0"/>
        <pt x="379" y="537" on="1"/>
        <pt x="379" y="529" on="0"/>
        <pt x="366" y="518" on="0"/>
        <pt x="358" y="518" on="1"/>
        <pt x="356" y="518" on="0"/>
        <pt x="352" y="518" on="0"/>
        <pt x="350" y="520" on="1"/>
        <pt x="316" y="534" on="0"/>
        <pt x="217" y="551" on="0"/>
        <pt x="168" y="551" on="1"/>
        <pt x="141" y="551" on="1"/>
        <pt x="143" y="531" on="0"/>
        <pt x="145" y="494" on="0"/>
        <pt x="145" y="477" on="1"/>
        <pt x="145" y="439" on="0"/>
        <pt x="136" y="377" on="0"/>
        <pt x="117" y="317" on="0"/>
        <pt x="89" y="256" on="0"/>
        <pt x="70" y="221" on="1"/>
        <pt x="74" y="213" on="0"/>
        <pt x="94" y="185" on="0"/>
        <pt x="135" y="158" on="0"/>
        <pt x="200" y="137" on="0"/>
        <pt x="248" y="137" on="1"/>
        <pt x="275" y="137" on="0"/>
        <pt x="315" y="147" on="0"/>
        <pt x="345" y="161" on="0"/>
        <pt x="365" y="177" on="0"/>
        <pt x="371" y="182" on="1"/>
        <pt x="363" y="219" on="0"/>
        <pt x="354" y="281" on="0"/>
        <pt x="354" y="309" on="1"/>
        <pt x="354" y="367" on="0"/>
        <pt x="388" y="475" on="0"/>
        <pt x="420" y="541" on="1"/>
        <pt x="412" y="576" on="0"/>
        <pt x="403" y="642" on="0"/>
        <pt x="403" y="674" on="1"/>
        <pt x="403" y="731" on="0"/>
        <pt x="432" y="848" on="0"/>
        <pt x="461" y="920" on="1"/>
        <pt x="456" y="947" on="0"/>
        <pt x="453" y="999" on="0"/>
        <pt x="453" y="1022" on="1"/>
        <pt x="453" y="1037" on="0"/>
        <pt x="454" y="1068" on="0"/>
        <pt x="457" y="1083" on="1"/>
        <pt x="441" y="1086" on="0"/>
        <pt x="410" y="1090" on="0"/>
      </contour>
      <contour>
        <pt x="999" y="1198" on="1"/>
        <pt x="999" y="1255" on="0"/>
        <pt x="974" y="1317" on="0"/>
        <pt x="965" y="1331" on="1"/>
        <pt x="930" y="1323" on="0"/>
        <pt x="869" y="1315" on="0"/>
        <pt x="840" y="1315" on="1"/>
        <pt x="795" y="1315" on="0"/>
        <pt x="710" y="1335" on="0"/>
        <pt x="657" y="1354" on="1"/>
        <pt x="662" y="1335" on="0"/>
        <pt x="666" y="1301" on="0"/>
        <pt x="666" y="1284" on="1"/>
        <pt x="666" y="1226" on="0"/>
        <pt x="649" y="1168" on="0"/>
        <pt x="630" y="1144" on="0"/>
        <pt x="614" y="1143" on="0"/>
        <pt x="616" y="1143" on="1"/>
        <pt x="608" y="1143" on="0"/>
        <pt x="598" y="1155" on="0"/>
        <pt x="598" y="1161" on="1"/>
        <pt x="598" y="1163" on="0"/>
        <pt x="604" y="1171" on="0"/>
        <pt x="612" y="1193" on="0"/>
        <pt x="618" y="1234" on="0"/>
        <pt x="618" y="1270" on="1"/>
        <pt x="618" y="1291" on="0"/>
        <pt x="611" y="1340" on="0"/>
        <pt x="602" y="1366" on="1"/>
        <pt x="577" y="1366" on="0"/>
        <pt x="529" y="1360" on="0"/>
        <pt x="506" y="1360" on="1"/>
        <pt x="444" y="1360" on="0"/>
        <pt x="329" y="1383" on="0"/>
        <pt x="272" y="1409" on="1"/>
        <pt x="264" y="1404" on="0"/>
        <pt x="241" y="1385" on="0"/>
        <pt x="219" y="1349" on="0"/>
        <pt x="203" y="1293" on="0"/>
        <pt x="203" y="1251" on="1"/>
        <pt x="203" y="1219" on="0"/>
        <pt x="214" y="1173" on="0"/>
        <pt x="231" y="1142" on="0"/>
        <pt x="248" y="1122" on="0"/>
        <pt x="254" y="1118" on="1"/>
        <pt x="289" y="1127" on="0"/>
        <pt x="355" y="1137" on="0"/>
        <pt x="389" y="1137" on="1"/>
        <pt x="442" y="1137" on="0"/>
        <pt x="562" y="1117" on="0"/>
        <pt x="614" y="1096" on="1"/>
        <pt x="646" y="1104" on="0"/>
        <pt x="704" y="1110" on="0"/>
        <pt x="733" y="1110" on="1"/>
        <pt x="783" y="1110" on="0"/>
        <pt x="882" y="1088" on="0"/>
        <pt x="942" y="1065" on="1"/>
        <pt x="948" y="1071" on="0"/>
        <pt x="966" y="1093" on="0"/>
        <pt x="984" y="1126" on="0"/>
        <pt x="997" y="1170" on="0"/>
      </contour>
      <contour>
        <pt x="424" y="172" on="1"/>
        <pt x="418" y="162" on="1"/>
        <pt x="417" y="161" on="0"/>
        <pt x="399" y="137" on="0"/>
        <pt x="359" y="109" on="0"/>
        <pt x="295" y="86" on="0"/>
        <pt x="250" y="86" on="1"/>
        <pt x="227" y="86" on="0"/>
        <pt x="187" y="89" on="0"/>
        <pt x="170" y="94" on="1"/>
        <pt x="177" y="70" on="0"/>
        <pt x="197" y="37" on="0"/>
        <pt x="218" y="14" on="0"/>
        <pt x="238" y="1" on="0"/>
        <pt x="244" y="-2" on="1"/>
        <pt x="316" y="35" on="0"/>
        <pt x="463" y="70" on="0"/>
        <pt x="541" y="70" on="1"/>
        <pt x="564" y="70" on="0"/>
        <pt x="607" y="66" on="0"/>
        <pt x="629" y="66" on="1"/>
        <pt x="692" y="93" on="0"/>
        <pt x="802" y="121" on="0"/>
        <pt x="864" y="121" on="1"/>
        <pt x="889" y="121" on="0"/>
        <pt x="942" y="118" on="0"/>
        <pt x="971" y="113" on="1"/>
        <pt x="980" y="125" on="0"/>
        <pt x="1004" y="181" on="0"/>
        <pt x="1004" y="223" on="1"/>
        <pt x="1004" y="257" on="0"/>
        <pt x="988" y="310" on="0"/>
        <pt x="966" y="349" on="0"/>
        <pt x="944" y="374" on="0"/>
        <pt x="938" y="379" on="1"/>
        <pt x="872" y="348" on="0"/>
        <pt x="763" y="319" on="0"/>
        <pt x="702" y="319" on="1"/>
        <pt x="684" y="319" on="0"/>
        <pt x="641" y="323" on="0"/>
        <pt x="618" y="326" on="1"/>
        <pt x="635" y="291" on="0"/>
        <pt x="647" y="225" on="0"/>
        <pt x="647" y="199" on="1"/>
        <pt x="647" y="163" on="0"/>
        <pt x="641" y="126" on="0"/>
        <pt x="633" y="111" on="0"/>
        <pt x="624" y="111" on="0"/>
        <pt x="621" y="111" on="1"/>
        <pt x="611" y="111" on="0"/>
        <pt x="598" y="121" on="0"/>
        <pt x="598" y="129" on="1"/>
        <pt x="598" y="131" on="0"/>
        <pt x="600" y="134" on="0"/>
        <pt x="602" y="142" on="0"/>
        <pt x="604" y="160" on="0"/>
        <pt x="604" y="178" on="1"/>
        <pt x="604" y="206" on="0"/>
        <pt x="587" y="284" on="0"/>
        <pt x="561" y="326" on="1"/>
        <pt x="558" y="326" on="0"/>
        <pt x="554" y="324" on="0"/>
        <pt x="551" y="322" on="1"/>
        <pt x="530" y="316" on="0"/>
        <pt x="495" y="304" on="0"/>
        <pt x="462" y="293" on="0"/>
        <pt x="427" y="285" on="0"/>
        <pt x="406" y="283" on="1"/>
        <pt x="408" y="260" on="0"/>
        <pt x="416" y="209" on="0"/>
        <pt x="422" y="180" on="1"/>
      </contour>
      <contour>
        <pt x="647" y="-274" on="1"/>
        <pt x="609" y="-274" on="0"/>
        <pt x="542" y="-248" on="0"/>
        <pt x="522" y="-225" on="1"/>
        <pt x="514" y="-217" on="1"/>
        <pt x="516" y="-207" on="1"/>
        <pt x="476" y="-222" on="0"/>
        <pt x="390" y="-242" on="0"/>
        <pt x="342" y="-250" on="1"/>
        <pt x="336" y="-265" on="0"/>
        <pt x="336" y="-285" on="1"/>
        <pt x="336" y="-303" on="0"/>
        <pt x="345" y="-340" on="0"/>
        <pt x="362" y="-373" on="0"/>
        <pt x="385" y="-399" on="0"/>
        <pt x="399" y="-406" on="1"/>
        <pt x="529" y="-323" on="0"/>
        <pt x="678" y="-299" on="1"/>
        <pt x="680" y="-291" on="0"/>
        <pt x="682" y="-278" on="0"/>
        <pt x="682" y="-270" on="1"/>
        <pt x="673" y="-272" on="0"/>
        <pt x="656" y="-274" on="0"/>
      </contour>
      <contour>
        <pt x="637" y="14" on="1"/>
        <pt x="631" y="16" on="1"/>
        <pt x="617" y="16" on="0"/>
        <pt x="590" y="18" on="0"/>
        <pt x="578" y="18" on="1"/>
        <pt x="578" y="4" on="0"/>
        <pt x="580" y="-23" on="0"/>
        <pt x="580" y="-39" on="1"/>
        <pt x="580" y="-79" on="0"/>
        <pt x="572" y="-161" on="0"/>
        <pt x="563" y="-203" on="1"/>
        <pt x="579" y="-215" on="0"/>
        <pt x="622" y="-227" on="0"/>
        <pt x="647" y="-227" on="1"/>
        <pt x="699" y="-227" on="0"/>
        <pt x="729" y="-203" on="1"/>
        <pt x="720" y="-158" on="0"/>
        <pt x="709" y="-72" on="0"/>
        <pt x="709" y="-29" on="1"/>
        <pt x="709" y="-9" on="0"/>
        <pt x="711" y="29" on="0"/>
        <pt x="713" y="47" on="1"/>
        <pt x="696" y="41" on="0"/>
        <pt x="664" y="26" on="0"/>
        <pt x="645" y="18" on="1"/>
      </contour>
    </TTGlyph>
    <TTGlyph name="Ccircumflex" xMin="16" yMin="-53" xMax="1053" yMax="1994">
      <component glyphName="C" x="0" y="0" flags="0x204"/>
      <component glyphName="circumflex" x="330" y="-56" flags="0x4"/>
    </TTGlyph>
    <TTGlyph name="Cdotaccent" xMin="16" yMin="-53" xMax="1053" yMax="1815">
      <component glyphName="C" x="0" y="0" flags="0x204"/>
      <component glyphName="dotaccent" x="453" y="-38" flags="0x4"/>
    </TTGlyph>
    <TTGlyph name="D" xMin="57" yMin="-41" xMax="1085" yMax="1485">
      <contour>
        <pt x="1085" y="586" on="1"/>
        <pt x="1083" y="571" on="1"/>
        <pt x="1071" y="565" on="1"/>
        <pt x="980" y="516" on="0"/>
        <pt x="850" y="385" on="0"/>
        <pt x="807" y="301" on="1"/>
        <pt x="805" y="293" on="1"/>
        <pt x="799" y="291" on="1"/>
        <pt x="759" y="267" on="0"/>
        <pt x="675" y="199" on="0"/>
        <pt x="599" y="118" on="0"/>
        <pt x="535" y="28" on="0"/>
        <pt x="514" y="-18" on="1"/>
        <pt x="510" y="-27" on="1"/>
        <pt x="500" y="-31" on="1"/>
        <pt x="498" y="-33" on="0"/>
        <pt x="469" y="-41" on="0"/>
        <pt x="446" y="-41" on="1"/>
        <pt x="423" y="-41" on="0"/>
        <pt x="362" y="-23" on="0"/>
        <pt x="328" y="0" on="1"/>
        <pt x="312" y="-3" on="0"/>
        <pt x="279" y="-8" on="0"/>
        <pt x="260" y="-8" on="1"/>
        <pt x="201" y="-8" on="0"/>
        <pt x="124" y="24" on="0"/>
        <pt x="79" y="63" on="0"/>
        <pt x="61" y="96" on="0"/>
        <pt x="61" y="98" on="1"/>
        <pt x="57" y="106" on="1"/>
        <pt x="61" y="117" on="1"/>
        <pt x="84" y="172" on="0"/>
        <pt x="106" y="288" on="0"/>
        <pt x="106" y="348" on="1"/>
        <pt x="106" y="390" on="0"/>
        <pt x="97" y="476" on="0"/>
        <pt x="86" y="522" on="1"/>
        <pt x="86" y="535" on="1"/>
        <pt x="98" y="584" on="0"/>
        <pt x="113" y="679" on="0"/>
        <pt x="113" y="727" on="1"/>
        <pt x="113" y="780" on="0"/>
        <pt x="95" y="882" on="0"/>
        <pt x="80" y="932" on="1"/>
        <pt x="78" y="942" on="1"/>
        <pt x="82" y="950" on="1"/>
        <pt x="104" y="1004" on="0"/>
        <pt x="125" y="1113" on="0"/>
        <pt x="125" y="1167" on="1"/>
        <pt x="125" y="1211" on="0"/>
        <pt x="112" y="1298" on="0"/>
        <pt x="98" y="1343" on="1"/>
        <pt x="94" y="1356" on="1"/>
        <pt x="102" y="1366" on="1"/>
        <pt x="103" y="1367" on="0"/>
        <pt x="125" y="1390" on="0"/>
        <pt x="170" y="1417" on="0"/>
        <pt x="238" y="1438" on="0"/>
        <pt x="285" y="1438" on="1"/>
        <pt x="305" y="1438" on="1"/>
        <pt x="342" y="1467" on="0"/>
        <pt x="407" y="1485" on="0"/>
        <pt x="432" y="1485" on="1"/>
        <pt x="454" y="1485" on="0"/>
        <pt x="481" y="1479" on="0"/>
        <pt x="483" y="1479" on="1"/>
        <pt x="492" y="1475" on="1"/>
        <pt x="496" y="1464" on="1"/>
        <pt x="514" y="1426" on="0"/>
        <pt x="572" y="1349" on="0"/>
        <pt x="642" y="1278" on="0"/>
        <pt x="721" y="1214" on="0"/>
        <pt x="760" y="1188" on="1"/>
        <pt x="778" y="1180" on="1"/>
        <pt x="786" y="1176" on="1"/>
        <pt x="791" y="1167" on="1"/>
        <pt x="837" y="1073" on="0"/>
        <pt x="973" y="935" on="0"/>
        <pt x="1067" y="887" on="1"/>
        <pt x="1079" y="883" on="1"/>
        <pt x="1081" y="868" on="1"/>
        <pt x="1081" y="866" on="0"/>
        <pt x="1082" y="863" on="1"/>
        <pt x="1082" y="861" on="0"/>
        <pt x="1083" y="854" on="0"/>
        <pt x="1083" y="850" on="1"/>
        <pt x="1083" y="831" on="0"/>
        <pt x="1067" y="765" on="0"/>
        <pt x="1042" y="727" on="1"/>
        <pt x="1057" y="706" on="0"/>
        <pt x="1074" y="666" on="0"/>
        <pt x="1083" y="631" on="0"/>
        <pt x="1085" y="603" on="0"/>
        <pt x="1085" y="596" on="1"/>
      </contour>
      <contour>
        <pt x="217" y="1188" on="1"/>
        <pt x="213" y="1196" on="1"/>
        <pt x="211" y="1198" on="0"/>
        <pt x="205" y="1224" on="0"/>
        <pt x="205" y="1247" on="1"/>
        <pt x="205" y="1273" on="0"/>
        <pt x="223" y="1344" on="0"/>
        <pt x="254" y="1384" on="1"/>
        <pt x="212" y="1379" on="0"/>
        <pt x="163" y="1353" on="0"/>
        <pt x="152" y="1343" on="1"/>
        <pt x="164" y="1298" on="0"/>
        <pt x="176" y="1212" on="0"/>
        <pt x="176" y="1167" on="1"/>
        <pt x="176" y="1072" on="0"/>
        <pt x="145" y="979" on="1"/>
        <pt x="170" y="987" on="0"/>
        <pt x="216" y="991" on="0"/>
        <pt x="236" y="991" on="1"/>
        <pt x="290" y="991" on="0"/>
        <pt x="344" y="978" on="0"/>
        <pt x="355" y="970" on="1"/>
        <pt x="368" y="961" on="0"/>
        <pt x="367" y="950" on="1"/>
        <pt x="367" y="941" on="0"/>
        <pt x="354" y="930" on="0"/>
        <pt x="346" y="930" on="1"/>
        <pt x="344" y="930" on="0"/>
        <pt x="337" y="935" on="0"/>
        <pt x="317" y="941" on="0"/>
        <pt x="281" y="946" on="0"/>
        <pt x="250" y="946" on="1"/>
        <pt x="225" y="946" on="0"/>
        <pt x="167" y="936" on="0"/>
        <pt x="135" y="924" on="1"/>
        <pt x="149" y="876" on="0"/>
        <pt x="164" y="780" on="0"/>
        <pt x="164" y="729" on="1"/>
        <pt x="164" y="687" on="0"/>
        <pt x="153" y="600" on="0"/>
        <pt x="143" y="557" on="1"/>
        <pt x="159" y="559" on="0"/>
        <pt x="187" y="561" on="0"/>
        <pt x="203" y="561" on="1"/>
        <pt x="226" y="561" on="0"/>
        <pt x="286" y="556" on="0"/>
        <pt x="340" y="546" on="0"/>
        <pt x="377" y="531" on="0"/>
        <pt x="377" y="520" on="1"/>
        <pt x="377" y="509" on="0"/>
        <pt x="359" y="500" on="0"/>
        <pt x="350" y="500" on="1"/>
        <pt x="327" y="506" on="0"/>
        <pt x="268" y="514" on="0"/>
        <pt x="236" y="514" on="1"/>
        <pt x="213" y="514" on="0"/>
        <pt x="162" y="509" on="0"/>
        <pt x="139" y="506" on="1"/>
        <pt x="149" y="464" on="0"/>
        <pt x="156" y="384" on="0"/>
        <pt x="156" y="346" on="1"/>
        <pt x="156" y="224" on="0"/>
        <pt x="113" y="109" on="1"/>
        <pt x="117" y="102" on="0"/>
        <pt x="136" y="79" on="0"/>
        <pt x="171" y="58" on="0"/>
        <pt x="223" y="43" on="0"/>
        <pt x="260" y="43" on="1"/>
        <pt x="297" y="43" on="0"/>
        <pt x="351" y="57" on="0"/>
        <pt x="388" y="76" on="0"/>
        <pt x="409" y="97" on="0"/>
        <pt x="414" y="104" on="1"/>
        <pt x="397" y="157" on="0"/>
        <pt x="379" y="259" on="0"/>
        <pt x="379" y="311" on="1"/>
        <pt x="379" y="367" on="0"/>
        <pt x="398" y="475" on="0"/>
        <pt x="418" y="530" on="1"/>
        <pt x="401" y="581" on="0"/>
        <pt x="385" y="683" on="0"/>
        <pt x="385" y="737" on="1"/>
        <pt x="385" y="788" on="0"/>
        <pt x="400" y="895" on="0"/>
        <pt x="416" y="950" on="1"/>
        <pt x="406" y="978" on="0"/>
        <pt x="396" y="1036" on="0"/>
        <pt x="393" y="1065" on="1"/>
        <pt x="356" y="1100" on="0"/>
        <pt x="274" y="1162" on="0"/>
        <pt x="227" y="1184" on="1"/>
      </contour>
      <contour>
        <pt x="1034" y="850" on="1"/>
        <pt x="948" y="895" on="0"/>
        <pt x="818" y="1020" on="0"/>
        <pt x="770" y="1102" on="1"/>
        <pt x="752" y="1063" on="0"/>
        <pt x="703" y="1009" on="0"/>
        <pt x="658" y="976" on="0"/>
        <pt x="626" y="962" on="0"/>
        <pt x="625" y="961" on="1"/>
        <pt x="623" y="958" on="0"/>
        <pt x="618" y="958" on="1"/>
        <pt x="609" y="958" on="0"/>
        <pt x="598" y="973" on="0"/>
        <pt x="598" y="979" on="1"/>
        <pt x="598" y="992" on="0"/>
        <pt x="624" y="1002" on="0"/>
        <pt x="665" y="1028" on="0"/>
        <pt x="713" y="1086" on="0"/>
        <pt x="735" y="1147" on="1"/>
        <pt x="732" y="1147" on="0"/>
        <pt x="728" y="1149" on="0"/>
        <pt x="725" y="1151" on="1"/>
        <pt x="686" y="1178" on="0"/>
        <pt x="607" y="1244" on="0"/>
        <pt x="536" y="1317" on="0"/>
        <pt x="477" y="1396" on="0"/>
        <pt x="457" y="1436" on="1"/>
        <pt x="452" y="1436" on="0"/>
        <pt x="442" y="1438" on="0"/>
        <pt x="434" y="1438" on="1"/>
        <pt x="414" y="1438" on="0"/>
        <pt x="348" y="1414" on="0"/>
        <pt x="311" y="1374" on="1"/>
        <pt x="274" y="1334" on="0"/>
        <pt x="254" y="1267" on="0"/>
        <pt x="254" y="1247" on="1"/>
        <pt x="254" y="1239" on="0"/>
        <pt x="254" y="1228" on="0"/>
        <pt x="256" y="1223" on="1"/>
        <pt x="303" y="1200" on="0"/>
        <pt x="395" y="1133" on="0"/>
        <pt x="478" y="1054" on="0"/>
        <pt x="547" y="970" on="0"/>
        <pt x="571" y="930" on="1"/>
        <pt x="740" y="840" on="0"/>
        <pt x="846" y="662" on="1"/>
        <pt x="855" y="662" on="0"/>
        <pt x="884" y="667" on="0"/>
        <pt x="920" y="680" on="0"/>
        <pt x="959" y="705" on="0"/>
        <pt x="977" y="725" on="1"/>
        <pt x="995" y="745" on="0"/>
        <pt x="1017" y="783" on="0"/>
        <pt x="1029" y="816" on="0"/>
        <pt x="1033" y="842" on="0"/>
      </contour>
      <contour>
        <pt x="844" y="610" on="1"/>
        <pt x="836" y="610" on="0"/>
        <pt x="833" y="611" on="1"/>
        <pt x="830" y="611" on="0"/>
        <pt x="829" y="612" on="1"/>
        <pt x="817" y="612" on="1"/>
        <pt x="809" y="625" on="1"/>
        <pt x="801" y="639" on="0"/>
        <pt x="783" y="668" on="0"/>
        <pt x="774" y="680" on="1"/>
        <pt x="701" y="587" on="0"/>
        <pt x="596" y="526" on="1"/>
        <pt x="635" y="508" on="0"/>
        <pt x="688" y="459" on="0"/>
        <pt x="721" y="414" on="0"/>
        <pt x="735" y="382" on="0"/>
        <pt x="735" y="381" on="1"/>
        <pt x="735" y="379" on="0"/>
        <pt x="737" y="375" on="0"/>
        <pt x="737" y="373" on="1"/>
        <pt x="737" y="365" on="0"/>
        <pt x="726" y="352" on="0"/>
        <pt x="717" y="352" on="1"/>
        <pt x="708" y="352" on="0"/>
        <pt x="698" y="364" on="0"/>
        <pt x="689" y="385" on="0"/>
        <pt x="673" y="413" on="0"/>
        <pt x="642" y="443" on="0"/>
        <pt x="591" y="475" on="0"/>
        <pt x="551" y="489" on="1"/>
        <pt x="545" y="481" on="1"/>
        <pt x="520" y="446" on="0"/>
        <pt x="462" y="374" on="0"/>
        <pt x="430" y="340" on="1"/>
        <pt x="430" y="313" on="1"/>
        <pt x="430" y="262" on="0"/>
        <pt x="446" y="162" on="0"/>
        <pt x="465" y="111" on="1"/>
        <pt x="469" y="100" on="1"/>
        <pt x="465" y="92" on="1"/>
        <pt x="464" y="90" on="0"/>
        <pt x="456" y="76" on="0"/>
        <pt x="438" y="55" on="0"/>
        <pt x="411" y="31" on="0"/>
        <pt x="391" y="20" on="1"/>
        <pt x="408" y="14" on="0"/>
        <pt x="438" y="10" on="0"/>
        <pt x="449" y="10" on="1"/>
        <pt x="457" y="10" on="0"/>
        <pt x="468" y="10" on="0"/>
        <pt x="473" y="12" on="1"/>
        <pt x="494" y="58" on="0"/>
        <pt x="561" y="150" on="0"/>
        <pt x="639" y="233" on="0"/>
        <pt x="725" y="303" on="0"/>
        <pt x="766" y="328" on="1"/>
        <pt x="855" y="497" on="0"/>
        <pt x="1036" y="602" on="1"/>
        <pt x="1034" y="614" on="0"/>
        <pt x="1025" y="660" on="0"/>
        <pt x="1008" y="686" on="1"/>
        <pt x="984" y="662" on="0"/>
        <pt x="935" y="632" on="0"/>
        <pt x="890" y="615" on="0"/>
        <pt x="854" y="610" on="0"/>
      </contour>
      <contour>
        <pt x="471" y="530" on="1"/>
        <pt x="467" y="522" on="1"/>
        <pt x="459" y="501" on="0"/>
        <pt x="447" y="458" on="0"/>
        <pt x="442" y="436" on="1"/>
        <pt x="464" y="465" on="0"/>
        <pt x="507" y="517" on="0"/>
        <pt x="518" y="532" on="1"/>
        <pt x="522" y="541" on="1"/>
        <pt x="530" y="545" on="1"/>
        <pt x="659" y="610" on="0"/>
        <pt x="745" y="721" on="1"/>
        <pt x="703" y="775" on="0"/>
        <pt x="604" y="858" on="0"/>
        <pt x="545" y="889" on="1"/>
        <pt x="535" y="899" on="1"/>
        <pt x="516" y="924" on="0"/>
        <pt x="476" y="975" on="0"/>
        <pt x="455" y="999" on="1"/>
        <pt x="457" y="988" on="0"/>
        <pt x="462" y="969" on="0"/>
        <pt x="465" y="958" on="1"/>
        <pt x="465" y="944" on="1"/>
        <pt x="434" y="835" on="0"/>
        <pt x="434" y="735" on="1"/>
        <pt x="434" y="684" on="0"/>
        <pt x="450" y="587" on="0"/>
        <pt x="467" y="539" on="1"/>
      </contour>
    </TTGlyph>
    <TTGlyph name="Dcaron" xMin="57" yMin="-41" xMax="1085" yMax="2064">
      <component glyphName="D" x="0" y="0" flags="0x204"/>
      <component glyphName="caron" x="215" y="0" flags="0x4"/>
    </TTGlyph>
    <TTGlyph name="Dcroat" xMin="-33" yMin="-41" xMax="1393" yMax="1485">
      <component glyphName="Eth" x="0" y="0" flags="0x204"/>
    </TTGlyph>
    <TTGlyph name="E" xMin="57" yMin="-8" xMax="999" yMax="1438">
      <contour>
        <pt x="809" y="707" on="1"/>
        <pt x="809" y="662" on="0"/>
        <pt x="785" y="595" on="0"/>
        <pt x="755" y="549" on="0"/>
        <pt x="730" y="525" on="0"/>
        <pt x="729" y="524" on="1"/>
        <pt x="719" y="516" on="1"/>
        <pt x="705" y="520" on="1"/>
        <pt x="649" y="539" on="0"/>
        <pt x="564" y="557" on="0"/>
        <pt x="522" y="557" on="1"/>
        <pt x="491" y="557" on="0"/>
        <pt x="461" y="551" on="1"/>
        <pt x="467" y="539" on="1"/>
        <pt x="471" y="530" on="1"/>
        <pt x="467" y="522" on="1"/>
        <pt x="443" y="454" on="0"/>
        <pt x="434" y="387" on="1"/>
        <pt x="450" y="391" on="0"/>
        <pt x="490" y="397" on="0"/>
        <pt x="526" y="401" on="0"/>
        <pt x="550" y="403" on="0"/>
        <pt x="551" y="403" on="1"/>
        <pt x="559" y="406" on="1"/>
        <pt x="567" y="401" on="1"/>
        <pt x="624" y="378" on="0"/>
        <pt x="704" y="354" on="0"/>
        <pt x="745" y="354" on="1"/>
        <pt x="773" y="354" on="0"/>
        <pt x="839" y="366" on="0"/>
        <pt x="881" y="377" on="1"/>
        <pt x="893" y="381" on="1"/>
        <pt x="903" y="373" on="1"/>
        <pt x="904" y="371" on="0"/>
        <pt x="925" y="350" on="0"/>
        <pt x="949" y="307" on="0"/>
        <pt x="969" y="242" on="0"/>
        <pt x="969" y="197" on="1"/>
        <pt x="968" y="152" on="0"/>
        <pt x="942" y="86" on="0"/>
        <pt x="912" y="41" on="0"/>
        <pt x="886" y="17" on="0"/>
        <pt x="885" y="16" on="1"/>
        <pt x="872" y="10" on="1"/>
        <pt x="860" y="14" on="1"/>
        <pt x="801" y="36" on="0"/>
        <pt x="723" y="55" on="0"/>
        <pt x="686" y="55" on="1"/>
        <pt x="660" y="55" on="0"/>
        <pt x="604" y="46" on="0"/>
        <pt x="567" y="37" on="1"/>
        <pt x="553" y="37" on="1"/>
        <pt x="525" y="42" on="0"/>
        <pt x="470" y="55" on="0"/>
        <pt x="442" y="61" on="1"/>
        <pt x="432" y="50" on="0"/>
        <pt x="401" y="25" on="0"/>
        <pt x="356" y="5" on="0"/>
        <pt x="297" y="-8" on="0"/>
        <pt x="260" y="-8" on="1"/>
        <pt x="201" y="-8" on="0"/>
        <pt x="124" y="24" on="0"/>
        <pt x="79" y="63" on="0"/>
        <pt x="61" y="96" on="0"/>
        <pt x="61" y="98" on="1"/>
        <pt x="57" y="106" on="1"/>
        <pt x="61" y="117" on="1"/>
        <pt x="84" y="172" on="0"/>
        <pt x="106" y="288" on="0"/>
        <pt x="106" y="348" on="1"/>
        <pt x="106" y="390" on="0"/>
        <pt x="97" y="476" on="0"/>
        <pt x="86" y="522" on="1"/>
        <pt x="86" y="535" on="1"/>
        <pt x="98" y="584" on="0"/>
        <pt x="113" y="679" on="0"/>
        <pt x="113" y="727" on="1"/>
        <pt x="113" y="780" on="0"/>
        <pt x="95" y="882" on="0"/>
        <pt x="80" y="932" on="1"/>
        <pt x="78" y="942" on="1"/>
        <pt x="82" y="950" on="1"/>
        <pt x="104" y="1004" on="0"/>
        <pt x="125" y="1113" on="0"/>
        <pt x="125" y="1167" on="1"/>
        <pt x="125" y="1211" on="0"/>
        <pt x="112" y="1298" on="0"/>
        <pt x="98" y="1343" on="1"/>
        <pt x="94" y="1356" on="1"/>
        <pt x="102" y="1366" on="1"/>
        <pt x="103" y="1367" on="0"/>
        <pt x="125" y="1390" on="0"/>
        <pt x="170" y="1417" on="0"/>
        <pt x="238" y="1438" on="0"/>
        <pt x="285" y="1438" on="1"/>
        <pt x="339" y="1438" on="0"/>
        <pt x="415" y="1408" on="0"/>
        <pt x="438" y="1391" on="1"/>
        <pt x="467" y="1394" on="0"/>
        <pt x="531" y="1406" on="0"/>
        <pt x="563" y="1417" on="1"/>
        <pt x="571" y="1421" on="1"/>
        <pt x="582" y="1419" on="1"/>
        <pt x="630" y="1404" on="0"/>
        <pt x="701" y="1389" on="0"/>
        <pt x="733" y="1389" on="1"/>
        <pt x="768" y="1389" on="0"/>
        <pt x="844" y="1407" on="0"/>
        <pt x="895" y="1425" on="1"/>
        <pt x="907" y="1430" on="1"/>
        <pt x="918" y="1423" on="1"/>
        <pt x="919" y="1422" on="0"/>
        <pt x="943" y="1402" on="0"/>
        <pt x="971" y="1361" on="0"/>
        <pt x="996" y="1298" on="0"/>
        <pt x="999" y="1253" on="1"/>
        <pt x="999" y="1235" on="1"/>
        <pt x="999" y="1195" on="0"/>
        <pt x="979" y="1133" on="0"/>
        <pt x="954" y="1090" on="0"/>
        <pt x="933" y="1068" on="0"/>
        <pt x="932" y="1067" on="1"/>
        <pt x="922" y="1059" on="1"/>
        <pt x="907" y="1063" on="1"/>
        <pt x="859" y="1074" on="0"/>
        <pt x="791" y="1085" on="0"/>
        <pt x="762" y="1085" on="1"/>
        <pt x="728" y="1085" on="0"/>
        <pt x="661" y="1070" on="0"/>
        <pt x="614" y="1055" on="1"/>
        <pt x="600" y="1053" on="1"/>
        <pt x="558" y="1061" on="0"/>
        <pt x="481" y="1069" on="0"/>
        <pt x="442" y="1069" on="1"/>
        <pt x="445" y="1041" on="0"/>
        <pt x="456" y="986" on="0"/>
        <pt x="465" y="958" on="1"/>
        <pt x="465" y="944" on="1"/>
        <pt x="459" y="926" on="0"/>
        <pt x="452" y="891" on="0"/>
        <pt x="449" y="872" on="1"/>
        <pt x="478" y="864" on="0"/>
        <pt x="529" y="858" on="0"/>
        <pt x="557" y="858" on="1"/>
        <pt x="594" y="858" on="0"/>
        <pt x="670" y="871" on="0"/>
        <pt x="715" y="885" on="1"/>
        <pt x="727" y="889" on="1"/>
        <pt x="737" y="881" on="1"/>
        <pt x="738" y="880" on="0"/>
        <pt x="761" y="859" on="0"/>
        <pt x="788" y="816" on="0"/>
        <pt x="809" y="751" on="0"/>
      </contour>
      <contour>
        <pt x="428" y="1335" on="1"/>
        <pt x="421" y="1341" on="0"/>
        <pt x="397" y="1359" on="0"/>
        <pt x="361" y="1375" on="0"/>
        <pt x="314" y="1386" on="0"/>
        <pt x="285" y="1386" on="1"/>
        <pt x="257" y="1386" on="0"/>
        <pt x="213" y="1377" on="0"/>
        <pt x="180" y="1363" on="0"/>
        <pt x="158" y="1349" on="0"/>
        <pt x="152" y="1343" on="1"/>
        <pt x="164" y="1298" on="0"/>
        <pt x="176" y="1212" on="0"/>
        <pt x="176" y="1167" on="1"/>
        <pt x="176" y="1072" on="0"/>
        <pt x="145" y="979" on="1"/>
        <pt x="170" y="987" on="0"/>
        <pt x="216" y="991" on="0"/>
        <pt x="236" y="991" on="1"/>
        <pt x="290" y="991" on="0"/>
        <pt x="344" y="978" on="0"/>
        <pt x="355" y="970" on="1"/>
        <pt x="368" y="961" on="0"/>
        <pt x="367" y="950" on="1"/>
        <pt x="367" y="941" on="0"/>
        <pt x="354" y="930" on="0"/>
        <pt x="346" y="930" on="1"/>
        <pt x="344" y="930" on="0"/>
        <pt x="337" y="935" on="0"/>
        <pt x="317" y="941" on="0"/>
        <pt x="281" y="946" on="0"/>
        <pt x="250" y="946" on="1"/>
        <pt x="225" y="946" on="0"/>
        <pt x="167" y="936" on="0"/>
        <pt x="135" y="924" on="1"/>
        <pt x="149" y="876" on="0"/>
        <pt x="164" y="780" on="0"/>
        <pt x="164" y="729" on="1"/>
        <pt x="164" y="687" on="0"/>
        <pt x="153" y="600" on="0"/>
        <pt x="143" y="557" on="1"/>
        <pt x="159" y="559" on="0"/>
        <pt x="187" y="561" on="0"/>
        <pt x="203" y="561" on="1"/>
        <pt x="226" y="561" on="0"/>
        <pt x="286" y="556" on="0"/>
        <pt x="340" y="546" on="0"/>
        <pt x="377" y="531" on="0"/>
        <pt x="377" y="520" on="1"/>
        <pt x="377" y="509" on="0"/>
        <pt x="359" y="500" on="0"/>
        <pt x="350" y="500" on="1"/>
        <pt x="327" y="506" on="0"/>
        <pt x="268" y="514" on="0"/>
        <pt x="236" y="514" on="1"/>
        <pt x="213" y="514" on="0"/>
        <pt x="162" y="509" on="0"/>
        <pt x="139" y="506" on="1"/>
        <pt x="149" y="464" on="0"/>
        <pt x="156" y="384" on="0"/>
        <pt x="156" y="346" on="1"/>
        <pt x="156" y="224" on="0"/>
        <pt x="113" y="109" on="1"/>
        <pt x="117" y="102" on="0"/>
        <pt x="136" y="79" on="0"/>
        <pt x="171" y="58" on="0"/>
        <pt x="223" y="43" on="0"/>
        <pt x="260" y="43" on="1"/>
        <pt x="297" y="43" on="0"/>
        <pt x="351" y="57" on="0"/>
        <pt x="388" y="76" on="0"/>
        <pt x="409" y="97" on="0"/>
        <pt x="414" y="104" on="1"/>
        <pt x="397" y="157" on="0"/>
        <pt x="379" y="259" on="0"/>
        <pt x="379" y="311" on="1"/>
        <pt x="379" y="367" on="0"/>
        <pt x="398" y="475" on="0"/>
        <pt x="418" y="530" on="1"/>
        <pt x="401" y="581" on="0"/>
        <pt x="385" y="683" on="0"/>
        <pt x="385" y="737" on="1"/>
        <pt x="385" y="788" on="0"/>
        <pt x="400" y="895" on="0"/>
        <pt x="416" y="950" on="1"/>
        <pt x="391" y="1032" on="0"/>
        <pt x="391" y="1118" on="1"/>
        <pt x="391" y="1227" on="0"/>
      </contour>
      <contour>
        <pt x="485" y="1346" on="1"/>
        <pt x="479" y="1333" on="1"/>
        <pt x="461" y="1278" on="0"/>
        <pt x="442" y="1171" on="0"/>
        <pt x="442" y="1120" on="1"/>
        <pt x="442" y="1118" on="1"/>
        <pt x="481" y="1118" on="0"/>
        <pt x="560" y="1108" on="0"/>
        <pt x="602" y="1102" on="1"/>
        <pt x="652" y="1119" on="0"/>
        <pt x="723" y="1135" on="0"/>
        <pt x="760" y="1135" on="1"/>
        <pt x="791" y="1135" on="0"/>
        <pt x="861" y="1123" on="0"/>
        <pt x="907" y="1112" on="1"/>
        <pt x="912" y="1118" on="0"/>
        <pt x="927" y="1140" on="0"/>
        <pt x="940" y="1172" on="0"/>
        <pt x="950" y="1213" on="0"/>
        <pt x="950" y="1239" on="1"/>
        <pt x="950" y="1267" on="0"/>
        <pt x="938" y="1313" on="0"/>
        <pt x="921" y="1347" on="0"/>
        <pt x="903" y="1370" on="0"/>
        <pt x="897" y="1376" on="1"/>
        <pt x="844" y="1358" on="0"/>
        <pt x="773" y="1341" on="0"/>
        <pt x="739" y="1341" on="1"/>
        <pt x="713" y="1341" on="0"/>
        <pt x="653" y="1351" on="0"/>
        <pt x="614" y="1360" on="1"/>
        <pt x="625" y="1332" on="0"/>
        <pt x="635" y="1278" on="0"/>
        <pt x="635" y="1255" on="1"/>
        <pt x="635" y="1210" on="0"/>
        <pt x="624" y="1165" on="0"/>
        <pt x="610" y="1147" on="0"/>
        <pt x="599" y="1147" on="0"/>
        <pt x="598" y="1147" on="1"/>
        <pt x="590" y="1147" on="0"/>
        <pt x="578" y="1159" on="0"/>
        <pt x="578" y="1167" on="1"/>
        <pt x="578" y="1168" on="0"/>
        <pt x="581" y="1174" on="0"/>
        <pt x="585" y="1188" on="0"/>
        <pt x="588" y="1214" on="0"/>
        <pt x="588" y="1237" on="1"/>
        <pt x="588" y="1263" on="0"/>
        <pt x="576" y="1329" on="0"/>
        <pt x="557" y="1364" on="1"/>
        <pt x="538" y="1364" on="0"/>
        <pt x="498" y="1355" on="0"/>
        <pt x="479" y="1350" on="1"/>
      </contour>
      <contour>
        <pt x="430" y="313" on="1"/>
        <pt x="430" y="262" on="0"/>
        <pt x="446" y="162" on="0"/>
        <pt x="465" y="111" on="1"/>
        <pt x="465" y="106" on="1"/>
        <pt x="490" y="101" on="0"/>
        <pt x="538" y="92" on="0"/>
        <pt x="561" y="84" on="1"/>
        <pt x="599" y="93" on="0"/>
        <pt x="658" y="102" on="0"/>
        <pt x="686" y="102" on="1"/>
        <pt x="706" y="102" on="0"/>
        <pt x="745" y="97" on="0"/>
        <pt x="787" y="88" on="0"/>
        <pt x="835" y="73" on="0"/>
        <pt x="864" y="63" on="1"/>
        <pt x="870" y="69" on="0"/>
        <pt x="889" y="93" on="0"/>
        <pt x="907" y="129" on="0"/>
        <pt x="920" y="176" on="0"/>
        <pt x="920" y="205" on="1"/>
        <pt x="920" y="254" on="0"/>
        <pt x="890" y="315" on="0"/>
        <pt x="879" y="328" on="1"/>
        <pt x="837" y="317" on="0"/>
        <pt x="776" y="307" on="0"/>
        <pt x="750" y="307" on="1"/>
        <pt x="714" y="307" on="0"/>
        <pt x="645" y="323" on="0"/>
        <pt x="596" y="340" on="1"/>
        <pt x="602" y="318" on="0"/>
        <pt x="606" y="281" on="0"/>
        <pt x="606" y="262" on="1"/>
        <pt x="606" y="208" on="0"/>
        <pt x="591" y="154" on="0"/>
        <pt x="574" y="132" on="0"/>
        <pt x="560" y="131" on="0"/>
        <pt x="561" y="131" on="1"/>
        <pt x="552" y="131" on="0"/>
        <pt x="541" y="143" on="0"/>
        <pt x="541" y="150" on="1"/>
        <pt x="541" y="151" on="0"/>
        <pt x="547" y="159" on="0"/>
        <pt x="553" y="180" on="0"/>
        <pt x="559" y="218" on="0"/>
        <pt x="559" y="248" on="1"/>
        <pt x="559" y="269" on="0"/>
        <pt x="551" y="322" on="0"/>
        <pt x="539" y="350" on="1"/>
        <pt x="510" y="350" on="0"/>
        <pt x="455" y="343" on="0"/>
        <pt x="430" y="340" on="1"/>
      </contour>
      <contour>
        <pt x="520" y="604" on="1"/>
        <pt x="564" y="604" on="0"/>
        <pt x="651" y="588" on="0"/>
        <pt x="707" y="571" on="1"/>
        <pt x="714" y="577" on="0"/>
        <pt x="732" y="601" on="0"/>
        <pt x="748" y="635" on="0"/>
        <pt x="760" y="679" on="0"/>
        <pt x="760" y="707" on="1"/>
        <pt x="760" y="734" on="0"/>
        <pt x="750" y="776" on="0"/>
        <pt x="736" y="807" on="0"/>
        <pt x="720" y="828" on="0"/>
        <pt x="715" y="834" on="1"/>
        <pt x="670" y="821" on="0"/>
        <pt x="599" y="811" on="0"/>
        <pt x="565" y="811" on="1"/>
        <pt x="534" y="811" on="0"/>
        <pt x="474" y="818" on="0"/>
        <pt x="440" y="827" on="1"/>
        <pt x="437" y="804" on="0"/>
        <pt x="434" y="757" on="0"/>
        <pt x="434" y="735" on="1"/>
        <pt x="434" y="700" on="0"/>
        <pt x="441" y="632" on="0"/>
        <pt x="449" y="598" on="1"/>
        <pt x="485" y="604" on="0"/>
      </contour>
    </TTGlyph>
    <TTGlyph name="Eacute" xMin="57" yMin="-8" xMax="999" yMax="1952">
      <component glyphName="E" x="0" y="0" flags="0x204"/>
      <component glyphName="acute" x="408" y="-28" flags="0x4"/>
    </TTGlyph>
    <TTGlyph name="Ebreve" xMin="57" yMin="-8" xMax="999" yMax="1981">
      <component glyphName="E" x="0" y="0" flags="0x204"/>
      <component glyphName="breve" x="207" y="-42" flags="0x4"/>
    </TTGlyph>
    <TTGlyph name="Ecaron" xMin="57" yMin="-8" xMax="999" yMax="1997">
      <component glyphName="E" x="0" y="0" flags="0x204"/>
      <component glyphName="caron" x="238" y="-67" flags="0x4"/>
    </TTGlyph>
    <TTGlyph name="Ecircumflex" xMin="57" yMin="-8" xMax="999" yMax="2016">
      <component glyphName="E" x="0" y="0" flags="0x204"/>
      <component glyphName="circumflex" x="213" y="-34" flags="0x4"/>
    </TTGlyph>
    <TTGlyph name="Edieresis" xMin="57" yMin="-8" xMax="999" yMax="1853">
      <component glyphName="E" x="0" y="0" flags="0x204"/>
      <component glyphName="dieresis" x="168" y="0" flags="0x4"/>
    </TTGlyph>
    <TTGlyph name="Edotaccent" xMin="57" yMin="-8" xMax="999" yMax="1853">
      <component glyphName="E" x="0" y="0" flags="0x204"/>
      <component glyphName="dotaccent" x="330" y="0" flags="0x4"/>
    </TTGlyph>
    <TTGlyph name="Egrave" xMin="57" yMin="-8" xMax="999" yMax="1972">
      <component glyphName="E" x="0" y="0" flags="0x204"/>
      <component glyphName="grave" x="279" y="-19" flags="0x4"/>
    </TTGlyph>
    <TTGlyph name="Emacron" xMin="57" yMin="-8" xMax="999" yMax="1780">
      <component glyphName="E" x="0" y="0" flags="0x204"/>
      <component glyphName="macron" x="240" y="-28" flags="0x4"/>
    </TTGlyph>
    <TTGlyph name="Eng" xMin="57" yMin="-537" xMax="1163" yMax="1436">
      <contour>
        <pt x="1163" y="1292" on="1"/>
        <pt x="1159" y="1278" on="1"/>
        <pt x="1125" y="1163" on="0"/>
        <pt x="1117" y="951" on="0"/>
        <pt x="1145" y="848" on="1"/>
        <pt x="1147" y="840" on="1"/>
        <pt x="1145" y="831" on="1"/>
        <pt x="1113" y="703" on="0"/>
        <pt x="1115" y="473" on="0"/>
        <pt x="1147" y="365" on="1"/>
        <pt x="1149" y="354" on="1"/>
        <pt x="1147" y="346" on="1"/>
        <pt x="1110" y="227" on="0"/>
        <pt x="1108" y="-8" on="0"/>
        <pt x="1145" y="-129" on="1"/>
        <pt x="1147" y="-139" on="1"/>
        <pt x="1143" y="-150" on="1"/>
        <pt x="1142" y="-152" on="0"/>
        <pt x="1129" y="-177" on="0"/>
        <pt x="1098" y="-210" on="0"/>
        <pt x="1073" y="-227" on="1"/>
        <pt x="1060" y="-236" on="0"/>
        <pt x="1043" y="-243" on="1"/>
        <pt x="1040" y="-275" on="0"/>
        <pt x="1033" y="-300" on="1"/>
        <pt x="1025" y="-326" on="0"/>
        <pt x="1007" y="-357" on="0"/>
        <pt x="1006" y="-358" on="1"/>
        <pt x="997" y="-369" on="1"/>
        <pt x="985" y="-369" on="1"/>
        <pt x="933" y="-366" on="0"/>
        <pt x="863" y="-368" on="0"/>
        <pt x="806" y="-381" on="0"/>
        <pt x="749" y="-410" on="0"/>
        <pt x="709" y="-434" on="1"/>
        <pt x="702" y="-438" on="1"/>
        <pt x="694" y="-438" on="1"/>
        <pt x="686" y="-438" on="0"/>
        <pt x="672" y="-440" on="0"/>
        <pt x="664" y="-440" on="1"/>
        <pt x="619" y="-442" on="0"/>
        <pt x="548" y="-451" on="0"/>
        <pt x="482" y="-472" on="0"/>
        <pt x="417" y="-506" on="0"/>
        <pt x="379" y="-532" on="1"/>
        <pt x="371" y="-537" on="1"/>
        <pt x="360" y="-537" on="1"/>
        <pt x="358" y="-536" on="0"/>
        <pt x="324" y="-526" on="0"/>
        <pt x="277" y="-493" on="0"/>
        <pt x="228" y="-429" on="0"/>
        <pt x="213" y="-375" on="1"/>
        <pt x="197" y="-320" on="0"/>
        <pt x="207" y="-240" on="0"/>
        <pt x="232" y="-187" on="0"/>
        <pt x="259" y="-162" on="0"/>
        <pt x="260" y="-160" on="1"/>
        <pt x="268" y="-154" on="1"/>
        <pt x="279" y="-156" on="1"/>
        <pt x="322" y="-160" on="0"/>
        <pt x="395" y="-155" on="0"/>
        <pt x="463" y="-139" on="0"/>
        <pt x="529" y="-113" on="0"/>
        <pt x="565" y="-96" on="1"/>
        <pt x="570" y="-93" on="0"/>
        <pt x="577" y="-89" on="0"/>
        <pt x="582" y="-86" on="1"/>
        <pt x="590" y="-80" on="1"/>
        <pt x="598" y="-82" on="1"/>
        <pt x="650" y="-87" on="0"/>
        <pt x="688" y="-85" on="1"/>
        <pt x="723" y="-84" on="0"/>
        <pt x="753" y="-77" on="1"/>
        <pt x="769" y="-25" on="0"/>
        <pt x="777" y="27" on="1"/>
        <pt x="757" y="28" on="0"/>
        <pt x="741" y="33" on="1"/>
        <pt x="713" y="41" on="0"/>
        <pt x="683" y="64" on="0"/>
        <pt x="682" y="66" on="1"/>
        <pt x="674" y="72" on="1"/>
        <pt x="674" y="82" on="1"/>
        <pt x="669" y="184" on="0"/>
        <pt x="595" y="370" on="0"/>
        <pt x="524" y="461" on="1"/>
        <pt x="522" y="465" on="1"/>
        <pt x="520" y="471" on="1"/>
        <pt x="498" y="605" on="0"/>
        <pt x="434" y="713" on="1"/>
        <pt x="438" y="623" on="0"/>
        <pt x="467" y="537" on="1"/>
        <pt x="471" y="528" on="1"/>
        <pt x="467" y="520" on="1"/>
        <pt x="430" y="418" on="0"/>
        <pt x="430" y="212" on="0"/>
        <pt x="465" y="109" on="1"/>
        <pt x="469" y="98" on="1"/>
        <pt x="465" y="90" on="1"/>
        <pt x="464" y="88" on="0"/>
        <pt x="444" y="57" on="0"/>
        <pt x="398" y="21" on="0"/>
        <pt x="319" y="-8" on="0"/>
        <pt x="260" y="-8" on="1"/>
        <pt x="201" y="-8" on="0"/>
        <pt x="124" y="23" on="0"/>
        <pt x="79" y="62" on="0"/>
        <pt x="61" y="94" on="0"/>
        <pt x="61" y="96" on="1"/>
        <pt x="57" y="106" on="1"/>
        <pt x="61" y="115" on="1"/>
        <pt x="138" y="301" on="0"/>
        <pt x="86" y="520" on="1"/>
        <pt x="84" y="526" on="1"/>
        <pt x="86" y="532" on="1"/>
        <pt x="141" y="742" on="0"/>
        <pt x="80" y="932" on="1"/>
        <pt x="78" y="940" on="1"/>
        <pt x="82" y="948" on="1"/>
        <pt x="120" y="1047" on="0"/>
        <pt x="129" y="1241" on="0"/>
        <pt x="98" y="1341" on="1"/>
        <pt x="94" y="1354" on="1"/>
        <pt x="102" y="1364" on="1"/>
        <pt x="103" y="1365" on="0"/>
        <pt x="125" y="1388" on="0"/>
        <pt x="170" y="1415" on="0"/>
        <pt x="238" y="1436" on="0"/>
        <pt x="285" y="1436" on="1"/>
        <pt x="333" y="1436" on="0"/>
        <pt x="368" y="1423" on="1"/>
        <pt x="398" y="1412" on="0"/>
        <pt x="419" y="1400" on="1"/>
        <pt x="426" y="1400" on="0"/>
        <pt x="433" y="1400" on="1"/>
        <pt x="462" y="1400" on="0"/>
        <pt x="503" y="1391" on="0"/>
        <pt x="527" y="1381" on="0"/>
        <pt x="528" y="1380" on="1"/>
        <pt x="541" y="1374" on="1"/>
        <pt x="543" y="1362" on="1"/>
        <pt x="564" y="1156" on="0"/>
        <pt x="686" y="1016" on="1"/>
        <pt x="692" y="1010" on="1"/>
        <pt x="692" y="1004" on="1"/>
        <pt x="711" y="889" on="0"/>
        <pt x="753" y="798" on="1"/>
        <pt x="762" y="777" on="0"/>
        <pt x="773" y="757" on="1"/>
        <pt x="767" y="788" on="0"/>
        <pt x="760" y="819" on="1"/>
        <pt x="758" y="827" on="1"/>
        <pt x="760" y="838" on="1"/>
        <pt x="800" y="952" on="0"/>
        <pt x="807" y="1175" on="0"/>
        <pt x="778" y="1290" on="1"/>
        <pt x="774" y="1305" on="1"/>
        <pt x="782" y="1317" on="1"/>
        <pt x="783" y="1318" on="0"/>
        <pt x="805" y="1344" on="0"/>
        <pt x="850" y="1374" on="0"/>
        <pt x="918" y="1399" on="0"/>
        <pt x="965" y="1399" on="1"/>
        <pt x="1012" y="1399" on="0"/>
        <pt x="1082" y="1371" on="0"/>
        <pt x="1130" y="1336" on="0"/>
        <pt x="1154" y="1306" on="0"/>
        <pt x="1155" y="1305" on="1"/>
      </contour>
      <contour>
        <pt x="428" y="1333" on="1"/>
        <pt x="421" y="1339" on="0"/>
        <pt x="397" y="1357" on="0"/>
        <pt x="361" y="1373" on="0"/>
        <pt x="314" y="1384" on="0"/>
        <pt x="285" y="1384" on="1"/>
        <pt x="257" y="1384" on="0"/>
        <pt x="213" y="1375" on="0"/>
        <pt x="180" y="1361" on="0"/>
        <pt x="158" y="1347" on="0"/>
        <pt x="152" y="1341" on="1"/>
        <pt x="176" y="1249" on="0"/>
        <pt x="174" y="1069" on="0"/>
        <pt x="145" y="979" on="1"/>
        <pt x="188" y="991" on="0"/>
        <pt x="263" y="991" on="0"/>
        <pt x="319" y="981" on="0"/>
        <pt x="352" y="968" on="0"/>
        <pt x="354" y="967" on="1"/>
        <pt x="362" y="964" on="0"/>
        <pt x="368" y="948" on="0"/>
        <pt x="365" y="940" on="1"/>
        <pt x="361" y="932" on="0"/>
        <pt x="346" y="927" on="0"/>
        <pt x="338" y="930" on="1"/>
        <pt x="336" y="931" on="0"/>
        <pt x="303" y="941" on="0"/>
        <pt x="248" y="945" on="0"/>
        <pt x="176" y="938" on="0"/>
        <pt x="135" y="922" on="1"/>
        <pt x="187" y="748" on="0"/>
        <pt x="143" y="555" on="1"/>
        <pt x="202" y="563" on="0"/>
        <pt x="319" y="551" on="0"/>
        <pt x="362" y="537" on="1"/>
        <pt x="370" y="535" on="0"/>
        <pt x="378" y="520" on="0"/>
        <pt x="375" y="512" on="1"/>
        <pt x="371" y="498" on="0"/>
        <pt x="356" y="498" on="1"/>
        <pt x="352" y="498" on="0"/>
        <pt x="350" y="500" on="1"/>
        <pt x="310" y="511" on="0"/>
        <pt x="195" y="515" on="0"/>
        <pt x="139" y="504" on="1"/>
        <pt x="162" y="395" on="0"/>
        <pt x="148" y="199" on="0"/>
        <pt x="113" y="106" on="1"/>
        <pt x="117" y="99" on="0"/>
        <pt x="136" y="77" on="0"/>
        <pt x="171" y="56" on="0"/>
        <pt x="223" y="41" on="0"/>
        <pt x="260" y="41" on="1"/>
        <pt x="297" y="41" on="0"/>
        <pt x="351" y="56" on="0"/>
        <pt x="388" y="75" on="0"/>
        <pt x="409" y="96" on="0"/>
        <pt x="414" y="102" on="1"/>
        <pt x="344" y="317" on="0"/>
        <pt x="418" y="528" on="1"/>
        <pt x="386" y="627" on="0"/>
        <pt x="384" y="834" on="0"/>
        <pt x="416" y="948" on="1"/>
        <pt x="363" y="1133" on="0"/>
      </contour>
      <contour>
        <pt x="1055" y="336" on="1"/>
        <pt x="1053" y="330" on="0"/>
        <pt x="1042" y="319" on="0"/>
        <pt x="1034" y="319" on="1"/>
        <pt x="1033" y="320" on="1"/>
        <pt x="1031" y="322" on="0"/>
        <pt x="1030" y="322" on="1"/>
        <pt x="1012" y="328" on="0"/>
        <pt x="990" y="331" on="1"/>
        <pt x="981" y="332" on="0"/>
        <pt x="971" y="333" on="1"/>
        <pt x="1002" y="287" on="0"/>
        <pt x="1042" y="246" on="1"/>
        <pt x="1051" y="240" on="1"/>
        <pt x="1051" y="229" on="1"/>
        <pt x="1051" y="227" on="0"/>
        <pt x="1046" y="191" on="0"/>
        <pt x="1019" y="138" on="0"/>
        <pt x="960" y="78" on="0"/>
        <pt x="907" y="53" on="1"/>
        <pt x="863" y="33" on="0"/>
        <pt x="828" y="28" on="1"/>
        <pt x="825" y="4" on="0"/>
        <pt x="821" y="-18" on="1"/>
        <pt x="817" y="-37" on="0"/>
        <pt x="813" y="-56" on="1"/>
        <pt x="818" y="-54" on="0"/>
        <pt x="824" y="-51" on="1"/>
        <pt x="855" y="-35" on="0"/>
        <pt x="893" y="-10" on="1"/>
        <pt x="905" y="-4" on="1"/>
        <pt x="918" y="-8" on="1"/>
        <pt x="919" y="-9" on="0"/>
        <pt x="945" y="-24" on="0"/>
        <pt x="982" y="-58" on="0"/>
        <pt x="1021" y="-116" on="0"/>
        <pt x="1034" y="-160" on="1"/>
        <pt x="1037" y="-172" on="0"/>
        <pt x="1039" y="-183" on="1"/>
        <pt x="1058" y="-173" on="0"/>
        <pt x="1069" y="-162" on="1"/>
        <pt x="1086" y="-144" on="0"/>
        <pt x="1094" y="-133" on="1"/>
        <pt x="1059" y="-11" on="0"/>
        <pt x="1059" y="235" on="0"/>
        <pt x="1096" y="356" on="1"/>
        <pt x="1064" y="469" on="0"/>
        <pt x="1063" y="707" on="0"/>
        <pt x="1094" y="840" on="1"/>
        <pt x="1041" y="1052" on="0"/>
        <pt x="1106" y="1280" on="1"/>
        <pt x="1099" y="1287" on="0"/>
        <pt x="1075" y="1308" on="0"/>
        <pt x="1040" y="1328" on="0"/>
        <pt x="994" y="1341" on="0"/>
        <pt x="965" y="1341" on="1"/>
        <pt x="936" y="1341" on="0"/>
        <pt x="892" y="1330" on="0"/>
        <pt x="858" y="1315" on="0"/>
        <pt x="835" y="1297" on="0"/>
        <pt x="829" y="1290" on="1"/>
        <pt x="881" y="1080" on="0"/>
        <pt x="823" y="872" on="1"/>
        <pt x="866" y="887" on="0"/>
        <pt x="942" y="887" on="0"/>
        <pt x="998" y="876" on="0"/>
        <pt x="1031" y="861" on="0"/>
        <pt x="1032" y="860" on="1"/>
        <pt x="1040" y="855" on="0"/>
        <pt x="1047" y="839" on="0"/>
        <pt x="1042" y="829" on="1"/>
        <pt x="1039" y="820" on="0"/>
        <pt x="1024" y="814" on="0"/>
        <pt x="1016" y="817" on="1"/>
        <pt x="1015" y="818" on="0"/>
        <pt x="982" y="829" on="0"/>
        <pt x="927" y="835" on="0"/>
        <pt x="855" y="826" on="0"/>
        <pt x="815" y="807" on="1"/>
        <pt x="826" y="760" on="0"/>
        <pt x="833" y="712" on="1"/>
        <pt x="836" y="688" on="0"/>
        <pt x="839" y="663" on="1"/>
        <pt x="851" y="648" on="0"/>
        <pt x="864" y="635" on="1"/>
        <pt x="870" y="629" on="1"/>
        <pt x="872" y="621" on="1"/>
        <pt x="882" y="512" on="0"/>
        <pt x="924" y="418" on="1"/>
        <pt x="931" y="402" on="0"/>
        <pt x="939" y="387" on="1"/>
        <pt x="962" y="384" on="0"/>
        <pt x="983" y="380" on="1"/>
        <pt x="1016" y="374" on="0"/>
        <pt x="1040" y="365" on="1"/>
        <pt x="1048" y="363" on="0"/>
        <pt x="1057" y="345" on="0"/>
      </contour>
      <contour>
        <pt x="485" y="1343" on="1"/>
        <pt x="479" y="1331" on="1"/>
        <pt x="445" y="1232" on="0"/>
        <pt x="439" y="1047" on="0"/>
        <pt x="465" y="956" on="1"/>
        <pt x="466" y="953" on="1"/>
        <pt x="475" y="957" on="0"/>
        <pt x="485" y="960" on="1"/>
        <pt x="512" y="969" on="0"/>
        <pt x="554" y="978" on="0"/>
        <pt x="580" y="979" on="0"/>
        <pt x="582" y="979" on="1"/>
        <pt x="590" y="979" on="0"/>
        <pt x="602" y="966" on="0"/>
        <pt x="602" y="950" on="0"/>
        <pt x="590" y="938" on="0"/>
        <pt x="582" y="938" on="1"/>
        <pt x="580" y="938" on="0"/>
        <pt x="550" y="934" on="0"/>
        <pt x="504" y="918" on="0"/>
        <pt x="475" y="902" on="1"/>
        <pt x="463" y="896" on="0"/>
        <pt x="451" y="887" on="1"/>
        <pt x="442" y="844" on="0"/>
        <pt x="438" y="802" on="1"/>
        <pt x="528" y="676" on="0"/>
        <pt x="563" y="516" on="1"/>
        <pt x="613" y="547" on="0"/>
        <pt x="725" y="586" on="0"/>
        <pt x="768" y="592" on="1"/>
        <pt x="777" y="594" on="0"/>
        <pt x="791" y="583" on="0"/>
        <pt x="793" y="575" on="1"/>
        <pt x="793" y="559" on="0"/>
        <pt x="780" y="553" on="1"/>
        <pt x="774" y="553" on="1"/>
        <pt x="734" y="547" on="0"/>
        <pt x="628" y="501" on="0"/>
        <pt x="582" y="469" on="1"/>
        <pt x="648" y="379" on="0"/>
        <pt x="717" y="196" on="0"/>
        <pt x="723" y="96" on="1"/>
        <pt x="730" y="91" on="0"/>
        <pt x="757" y="79" on="0"/>
        <pt x="797" y="75" on="0"/>
        <pt x="851" y="83" on="0"/>
        <pt x="885" y="98" on="1"/>
        <pt x="919" y="114" on="0"/>
        <pt x="963" y="150" on="0"/>
        <pt x="987" y="184" on="0"/>
        <pt x="997" y="211" on="0"/>
        <pt x="999" y="219" on="1"/>
        <pt x="845" y="386" on="0"/>
        <pt x="823" y="608" on="1"/>
        <pt x="752" y="684" on="0"/>
        <pt x="663" y="869" on="0"/>
        <pt x="643" y="987" on="1"/>
        <pt x="581" y="1061" on="0"/>
        <pt x="506" y="1238" on="0"/>
        <pt x="494" y="1341" on="1"/>
        <pt x="489" y="1343" on="0"/>
        <pt x="483" y="1345" on="1"/>
      </contour>
      <contour>
        <pt x="985" y="-172" on="1"/>
        <pt x="977" y="-146" on="0"/>
        <pt x="957" y="-108" on="0"/>
        <pt x="935" y="-81" on="0"/>
        <pt x="914" y="-64" on="0"/>
        <pt x="907" y="-59" on="1"/>
        <pt x="875" y="-80" on="0"/>
        <pt x="820" y="-109" on="0"/>
        <pt x="761" y="-127" on="0"/>
        <pt x="692" y="-134" on="0"/>
        <pt x="645" y="-133" on="1"/>
        <pt x="669" y="-169" on="0"/>
        <pt x="689" y="-238" on="0"/>
        <pt x="693" y="-294" on="0"/>
        <pt x="689" y="-329" on="0"/>
        <pt x="688" y="-330" on="1"/>
        <pt x="688" y="-338" on="0"/>
        <pt x="675" y="-346" on="0"/>
        <pt x="666" y="-346" on="1"/>
        <pt x="658" y="-344" on="0"/>
        <pt x="647" y="-332" on="0"/>
        <pt x="649" y="-324" on="1"/>
        <pt x="649" y="-306" on="1"/>
        <pt x="649" y="-289" on="0"/>
        <pt x="639" y="-237" on="0"/>
        <pt x="614" y="-171" on="0"/>
        <pt x="588" y="-139" on="1"/>
        <pt x="584" y="-141" on="0"/>
        <pt x="580" y="-145" on="1"/>
        <pt x="544" y="-160" on="0"/>
        <pt x="476" y="-185" on="0"/>
        <pt x="405" y="-202" on="0"/>
        <pt x="328" y="-209" on="0"/>
        <pt x="285" y="-205" on="1"/>
        <pt x="279" y="-211" on="0"/>
        <pt x="262" y="-235" on="0"/>
        <pt x="250" y="-273" on="0"/>
        <pt x="250" y="-326" on="0"/>
        <pt x="260" y="-360" on="1"/>
        <pt x="270" y="-395" on="0"/>
        <pt x="298" y="-441" on="0"/>
        <pt x="327" y="-469" on="0"/>
        <pt x="352" y="-483" on="0"/>
        <pt x="360" y="-485" on="1"/>
        <pt x="399" y="-460" on="0"/>
        <pt x="470" y="-425" on="0"/>
        <pt x="539" y="-403" on="0"/>
        <pt x="609" y="-393" on="0"/>
        <pt x="649" y="-391" on="1"/>
        <pt x="688" y="-391" on="1"/>
        <pt x="729" y="-366" on="0"/>
        <pt x="794" y="-337" on="0"/>
        <pt x="858" y="-322" on="0"/>
        <pt x="928" y="-318" on="0"/>
        <pt x="973" y="-319" on="1"/>
        <pt x="977" y="-311" on="0"/>
        <pt x="988" y="-283" on="0"/>
        <pt x="994" y="-246" on="0"/>
        <pt x="993" y="-199" on="0"/>
      </contour>
    </TTGlyph>
    <TTGlyph name="Eogonek" xMin="57" yMin="-430" xMax="999" yMax="1438">
      <contour>
        <pt x="809" y="707" on="1"/>
        <pt x="809" y="662" on="0"/>
        <pt x="785" y="595" on="0"/>
        <pt x="755" y="549" on="0"/>
        <pt x="730" y="525" on="0"/>
        <pt x="729" y="524" on="1"/>
        <pt x="719" y="516" on="1"/>
        <pt x="705" y="520" on="1"/>
        <pt x="649" y="539" on="0"/>
        <pt x="564" y="557" on="0"/>
        <pt x="522" y="557" on="1"/>
        <pt x="491" y="557" on="0"/>
        <pt x="461" y="551" on="1"/>
        <pt x="471" y="530" on="1"/>
        <pt x="467" y="522" on="1"/>
        <pt x="443" y="454" on="0"/>
        <pt x="434" y="387" on="1"/>
        <pt x="450" y="391" on="0"/>
        <pt x="490" y="397" on="0"/>
        <pt x="526" y="401" on="0"/>
        <pt x="550" y="403" on="0"/>
        <pt x="551" y="403" on="1"/>
        <pt x="559" y="406" on="1"/>
        <pt x="567" y="401" on="1"/>
        <pt x="624" y="378" on="0"/>
        <pt x="704" y="354" on="0"/>
        <pt x="745" y="354" on="1"/>
        <pt x="773" y="354" on="0"/>
        <pt x="839" y="366" on="0"/>
        <pt x="881" y="377" on="1"/>
        <pt x="893" y="381" on="1"/>
        <pt x="903" y="373" on="1"/>
        <pt x="904" y="371" on="0"/>
        <pt x="925" y="350" on="0"/>
        <pt x="949" y="307" on="0"/>
        <pt x="969" y="242" on="0"/>
        <pt x="969" y="197" on="1"/>
        <pt x="968" y="152" on="0"/>
        <pt x="942" y="86" on="0"/>
        <pt x="912" y="41" on="0"/>
        <pt x="886" y="17" on="0"/>
        <pt x="885" y="16" on="1"/>
        <pt x="872" y="10" on="1"/>
        <pt x="860" y="14" on="1"/>
        <pt x="852" y="16" on="0"/>
        <pt x="842" y="21" on="0"/>
        <pt x="836" y="23" on="1"/>
        <pt x="817" y="-5" on="0"/>
        <pt x="789" y="-65" on="0"/>
        <pt x="778" y="-96" on="1"/>
        <pt x="855" y="-167" on="0"/>
        <pt x="961" y="-217" on="1"/>
        <pt x="971" y="-221" on="1"/>
        <pt x="973" y="-233" on="1"/>
        <pt x="973" y="-238" on="0"/>
        <pt x="975" y="-249" on="0"/>
        <pt x="975" y="-254" on="1"/>
        <pt x="975" y="-286" on="0"/>
        <pt x="948" y="-347" on="0"/>
        <pt x="904" y="-395" on="0"/>
        <pt x="849" y="-427" on="0"/>
        <pt x="821" y="-430" on="1"/>
        <pt x="809" y="-430" on="1"/>
        <pt x="801" y="-422" on="1"/>
        <pt x="751" y="-362" on="0"/>
        <pt x="646" y="-272" on="0"/>
        <pt x="586" y="-240" on="1"/>
        <pt x="578" y="-236" on="1"/>
        <pt x="575" y="-229" on="1"/>
        <pt x="566" y="-204" on="0"/>
        <pt x="563" y="-184" on="1"/>
        <pt x="533" y="-160" on="0"/>
        <pt x="518" y="-129" on="1"/>
        <pt x="512" y="-117" on="1"/>
        <pt x="520" y="-106" on="1"/>
        <pt x="543" y="-71" on="0"/>
        <pt x="583" y="3" on="0"/>
        <pt x="598" y="43" on="1"/>
        <pt x="567" y="37" on="1"/>
        <pt x="553" y="37" on="1"/>
        <pt x="525" y="42" on="0"/>
        <pt x="470" y="55" on="0"/>
        <pt x="442" y="61" on="1"/>
        <pt x="432" y="50" on="0"/>
        <pt x="401" y="25" on="0"/>
        <pt x="356" y="5" on="0"/>
        <pt x="297" y="-8" on="0"/>
        <pt x="260" y="-8" on="1"/>
        <pt x="201" y="-8" on="0"/>
        <pt x="124" y="24" on="0"/>
        <pt x="79" y="63" on="0"/>
        <pt x="61" y="96" on="0"/>
        <pt x="61" y="98" on="1"/>
        <pt x="57" y="106" on="1"/>
        <pt x="61" y="117" on="1"/>
        <pt x="84" y="172" on="0"/>
        <pt x="106" y="288" on="0"/>
        <pt x="106" y="348" on="1"/>
        <pt x="106" y="390" on="0"/>
        <pt x="97" y="476" on="0"/>
        <pt x="86" y="522" on="1"/>
        <pt x="86" y="535" on="1"/>
        <pt x="98" y="584" on="0"/>
        <pt x="113" y="679" on="0"/>
        <pt x="113" y="727" on="1"/>
        <pt x="113" y="780" on="0"/>
        <pt x="95" y="882" on="0"/>
        <pt x="80" y="932" on="1"/>
        <pt x="78" y="942" on="1"/>
        <pt x="82" y="950" on="1"/>
        <pt x="104" y="1004" on="0"/>
        <pt x="125" y="1113" on="0"/>
        <pt x="125" y="1167" on="1"/>
        <pt x="125" y="1211" on="0"/>
        <pt x="112" y="1298" on="0"/>
        <pt x="98" y="1343" on="1"/>
        <pt x="94" y="1356" on="1"/>
        <pt x="102" y="1366" on="1"/>
        <pt x="103" y="1367" on="0"/>
        <pt x="125" y="1390" on="0"/>
        <pt x="170" y="1417" on="0"/>
        <pt x="238" y="1438" on="0"/>
        <pt x="285" y="1438" on="1"/>
        <pt x="339" y="1438" on="0"/>
        <pt x="415" y="1408" on="0"/>
        <pt x="438" y="1391" on="1"/>
        <pt x="467" y="1394" on="0"/>
        <pt x="531" y="1406" on="0"/>
        <pt x="563" y="1417" on="1"/>
        <pt x="571" y="1421" on="1"/>
        <pt x="582" y="1419" on="1"/>
        <pt x="630" y="1404" on="0"/>
        <pt x="701" y="1389" on="0"/>
        <pt x="733" y="1389" on="1"/>
        <pt x="768" y="1389" on="0"/>
        <pt x="844" y="1407" on="0"/>
        <pt x="895" y="1425" on="1"/>
        <pt x="907" y="1430" on="1"/>
        <pt x="918" y="1423" on="1"/>
        <pt x="919" y="1422" on="0"/>
        <pt x="943" y="1402" on="0"/>
        <pt x="971" y="1361" on="0"/>
        <pt x="996" y="1298" on="0"/>
        <pt x="999" y="1253" on="1"/>
        <pt x="999" y="1235" on="1"/>
        <pt x="999" y="1195" on="0"/>
        <pt x="979" y="1133" on="0"/>
        <pt x="954" y="1090" on="0"/>
        <pt x="933" y="1068" on="0"/>
        <pt x="932" y="1067" on="1"/>
        <pt x="922" y="1059" on="1"/>
        <pt x="907" y="1063" on="1"/>
        <pt x="859" y="1074" on="0"/>
        <pt x="791" y="1085" on="0"/>
        <pt x="762" y="1085" on="1"/>
        <pt x="728" y="1085" on="0"/>
        <pt x="661" y="1070" on="0"/>
        <pt x="614" y="1055" on="1"/>
        <pt x="600" y="1053" on="1"/>
        <pt x="558" y="1061" on="0"/>
        <pt x="481" y="1069" on="0"/>
        <pt x="442" y="1069" on="1"/>
        <pt x="445" y="1041" on="0"/>
        <pt x="456" y="986" on="0"/>
        <pt x="465" y="958" on="1"/>
        <pt x="465" y="944" on="1"/>
        <pt x="459" y="926" on="0"/>
        <pt x="452" y="891" on="0"/>
        <pt x="449" y="872" on="1"/>
        <pt x="478" y="864" on="0"/>
        <pt x="529" y="858" on="0"/>
        <pt x="557" y="858" on="1"/>
        <pt x="594" y="858" on="0"/>
        <pt x="670" y="871" on="0"/>
        <pt x="715" y="885" on="1"/>
        <pt x="727" y="889" on="1"/>
        <pt x="737" y="881" on="1"/>
        <pt x="738" y="880" on="0"/>
        <pt x="761" y="859" on="0"/>
        <pt x="788" y="816" on="0"/>
        <pt x="809" y="751" on="0"/>
      </contour>
      <contour>
        <pt x="428" y="1335" on="1"/>
        <pt x="421" y="1341" on="0"/>
        <pt x="397" y="1359" on="0"/>
        <pt x="361" y="1375" on="0"/>
        <pt x="314" y="1386" on="0"/>
        <pt x="285" y="1386" on="1"/>
        <pt x="257" y="1386" on="0"/>
        <pt x="213" y="1377" on="0"/>
        <pt x="180" y="1363" on="0"/>
        <pt x="158" y="1349" on="0"/>
        <pt x="152" y="1343" on="1"/>
        <pt x="164" y="1298" on="0"/>
        <pt x="176" y="1212" on="0"/>
        <pt x="176" y="1167" on="1"/>
        <pt x="176" y="1072" on="0"/>
        <pt x="145" y="979" on="1"/>
        <pt x="170" y="987" on="0"/>
        <pt x="216" y="991" on="0"/>
        <pt x="236" y="991" on="1"/>
        <pt x="290" y="991" on="0"/>
        <pt x="344" y="978" on="0"/>
        <pt x="355" y="970" on="1"/>
        <pt x="368" y="961" on="0"/>
        <pt x="367" y="950" on="1"/>
        <pt x="367" y="941" on="0"/>
        <pt x="354" y="930" on="0"/>
        <pt x="346" y="930" on="1"/>
        <pt x="344" y="930" on="0"/>
        <pt x="337" y="935" on="0"/>
        <pt x="317" y="941" on="0"/>
        <pt x="281" y="946" on="0"/>
        <pt x="250" y="946" on="1"/>
        <pt x="225" y="946" on="0"/>
        <pt x="167" y="936" on="0"/>
        <pt x="135" y="924" on="1"/>
        <pt x="149" y="876" on="0"/>
        <pt x="164" y="780" on="0"/>
        <pt x="164" y="729" on="1"/>
        <pt x="164" y="687" on="0"/>
        <pt x="153" y="600" on="0"/>
        <pt x="143" y="557" on="1"/>
        <pt x="159" y="559" on="0"/>
        <pt x="187" y="561" on="0"/>
        <pt x="203" y="561" on="1"/>
        <pt x="226" y="561" on="0"/>
        <pt x="286" y="556" on="0"/>
        <pt x="340" y="546" on="0"/>
        <pt x="377" y="531" on="0"/>
        <pt x="377" y="520" on="1"/>
        <pt x="377" y="509" on="0"/>
        <pt x="359" y="500" on="0"/>
        <pt x="350" y="500" on="1"/>
        <pt x="327" y="506" on="0"/>
        <pt x="268" y="514" on="0"/>
        <pt x="236" y="514" on="1"/>
        <pt x="213" y="514" on="0"/>
        <pt x="162" y="509" on="0"/>
        <pt x="139" y="506" on="1"/>
        <pt x="149" y="464" on="0"/>
        <pt x="156" y="384" on="0"/>
        <pt x="156" y="346" on="1"/>
        <pt x="156" y="224" on="0"/>
        <pt x="113" y="109" on="1"/>
        <pt x="117" y="102" on="0"/>
        <pt x="136" y="79" on="0"/>
        <pt x="171" y="58" on="0"/>
        <pt x="223" y="43" on="0"/>
        <pt x="260" y="43" on="1"/>
        <pt x="297" y="43" on="0"/>
        <pt x="351" y="57" on="0"/>
        <pt x="388" y="76" on="0"/>
        <pt x="409" y="97" on="0"/>
        <pt x="414" y="104" on="1"/>
        <pt x="397" y="157" on="0"/>
        <pt x="379" y="259" on="0"/>
        <pt x="379" y="311" on="1"/>
        <pt x="379" y="367" on="0"/>
        <pt x="398" y="475" on="0"/>
        <pt x="418" y="530" on="1"/>
        <pt x="401" y="581" on="0"/>
        <pt x="385" y="683" on="0"/>
        <pt x="385" y="737" on="1"/>
        <pt x="385" y="788" on="0"/>
        <pt x="400" y="895" on="0"/>
        <pt x="416" y="950" on="1"/>
        <pt x="391" y="1032" on="0"/>
        <pt x="391" y="1118" on="1"/>
        <pt x="391" y="1227" on="0"/>
      </contour>
      <contour>
        <pt x="485" y="1346" on="1"/>
        <pt x="479" y="1333" on="1"/>
        <pt x="461" y="1278" on="0"/>
        <pt x="442" y="1171" on="0"/>
        <pt x="442" y="1120" on="1"/>
        <pt x="442" y="1118" on="1"/>
        <pt x="481" y="1118" on="0"/>
        <pt x="560" y="1108" on="0"/>
        <pt x="602" y="1102" on="1"/>
        <pt x="652" y="1119" on="0"/>
        <pt x="723" y="1135" on="0"/>
        <pt x="760" y="1135" on="1"/>
        <pt x="791" y="1135" on="0"/>
        <pt x="861" y="1123" on="0"/>
        <pt x="907" y="1112" on="1"/>
        <pt x="912" y="1118" on="0"/>
        <pt x="927" y="1140" on="0"/>
        <pt x="940" y="1172" on="0"/>
        <pt x="950" y="1213" on="0"/>
        <pt x="950" y="1239" on="1"/>
        <pt x="950" y="1267" on="0"/>
        <pt x="938" y="1313" on="0"/>
        <pt x="921" y="1347" on="0"/>
        <pt x="903" y="1370" on="0"/>
        <pt x="897" y="1376" on="1"/>
        <pt x="844" y="1358" on="0"/>
        <pt x="773" y="1341" on="0"/>
        <pt x="739" y="1341" on="1"/>
        <pt x="713" y="1341" on="0"/>
        <pt x="653" y="1351" on="0"/>
        <pt x="614" y="1360" on="1"/>
        <pt x="625" y="1332" on="0"/>
        <pt x="635" y="1278" on="0"/>
        <pt x="635" y="1255" on="1"/>
        <pt x="635" y="1210" on="0"/>
        <pt x="624" y="1165" on="0"/>
        <pt x="610" y="1147" on="0"/>
        <pt x="599" y="1147" on="0"/>
        <pt x="598" y="1147" on="1"/>
        <pt x="590" y="1147" on="0"/>
        <pt x="578" y="1159" on="0"/>
        <pt x="578" y="1167" on="1"/>
        <pt x="578" y="1168" on="0"/>
        <pt x="581" y="1174" on="0"/>
        <pt x="585" y="1188" on="0"/>
        <pt x="588" y="1214" on="0"/>
        <pt x="588" y="1237" on="1"/>
        <pt x="588" y="1263" on="0"/>
        <pt x="576" y="1329" on="0"/>
        <pt x="557" y="1364" on="1"/>
        <pt x="538" y="1364" on="0"/>
        <pt x="498" y="1355" on="0"/>
        <pt x="479" y="1350" on="1"/>
      </contour>
      <contour>
        <pt x="430" y="313" on="1"/>
        <pt x="430" y="262" on="0"/>
        <pt x="446" y="162" on="0"/>
        <pt x="465" y="111" on="1"/>
        <pt x="465" y="106" on="1"/>
        <pt x="490" y="101" on="0"/>
        <pt x="538" y="92" on="0"/>
        <pt x="561" y="84" on="1"/>
        <pt x="599" y="93" on="0"/>
        <pt x="658" y="102" on="0"/>
        <pt x="686" y="102" on="1"/>
        <pt x="706" y="102" on="0"/>
        <pt x="745" y="97" on="0"/>
        <pt x="787" y="88" on="0"/>
        <pt x="835" y="73" on="0"/>
        <pt x="864" y="63" on="1"/>
        <pt x="870" y="69" on="0"/>
        <pt x="889" y="93" on="0"/>
        <pt x="907" y="129" on="0"/>
        <pt x="920" y="176" on="0"/>
        <pt x="920" y="205" on="1"/>
        <pt x="920" y="254" on="0"/>
        <pt x="890" y="315" on="0"/>
        <pt x="879" y="328" on="1"/>
        <pt x="837" y="317" on="0"/>
        <pt x="776" y="307" on="0"/>
        <pt x="750" y="307" on="1"/>
        <pt x="714" y="307" on="0"/>
        <pt x="645" y="323" on="0"/>
        <pt x="596" y="340" on="1"/>
        <pt x="602" y="318" on="0"/>
        <pt x="606" y="281" on="0"/>
        <pt x="606" y="262" on="1"/>
        <pt x="606" y="208" on="0"/>
        <pt x="591" y="154" on="0"/>
        <pt x="574" y="132" on="0"/>
        <pt x="560" y="131" on="0"/>
        <pt x="561" y="131" on="1"/>
        <pt x="552" y="131" on="0"/>
        <pt x="541" y="143" on="0"/>
        <pt x="541" y="150" on="1"/>
        <pt x="541" y="151" on="0"/>
        <pt x="547" y="159" on="0"/>
        <pt x="553" y="180" on="0"/>
        <pt x="559" y="218" on="0"/>
        <pt x="559" y="248" on="1"/>
        <pt x="559" y="269" on="0"/>
        <pt x="551" y="322" on="0"/>
        <pt x="539" y="350" on="1"/>
        <pt x="510" y="350" on="0"/>
        <pt x="455" y="343" on="0"/>
        <pt x="430" y="340" on="1"/>
      </contour>
      <contour>
        <pt x="520" y="604" on="1"/>
        <pt x="564" y="604" on="0"/>
        <pt x="651" y="588" on="0"/>
        <pt x="707" y="571" on="1"/>
        <pt x="714" y="577" on="0"/>
        <pt x="732" y="601" on="0"/>
        <pt x="748" y="635" on="0"/>
        <pt x="760" y="679" on="0"/>
        <pt x="760" y="707" on="1"/>
        <pt x="760" y="734" on="0"/>
        <pt x="750" y="776" on="0"/>
        <pt x="736" y="807" on="0"/>
        <pt x="720" y="828" on="0"/>
        <pt x="715" y="834" on="1"/>
        <pt x="670" y="821" on="0"/>
        <pt x="599" y="811" on="0"/>
        <pt x="565" y="811" on="1"/>
        <pt x="534" y="811" on="0"/>
        <pt x="474" y="818" on="0"/>
        <pt x="440" y="827" on="1"/>
        <pt x="437" y="804" on="0"/>
        <pt x="434" y="757" on="0"/>
        <pt x="434" y="735" on="1"/>
        <pt x="434" y="700" on="0"/>
        <pt x="441" y="632" on="0"/>
        <pt x="449" y="598" on="1"/>
        <pt x="485" y="604" on="0"/>
      </contour>
      <contour>
        <pt x="686" y="55" on="1"/>
        <pt x="677" y="55" on="0"/>
        <pt x="659" y="53" on="0"/>
        <pt x="649" y="53" on="1"/>
        <pt x="619" y="-40" on="0"/>
        <pt x="565" y="-121" on="1"/>
        <pt x="579" y="-143" on="0"/>
        <pt x="631" y="-176" on="0"/>
        <pt x="662" y="-176" on="1"/>
        <pt x="674" y="-176" on="0"/>
        <pt x="698" y="-169" on="0"/>
        <pt x="711" y="-160" on="1"/>
        <pt x="738" y="-58" on="0"/>
        <pt x="793" y="37" on="1"/>
        <pt x="762" y="46" on="0"/>
        <pt x="711" y="55" on="0"/>
      </contour>
      <contour>
        <pt x="745" y="-193" on="1"/>
        <pt x="705" y="-221" on="0"/>
        <pt x="662" y="-221" on="1"/>
        <pt x="657" y="-221" on="0"/>
        <pt x="648" y="-221" on="0"/>
        <pt x="643" y="-219" on="1"/>
        <pt x="693" y="-251" on="0"/>
        <pt x="785" y="-332" on="0"/>
        <pt x="827" y="-383" on="1"/>
        <pt x="846" y="-379" on="0"/>
        <pt x="884" y="-353" on="0"/>
        <pt x="912" y="-317" on="0"/>
        <pt x="930" y="-274" on="0"/>
        <pt x="930" y="-252" on="1"/>
        <pt x="836" y="-208" on="0"/>
        <pt x="762" y="-143" on="1"/>
        <pt x="759" y="-153" on="0"/>
        <pt x="756" y="-169" on="0"/>
        <pt x="754" y="-178" on="1"/>
      </contour>
    </TTGlyph>
    <TTGlyph name="Eth" xMin="-33" yMin="-41" xMax="1393" yMax="1485">
      <contour>
        <pt x="1393" y="586" on="1"/>
        <pt x="1391" y="571" on="1"/>
        <pt x="1378" y="565" on="1"/>
        <pt x="1287" y="516" on="0"/>
        <pt x="1157" y="385" on="0"/>
        <pt x="1114" y="301" on="1"/>
        <pt x="1112" y="293" on="1"/>
        <pt x="1106" y="291" on="1"/>
        <pt x="1066" y="267" on="0"/>
        <pt x="983" y="199" on="0"/>
        <pt x="906" y="118" on="0"/>
        <pt x="842" y="28" on="0"/>
        <pt x="821" y="-18" on="1"/>
        <pt x="817" y="-27" on="1"/>
        <pt x="807" y="-31" on="1"/>
        <pt x="805" y="-33" on="0"/>
        <pt x="777" y="-41" on="0"/>
        <pt x="754" y="-41" on="1"/>
        <pt x="731" y="-41" on="0"/>
        <pt x="669" y="-23" on="0"/>
        <pt x="635" y="0" on="1"/>
        <pt x="619" y="-3" on="0"/>
        <pt x="586" y="-8" on="0"/>
        <pt x="567" y="-8" on="1"/>
        <pt x="508" y="-8" on="0"/>
        <pt x="432" y="24" on="0"/>
        <pt x="387" y="63" on="0"/>
        <pt x="369" y="96" on="0"/>
        <pt x="369" y="98" on="1"/>
        <pt x="365" y="106" on="1"/>
        <pt x="369" y="117" on="1"/>
        <pt x="414" y="226" on="0"/>
        <pt x="414" y="348" on="1"/>
        <pt x="414" y="390" on="0"/>
        <pt x="404" y="476" on="0"/>
        <pt x="393" y="522" on="1"/>
        <pt x="393" y="535" on="1"/>
        <pt x="401" y="567" on="1"/>
        <pt x="342" y="573" on="0"/>
        <pt x="287" y="573" on="1"/>
        <pt x="230" y="573" on="0"/>
        <pt x="126" y="561" on="0"/>
        <pt x="84" y="549" on="1"/>
        <pt x="74" y="547" on="1"/>
        <pt x="66" y="551" on="1"/>
        <pt x="64" y="552" on="0"/>
        <pt x="33" y="569" on="0"/>
        <pt x="-3" y="610" on="0"/>
        <pt x="-33" y="678" on="0"/>
        <pt x="-33" y="729" on="1"/>
        <pt x="-33" y="781" on="0"/>
        <pt x="-1" y="849" on="0"/>
        <pt x="39" y="888" on="0"/>
        <pt x="72" y="904" on="0"/>
        <pt x="74" y="905" on="1"/>
        <pt x="84" y="907" on="1"/>
        <pt x="92" y="903" on="1"/>
        <pt x="118" y="893" on="0"/>
        <pt x="185" y="877" on="0"/>
        <pt x="261" y="865" on="0"/>
        <pt x="342" y="858" on="0"/>
        <pt x="383" y="858" on="1"/>
        <pt x="408" y="858" on="1"/>
        <pt x="404" y="877" on="0"/>
        <pt x="393" y="913" on="0"/>
        <pt x="387" y="932" on="1"/>
        <pt x="385" y="942" on="1"/>
        <pt x="389" y="950" on="1"/>
        <pt x="411" y="1004" on="0"/>
        <pt x="432" y="1113" on="0"/>
        <pt x="432" y="1167" on="1"/>
        <pt x="432" y="1211" on="0"/>
        <pt x="420" y="1298" on="0"/>
        <pt x="406" y="1343" on="1"/>
        <pt x="401" y="1356" on="1"/>
        <pt x="410" y="1366" on="1"/>
        <pt x="411" y="1367" on="0"/>
        <pt x="433" y="1390" on="0"/>
        <pt x="477" y="1417" on="0"/>
        <pt x="545" y="1438" on="0"/>
        <pt x="592" y="1438" on="1"/>
        <pt x="612" y="1438" on="1"/>
        <pt x="650" y="1467" on="0"/>
        <pt x="715" y="1485" on="0"/>
        <pt x="739" y="1485" on="1"/>
        <pt x="761" y="1485" on="0"/>
        <pt x="789" y="1479" on="0"/>
        <pt x="791" y="1479" on="1"/>
        <pt x="799" y="1475" on="1"/>
        <pt x="803" y="1464" on="1"/>
        <pt x="821" y="1426" on="0"/>
        <pt x="879" y="1349" on="0"/>
        <pt x="950" y="1278" on="0"/>
        <pt x="1028" y="1214" on="0"/>
        <pt x="1067" y="1188" on="1"/>
        <pt x="1085" y="1180" on="1"/>
        <pt x="1094" y="1176" on="1"/>
        <pt x="1098" y="1167" on="1"/>
        <pt x="1144" y="1073" on="0"/>
        <pt x="1280" y="935" on="0"/>
        <pt x="1374" y="887" on="1"/>
        <pt x="1386" y="883" on="1"/>
        <pt x="1389" y="868" on="1"/>
        <pt x="1389" y="866" on="0"/>
        <pt x="1390" y="863" on="1"/>
        <pt x="1390" y="861" on="0"/>
        <pt x="1391" y="854" on="0"/>
        <pt x="1391" y="850" on="1"/>
        <pt x="1391" y="831" on="0"/>
        <pt x="1374" y="765" on="0"/>
        <pt x="1350" y="727" on="1"/>
        <pt x="1365" y="706" on="0"/>
        <pt x="1382" y="666" on="0"/>
        <pt x="1391" y="631" on="0"/>
        <pt x="1393" y="603" on="0"/>
        <pt x="1393" y="596" on="1"/>
      </contour>
      <contour>
        <pt x="672" y="942" on="1"/>
        <pt x="666" y="930" on="0"/>
        <pt x="653" y="930" on="1"/>
        <pt x="651" y="930" on="0"/>
        <pt x="644" y="935" on="0"/>
        <pt x="624" y="941" on="0"/>
        <pt x="588" y="946" on="0"/>
        <pt x="557" y="946" on="1"/>
        <pt x="532" y="946" on="0"/>
        <pt x="474" y="936" on="0"/>
        <pt x="442" y="924" on="1"/>
        <pt x="447" y="907" on="0"/>
        <pt x="456" y="877" on="0"/>
        <pt x="459" y="860" on="1"/>
        <pt x="480" y="863" on="0"/>
        <pt x="523" y="870" on="0"/>
        <pt x="543" y="877" on="1"/>
        <pt x="555" y="881" on="1"/>
        <pt x="565" y="872" on="1"/>
        <pt x="566" y="871" on="0"/>
        <pt x="588" y="852" on="0"/>
        <pt x="614" y="813" on="0"/>
        <pt x="635" y="753" on="0"/>
        <pt x="635" y="713" on="1"/>
        <pt x="635" y="682" on="0"/>
        <pt x="621" y="632" on="0"/>
        <pt x="601" y="593" on="0"/>
        <pt x="578" y="566" on="0"/>
        <pt x="569" y="557" on="1"/>
        <pt x="590" y="555" on="0"/>
        <pt x="631" y="549" on="0"/>
        <pt x="664" y="540" on="0"/>
        <pt x="684" y="528" on="0"/>
        <pt x="684" y="520" on="1"/>
        <pt x="684" y="509" on="0"/>
        <pt x="667" y="500" on="0"/>
        <pt x="657" y="500" on="1"/>
        <pt x="634" y="506" on="0"/>
        <pt x="575" y="514" on="0"/>
        <pt x="543" y="514" on="1"/>
        <pt x="520" y="514" on="0"/>
        <pt x="469" y="509" on="0"/>
        <pt x="446" y="506" on="1"/>
        <pt x="456" y="464" on="0"/>
        <pt x="463" y="384" on="0"/>
        <pt x="463" y="346" on="1"/>
        <pt x="463" y="284" on="0"/>
        <pt x="442" y="166" on="0"/>
        <pt x="420" y="109" on="1"/>
        <pt x="424" y="102" on="0"/>
        <pt x="443" y="79" on="0"/>
        <pt x="478" y="58" on="0"/>
        <pt x="530" y="43" on="0"/>
        <pt x="567" y="43" on="1"/>
        <pt x="605" y="43" on="0"/>
        <pt x="659" y="57" on="0"/>
        <pt x="696" y="76" on="0"/>
        <pt x="716" y="97" on="0"/>
        <pt x="721" y="104" on="1"/>
        <pt x="704" y="157" on="0"/>
        <pt x="686" y="259" on="0"/>
        <pt x="686" y="311" on="1"/>
        <pt x="686" y="367" on="0"/>
        <pt x="705" y="475" on="0"/>
        <pt x="725" y="530" on="1"/>
        <pt x="708" y="581" on="0"/>
        <pt x="692" y="683" on="0"/>
        <pt x="692" y="737" on="1"/>
        <pt x="692" y="788" on="0"/>
        <pt x="707" y="895" on="0"/>
        <pt x="723" y="950" on="1"/>
        <pt x="714" y="978" on="0"/>
        <pt x="704" y="1036" on="0"/>
        <pt x="700" y="1065" on="1"/>
        <pt x="663" y="1100" on="0"/>
        <pt x="583" y="1162" on="0"/>
        <pt x="535" y="1184" on="1"/>
        <pt x="524" y="1188" on="1"/>
        <pt x="520" y="1196" on="1"/>
        <pt x="518" y="1198" on="0"/>
        <pt x="512" y="1224" on="0"/>
        <pt x="512" y="1247" on="1"/>
        <pt x="512" y="1273" on="0"/>
        <pt x="530" y="1344" on="0"/>
        <pt x="561" y="1384" on="1"/>
        <pt x="519" y="1379" on="0"/>
        <pt x="470" y="1353" on="0"/>
        <pt x="459" y="1343" on="1"/>
        <pt x="471" y="1298" on="0"/>
        <pt x="483" y="1212" on="0"/>
        <pt x="483" y="1167" on="1"/>
        <pt x="483" y="1073" on="0"/>
        <pt x="453" y="979" on="1"/>
        <pt x="477" y="987" on="0"/>
        <pt x="523" y="991" on="0"/>
        <pt x="543" y="991" on="1"/>
        <pt x="597" y="991" on="0"/>
        <pt x="651" y="978" on="0"/>
        <pt x="662" y="970" on="1"/>
        <pt x="675" y="961" on="0"/>
        <pt x="674" y="950" on="1"/>
        <pt x="674" y="948" on="0"/>
        <pt x="672" y="944" on="0"/>
      </contour>
      <contour>
        <pt x="1341" y="850" on="1"/>
        <pt x="1255" y="895" on="0"/>
        <pt x="1125" y="1020" on="0"/>
        <pt x="1077" y="1102" on="1"/>
        <pt x="1059" y="1063" on="0"/>
        <pt x="1010" y="1009" on="0"/>
        <pt x="965" y="976" on="0"/>
        <pt x="933" y="962" on="0"/>
        <pt x="932" y="961" on="1"/>
        <pt x="930" y="958" on="0"/>
        <pt x="926" y="958" on="1"/>
        <pt x="916" y="958" on="0"/>
        <pt x="905" y="973" on="0"/>
        <pt x="905" y="979" on="1"/>
        <pt x="905" y="992" on="0"/>
        <pt x="931" y="1002" on="0"/>
        <pt x="972" y="1028" on="0"/>
        <pt x="1020" y="1086" on="0"/>
        <pt x="1042" y="1147" on="1"/>
        <pt x="1039" y="1147" on="0"/>
        <pt x="1035" y="1149" on="0"/>
        <pt x="1032" y="1151" on="1"/>
        <pt x="993" y="1178" on="0"/>
        <pt x="914" y="1244" on="0"/>
        <pt x="843" y="1317" on="0"/>
        <pt x="784" y="1396" on="0"/>
        <pt x="764" y="1436" on="1"/>
        <pt x="759" y="1436" on="0"/>
        <pt x="749" y="1438" on="0"/>
        <pt x="741" y="1438" on="1"/>
        <pt x="721" y="1438" on="0"/>
        <pt x="656" y="1414" on="0"/>
        <pt x="618" y="1374" on="1"/>
        <pt x="581" y="1334" on="0"/>
        <pt x="561" y="1267" on="0"/>
        <pt x="561" y="1247" on="1"/>
        <pt x="561" y="1239" on="0"/>
        <pt x="561" y="1228" on="0"/>
        <pt x="563" y="1223" on="1"/>
        <pt x="610" y="1200" on="0"/>
        <pt x="702" y="1133" on="0"/>
        <pt x="785" y="1054" on="0"/>
        <pt x="855" y="970" on="0"/>
        <pt x="879" y="930" on="1"/>
        <pt x="1048" y="840" on="0"/>
        <pt x="1153" y="662" on="1"/>
        <pt x="1162" y="662" on="0"/>
        <pt x="1192" y="667" on="0"/>
        <pt x="1227" y="680" on="0"/>
        <pt x="1266" y="705" on="0"/>
        <pt x="1284" y="725" on="1"/>
        <pt x="1302" y="745" on="0"/>
        <pt x="1325" y="783" on="0"/>
        <pt x="1337" y="816" on="0"/>
        <pt x="1341" y="842" on="0"/>
      </contour>
      <contour>
        <pt x="1151" y="610" on="1"/>
        <pt x="1143" y="610" on="0"/>
        <pt x="1141" y="611" on="1"/>
        <pt x="1138" y="611" on="0"/>
        <pt x="1137" y="612" on="1"/>
        <pt x="1124" y="612" on="1"/>
        <pt x="1116" y="625" on="1"/>
        <pt x="1108" y="639" on="0"/>
        <pt x="1091" y="668" on="0"/>
        <pt x="1081" y="680" on="1"/>
        <pt x="1008" y="587" on="0"/>
        <pt x="903" y="526" on="1"/>
        <pt x="942" y="508" on="0"/>
        <pt x="996" y="459" on="0"/>
        <pt x="1028" y="414" on="0"/>
        <pt x="1042" y="382" on="0"/>
        <pt x="1042" y="381" on="1"/>
        <pt x="1042" y="379" on="0"/>
        <pt x="1044" y="375" on="0"/>
        <pt x="1044" y="373" on="1"/>
        <pt x="1044" y="365" on="0"/>
        <pt x="1033" y="352" on="0"/>
        <pt x="1024" y="352" on="1"/>
        <pt x="1015" y="352" on="0"/>
        <pt x="1005" y="364" on="0"/>
        <pt x="996" y="385" on="0"/>
        <pt x="980" y="413" on="0"/>
        <pt x="949" y="443" on="0"/>
        <pt x="898" y="475" on="0"/>
        <pt x="858" y="489" on="1"/>
        <pt x="852" y="481" on="1"/>
        <pt x="827" y="446" on="0"/>
        <pt x="769" y="374" on="0"/>
        <pt x="737" y="340" on="1"/>
        <pt x="737" y="313" on="1"/>
        <pt x="737" y="262" on="0"/>
        <pt x="754" y="162" on="0"/>
        <pt x="772" y="111" on="1"/>
        <pt x="776" y="100" on="1"/>
        <pt x="772" y="92" on="1"/>
        <pt x="771" y="90" on="0"/>
        <pt x="763" y="76" on="0"/>
        <pt x="746" y="55" on="0"/>
        <pt x="718" y="31" on="0"/>
        <pt x="698" y="20" on="1"/>
        <pt x="715" y="14" on="0"/>
        <pt x="745" y="10" on="0"/>
        <pt x="756" y="10" on="1"/>
        <pt x="764" y="10" on="0"/>
        <pt x="775" y="10" on="0"/>
        <pt x="780" y="12" on="1"/>
        <pt x="802" y="58" on="0"/>
        <pt x="868" y="150" on="0"/>
        <pt x="947" y="233" on="0"/>
        <pt x="1032" y="303" on="0"/>
        <pt x="1073" y="328" on="1"/>
        <pt x="1164" y="497" on="0"/>
        <pt x="1343" y="602" on="1"/>
        <pt x="1341" y="614" on="0"/>
        <pt x="1332" y="660" on="0"/>
        <pt x="1315" y="686" on="1"/>
        <pt x="1291" y="662" on="0"/>
        <pt x="1242" y="632" on="0"/>
        <pt x="1198" y="615" on="0"/>
        <pt x="1162" y="610" on="0"/>
      </contour>
      <contour>
        <pt x="584" y="713" on="1"/>
        <pt x="584" y="737" on="0"/>
        <pt x="575" y="775" on="0"/>
        <pt x="562" y="804" on="0"/>
        <pt x="548" y="824" on="0"/>
        <pt x="543" y="831" on="1"/>
        <pt x="511" y="823" on="0"/>
        <pt x="433" y="817" on="0"/>
        <pt x="391" y="817" on="1"/>
        <pt x="350" y="817" on="0"/>
        <pt x="264" y="823" on="0"/>
        <pt x="184" y="834" on="0"/>
        <pt x="112" y="850" on="0"/>
        <pt x="84" y="860" on="1"/>
        <pt x="76" y="855" on="0"/>
        <pt x="54" y="838" on="0"/>
        <pt x="33" y="806" on="0"/>
        <pt x="18" y="758" on="0"/>
        <pt x="18" y="723" on="1"/>
        <pt x="18" y="691" on="0"/>
        <pt x="32" y="647" on="0"/>
        <pt x="51" y="616" on="0"/>
        <pt x="72" y="598" on="0"/>
        <pt x="78" y="594" on="1"/>
        <pt x="120" y="606" on="0"/>
        <pt x="228" y="618" on="0"/>
        <pt x="285" y="618" on="1"/>
        <pt x="350" y="618" on="0"/>
        <pt x="478" y="603" on="0"/>
        <pt x="530" y="588" on="1"/>
        <pt x="537" y="594" on="0"/>
        <pt x="556" y="615" on="0"/>
        <pt x="572" y="647" on="0"/>
        <pt x="584" y="687" on="0"/>
      </contour>
      <contour>
        <pt x="778" y="530" on="1"/>
        <pt x="774" y="522" on="1"/>
        <pt x="759" y="481" on="0"/>
        <pt x="750" y="436" on="1"/>
        <pt x="771" y="465" on="0"/>
        <pt x="814" y="517" on="0"/>
        <pt x="825" y="532" on="1"/>
        <pt x="829" y="541" on="1"/>
        <pt x="838" y="545" on="1"/>
        <pt x="965" y="608" on="0"/>
        <pt x="1053" y="721" on="1"/>
        <pt x="1011" y="775" on="0"/>
        <pt x="911" y="858" on="0"/>
        <pt x="852" y="889" on="1"/>
        <pt x="842" y="899" on="1"/>
        <pt x="823" y="924" on="0"/>
        <pt x="784" y="975" on="0"/>
        <pt x="762" y="999" on="1"/>
        <pt x="764" y="988" on="0"/>
        <pt x="769" y="969" on="0"/>
        <pt x="772" y="958" on="1"/>
        <pt x="772" y="944" on="1"/>
        <pt x="757" y="888" on="0"/>
        <pt x="741" y="785" on="0"/>
        <pt x="741" y="735" on="1"/>
        <pt x="741" y="633" on="0"/>
        <pt x="774" y="539" on="1"/>
      </contour>
      <contour>
        <pt x="461" y="557" on="1"/>
        <pt x="457" y="559" on="0"/>
        <pt x="451" y="559" on="1"/>
        <pt x="451" y="557" on="1"/>
      </contour>
    </TTGlyph>
    <TTGlyph name="Euro" xMin="39" yMin="-53" xMax="1343" yMax="1462">
      <contour>
        <pt x="803" y="913" on="1"/>
        <pt x="801" y="907" on="1"/>
        <pt x="772" y="839" on="0"/>
        <pt x="745" y="728" on="0"/>
        <pt x="745" y="674" on="1"/>
        <pt x="745" y="642" on="0"/>
        <pt x="754" y="578" on="0"/>
        <pt x="762" y="543" on="1"/>
        <pt x="760" y="526" on="1"/>
        <pt x="731" y="469" on="0"/>
        <pt x="699" y="380" on="0"/>
        <pt x="696" y="332" on="1"/>
        <pt x="716" y="335" on="0"/>
        <pt x="749" y="343" on="0"/>
        <pt x="780" y="354" on="0"/>
        <pt x="813" y="366" on="0"/>
        <pt x="834" y="373" on="1"/>
        <pt x="839" y="375" on="0"/>
        <pt x="847" y="378" on="0"/>
        <pt x="852" y="381" on="1"/>
        <pt x="860" y="385" on="1"/>
        <pt x="868" y="383" on="1"/>
        <pt x="902" y="375" on="0"/>
        <pt x="963" y="369" on="0"/>
        <pt x="991" y="369" on="1"/>
        <pt x="1048" y="369" on="0"/>
        <pt x="1156" y="397" on="0"/>
        <pt x="1221" y="428" on="1"/>
        <pt x="1233" y="434" on="1"/>
        <pt x="1243" y="428" on="1"/>
        <pt x="1244" y="427" on="0"/>
        <pt x="1270" y="409" on="0"/>
        <pt x="1303" y="370" on="0"/>
        <pt x="1334" y="309" on="0"/>
        <pt x="1341" y="264" on="1"/>
        <pt x="1343" y="253" on="0"/>
        <pt x="1343" y="233" on="0"/>
        <pt x="1343" y="223" on="1"/>
        <pt x="1343" y="188" on="0"/>
        <pt x="1327" y="132" on="0"/>
        <pt x="1307" y="93" on="0"/>
        <pt x="1291" y="71" on="0"/>
        <pt x="1290" y="70" on="1"/>
        <pt x="1280" y="59" on="1"/>
        <pt x="1268" y="63" on="1"/>
        <pt x="1237" y="68" on="0"/>
        <pt x="1181" y="74" on="0"/>
        <pt x="1155" y="74" on="1"/>
        <pt x="1096" y="74" on="0"/>
        <pt x="995" y="46" on="0"/>
        <pt x="936" y="18" on="1"/>
        <pt x="928" y="14" on="1"/>
        <pt x="922" y="16" on="1"/>
        <pt x="899" y="16" on="0"/>
        <pt x="855" y="20" on="0"/>
        <pt x="834" y="20" on="1"/>
        <pt x="759" y="20" on="0"/>
        <pt x="617" y="-14" on="0"/>
        <pt x="549" y="-49" on="1"/>
        <pt x="539" y="-53" on="1"/>
        <pt x="528" y="-51" on="1"/>
        <pt x="526" y="-50" on="0"/>
        <pt x="495" y="-38" on="0"/>
        <pt x="454" y="-2" on="0"/>
        <pt x="413" y="61" on="0"/>
        <pt x="403" y="113" on="1"/>
        <pt x="374" y="128" on="0"/>
        <pt x="338" y="163" on="0"/>
        <pt x="317" y="194" on="0"/>
        <pt x="309" y="215" on="0"/>
        <pt x="309" y="217" on="1"/>
        <pt x="307" y="227" on="1"/>
        <pt x="311" y="236" on="1"/>
        <pt x="333" y="274" on="0"/>
        <pt x="363" y="341" on="0"/>
        <pt x="371" y="373" on="1"/>
        <pt x="350" y="373" on="1"/>
        <pt x="296" y="373" on="0"/>
        <pt x="196" y="361" on="0"/>
        <pt x="156" y="348" on="1"/>
        <pt x="145" y="346" on="1"/>
        <pt x="137" y="350" on="1"/>
        <pt x="135" y="351" on="0"/>
        <pt x="104" y="368" on="0"/>
        <pt x="68" y="409" on="0"/>
        <pt x="39" y="477" on="0"/>
        <pt x="39" y="528" on="1"/>
        <pt x="39" y="580" on="0"/>
        <pt x="71" y="648" on="0"/>
        <pt x="110" y="688" on="0"/>
        <pt x="143" y="704" on="0"/>
        <pt x="145" y="705" on="1"/>
        <pt x="156" y="707" on="1"/>
        <pt x="164" y="702" on="1"/>
        <pt x="209" y="685" on="0"/>
        <pt x="338" y="663" on="0"/>
        <pt x="408" y="659" on="1"/>
        <pt x="414" y="678" on="0"/>
        <pt x="421" y="712" on="0"/>
        <pt x="424" y="729" on="1"/>
        <pt x="389" y="727" on="0"/>
        <pt x="323" y="717" on="0"/>
        <pt x="295" y="709" on="1"/>
        <pt x="285" y="707" on="1"/>
        <pt x="276" y="711" on="1"/>
        <pt x="274" y="711" on="0"/>
        <pt x="243" y="728" on="0"/>
        <pt x="207" y="769" on="0"/>
        <pt x="178" y="838" on="0"/>
        <pt x="178" y="889" on="1"/>
        <pt x="178" y="941" on="0"/>
        <pt x="210" y="1009" on="0"/>
        <pt x="250" y="1048" on="0"/>
        <pt x="283" y="1063" on="0"/>
        <pt x="285" y="1063" on="1"/>
        <pt x="295" y="1067" on="1"/>
        <pt x="303" y="1063" on="1"/>
        <pt x="332" y="1052" on="0"/>
        <pt x="409" y="1034" on="0"/>
        <pt x="453" y="1028" on="1"/>
        <pt x="462" y="1051" on="0"/>
        <pt x="476" y="1094" on="0"/>
        <pt x="481" y="1116" on="1"/>
        <pt x="466" y="1136" on="0"/>
        <pt x="444" y="1203" on="0"/>
        <pt x="444" y="1251" on="1"/>
        <pt x="444" y="1294" on="0"/>
        <pt x="460" y="1358" on="0"/>
        <pt x="484" y="1404" on="0"/>
        <pt x="512" y="1434" on="0"/>
        <pt x="537" y="1451" on="0"/>
        <pt x="554" y="1458" on="0"/>
        <pt x="555" y="1458" on="1"/>
        <pt x="565" y="1462" on="1"/>
        <pt x="573" y="1458" on="1"/>
        <pt x="626" y="1432" on="0"/>
        <pt x="732" y="1409" on="0"/>
        <pt x="791" y="1409" on="1"/>
        <pt x="815" y="1409" on="0"/>
        <pt x="879" y="1410" on="0"/>
        <pt x="905" y="1419" on="1"/>
        <pt x="913" y="1421" on="1"/>
        <pt x="922" y="1417" on="1"/>
        <pt x="980" y="1391" on="0"/>
        <pt x="1077" y="1364" on="0"/>
        <pt x="1128" y="1364" on="1"/>
        <pt x="1159" y="1364" on="0"/>
        <pt x="1222" y="1373" on="0"/>
        <pt x="1257" y="1382" on="1"/>
        <pt x="1270" y="1384" on="1"/>
        <pt x="1278" y="1376" on="1"/>
        <pt x="1279" y="1375" on="0"/>
        <pt x="1298" y="1355" on="0"/>
        <pt x="1320" y="1315" on="0"/>
        <pt x="1337" y="1254" on="0"/>
        <pt x="1337" y="1212" on="1"/>
        <pt x="1337" y="1196" on="1"/>
        <pt x="1335" y="1151" on="0"/>
        <pt x="1308" y="1084" on="0"/>
        <pt x="1277" y="1041" on="0"/>
        <pt x="1252" y="1019" on="0"/>
        <pt x="1251" y="1018" on="1"/>
        <pt x="1239" y="1010" on="1"/>
        <pt x="1227" y="1014" on="1"/>
        <pt x="1168" y="1039" on="0"/>
        <pt x="1074" y="1063" on="0"/>
        <pt x="1026" y="1063" on="1"/>
        <pt x="1000" y="1063" on="0"/>
        <pt x="941" y="1055" on="0"/>
        <pt x="909" y="1047" on="1"/>
        <pt x="897" y="1049" on="1"/>
        <pt x="868" y="1054" on="0"/>
        <pt x="819" y="1067" on="0"/>
        <pt x="795" y="1073" on="1"/>
        <pt x="793" y="1058" on="0"/>
        <pt x="793" y="1030" on="0"/>
        <pt x="793" y="1016" on="1"/>
        <pt x="793" y="994" on="0"/>
        <pt x="798" y="948" on="0"/>
        <pt x="803" y="922" on="1"/>
      </contour>
      <contour>
        <pt x="684" y="1090" on="1"/>
        <pt x="617" y="1090" on="0"/>
        <pt x="547" y="1069" on="1"/>
        <pt x="537" y="1067" on="1"/>
        <pt x="528" y="1071" on="1"/>
        <pt x="526" y="1071" on="1"/>
        <pt x="524" y="1071" on="0"/>
        <pt x="522" y="1073" on="1"/>
        <pt x="516" y="1051" on="0"/>
        <pt x="498" y="1006" on="0"/>
        <pt x="487" y="981" on="1"/>
        <pt x="501" y="983" on="0"/>
        <pt x="528" y="985" on="0"/>
        <pt x="541" y="985" on="1"/>
        <pt x="574" y="985" on="0"/>
        <pt x="629" y="973" on="0"/>
        <pt x="669" y="959" on="0"/>
        <pt x="692" y="947" on="0"/>
        <pt x="694" y="946" on="1"/>
        <pt x="702" y="941" on="0"/>
        <pt x="702" y="928" on="1"/>
        <pt x="702" y="920" on="0"/>
        <pt x="691" y="907" on="0"/>
        <pt x="682" y="907" on="1"/>
        <pt x="680" y="907" on="0"/>
        <pt x="670" y="916" on="0"/>
        <pt x="644" y="927" on="0"/>
        <pt x="595" y="936" on="0"/>
        <pt x="553" y="936" on="1"/>
        <pt x="534" y="936" on="0"/>
        <pt x="493" y="932" on="0"/>
        <pt x="471" y="926" on="1"/>
        <pt x="476" y="894" on="0"/>
        <pt x="481" y="837" on="0"/>
        <pt x="481" y="809" on="1"/>
        <pt x="481" y="758" on="0"/>
        <pt x="462" y="659" on="0"/>
        <pt x="440" y="600" on="1"/>
        <pt x="471" y="600" on="0"/>
        <pt x="550" y="590" on="0"/>
        <pt x="621" y="573" on="0"/>
        <pt x="670" y="550" on="0"/>
        <pt x="670" y="537" on="1"/>
        <pt x="670" y="529" on="0"/>
        <pt x="657" y="518" on="0"/>
        <pt x="649" y="518" on="1"/>
        <pt x="647" y="518" on="0"/>
        <pt x="643" y="518" on="0"/>
        <pt x="641" y="520" on="1"/>
        <pt x="607" y="534" on="0"/>
        <pt x="508" y="551" on="0"/>
        <pt x="459" y="551" on="1"/>
        <pt x="432" y="551" on="1"/>
        <pt x="434" y="531" on="0"/>
        <pt x="436" y="494" on="0"/>
        <pt x="436" y="477" on="1"/>
        <pt x="436" y="439" on="0"/>
        <pt x="427" y="377" on="0"/>
        <pt x="408" y="317" on="0"/>
        <pt x="379" y="256" on="0"/>
        <pt x="360" y="221" on="1"/>
        <pt x="364" y="213" on="0"/>
        <pt x="385" y="185" on="0"/>
        <pt x="425" y="158" on="0"/>
        <pt x="489" y="137" on="0"/>
        <pt x="537" y="137" on="1"/>
        <pt x="564" y="137" on="0"/>
        <pt x="606" y="147" on="0"/>
        <pt x="636" y="161" on="0"/>
        <pt x="656" y="177" on="0"/>
        <pt x="662" y="182" on="1"/>
        <pt x="654" y="219" on="0"/>
        <pt x="645" y="281" on="0"/>
        <pt x="645" y="309" on="1"/>
        <pt x="645" y="367" on="0"/>
        <pt x="679" y="475" on="0"/>
        <pt x="711" y="541" on="1"/>
        <pt x="703" y="576" on="0"/>
        <pt x="694" y="642" on="0"/>
        <pt x="694" y="674" on="1"/>
        <pt x="694" y="731" on="0"/>
        <pt x="723" y="848" on="0"/>
        <pt x="752" y="920" on="1"/>
        <pt x="747" y="947" on="0"/>
        <pt x="743" y="999" on="0"/>
        <pt x="743" y="1022" on="1"/>
        <pt x="743" y="1037" on="0"/>
        <pt x="744" y="1068" on="0"/>
        <pt x="748" y="1083" on="1"/>
        <pt x="732" y="1086" on="0"/>
        <pt x="701" y="1090" on="0"/>
      </contour>
      <contour>
        <pt x="1288" y="1214" on="1"/>
        <pt x="1288" y="1262" on="0"/>
        <pt x="1263" y="1319" on="0"/>
        <pt x="1255" y="1331" on="1"/>
        <pt x="1220" y="1323" on="0"/>
        <pt x="1159" y="1315" on="0"/>
        <pt x="1130" y="1315" on="1"/>
        <pt x="1085" y="1315" on="0"/>
        <pt x="1001" y="1335" on="0"/>
        <pt x="948" y="1354" on="1"/>
        <pt x="953" y="1335" on="0"/>
        <pt x="956" y="1301" on="0"/>
        <pt x="956" y="1284" on="1"/>
        <pt x="956" y="1226" on="0"/>
        <pt x="940" y="1168" on="0"/>
        <pt x="920" y="1144" on="0"/>
        <pt x="905" y="1143" on="0"/>
        <pt x="907" y="1143" on="1"/>
        <pt x="899" y="1143" on="0"/>
        <pt x="889" y="1155" on="0"/>
        <pt x="889" y="1161" on="1"/>
        <pt x="889" y="1163" on="0"/>
        <pt x="895" y="1171" on="0"/>
        <pt x="903" y="1193" on="0"/>
        <pt x="909" y="1234" on="0"/>
        <pt x="909" y="1270" on="1"/>
        <pt x="909" y="1291" on="0"/>
        <pt x="902" y="1340" on="0"/>
        <pt x="893" y="1366" on="1"/>
        <pt x="868" y="1366" on="0"/>
        <pt x="820" y="1360" on="0"/>
        <pt x="797" y="1360" on="1"/>
        <pt x="735" y="1360" on="0"/>
        <pt x="620" y="1383" on="0"/>
        <pt x="561" y="1409" on="1"/>
        <pt x="554" y="1404" on="0"/>
        <pt x="532" y="1385" on="0"/>
        <pt x="510" y="1349" on="0"/>
        <pt x="494" y="1293" on="0"/>
        <pt x="494" y="1251" on="1"/>
        <pt x="494" y="1219" on="0"/>
        <pt x="505" y="1173" on="0"/>
        <pt x="521" y="1142" on="0"/>
        <pt x="539" y="1122" on="0"/>
        <pt x="545" y="1118" on="1"/>
        <pt x="580" y="1127" on="0"/>
        <pt x="646" y="1137" on="0"/>
        <pt x="680" y="1137" on="1"/>
        <pt x="733" y="1137" on="0"/>
        <pt x="853" y="1117" on="0"/>
        <pt x="905" y="1096" on="1"/>
        <pt x="937" y="1104" on="0"/>
        <pt x="995" y="1110" on="0"/>
        <pt x="1024" y="1110" on="1"/>
        <pt x="1074" y="1110" on="0"/>
        <pt x="1173" y="1088" on="0"/>
        <pt x="1233" y="1065" on="1"/>
        <pt x="1239" y="1071" on="0"/>
        <pt x="1257" y="1093" on="0"/>
        <pt x="1274" y="1126" on="0"/>
        <pt x="1287" y="1170" on="0"/>
        <pt x="1288" y="1198" on="1"/>
      </contour>
      <contour>
        <pt x="715" y="172" on="1"/>
        <pt x="709" y="162" on="1"/>
        <pt x="708" y="161" on="0"/>
        <pt x="690" y="137" on="0"/>
        <pt x="649" y="109" on="0"/>
        <pt x="585" y="86" on="0"/>
        <pt x="539" y="86" on="1"/>
        <pt x="516" y="86" on="0"/>
        <pt x="478" y="89" on="0"/>
        <pt x="461" y="94" on="1"/>
        <pt x="468" y="70" on="0"/>
        <pt x="488" y="37" on="0"/>
        <pt x="509" y="14" on="0"/>
        <pt x="529" y="1" on="0"/>
        <pt x="535" y="-2" on="1"/>
        <pt x="607" y="35" on="0"/>
        <pt x="754" y="70" on="0"/>
        <pt x="831" y="70" on="1"/>
        <pt x="854" y="70" on="0"/>
        <pt x="898" y="66" on="0"/>
        <pt x="920" y="66" on="1"/>
        <pt x="983" y="93" on="0"/>
        <pt x="1093" y="121" on="0"/>
        <pt x="1155" y="121" on="1"/>
        <pt x="1180" y="121" on="0"/>
        <pt x="1233" y="118" on="0"/>
        <pt x="1262" y="113" on="1"/>
        <pt x="1271" y="125" on="0"/>
        <pt x="1294" y="181" on="0"/>
        <pt x="1294" y="223" on="1"/>
        <pt x="1294" y="257" on="0"/>
        <pt x="1278" y="310" on="0"/>
        <pt x="1257" y="349" on="0"/>
        <pt x="1235" y="374" on="0"/>
        <pt x="1229" y="379" on="1"/>
        <pt x="1163" y="348" on="0"/>
        <pt x="1054" y="319" on="0"/>
        <pt x="993" y="319" on="1"/>
        <pt x="975" y="319" on="0"/>
        <pt x="932" y="323" on="0"/>
        <pt x="909" y="326" on="1"/>
        <pt x="926" y="291" on="0"/>
        <pt x="938" y="225" on="0"/>
        <pt x="938" y="199" on="1"/>
        <pt x="938" y="163" on="0"/>
        <pt x="932" y="126" on="0"/>
        <pt x="924" y="111" on="0"/>
        <pt x="914" y="111" on="0"/>
        <pt x="911" y="111" on="1"/>
        <pt x="902" y="111" on="0"/>
        <pt x="889" y="121" on="0"/>
        <pt x="889" y="129" on="1"/>
        <pt x="889" y="131" on="0"/>
        <pt x="891" y="134" on="0"/>
        <pt x="893" y="142" on="0"/>
        <pt x="895" y="160" on="0"/>
        <pt x="895" y="178" on="1"/>
        <pt x="895" y="206" on="0"/>
        <pt x="878" y="284" on="0"/>
        <pt x="852" y="326" on="1"/>
        <pt x="849" y="326" on="0"/>
        <pt x="845" y="324" on="0"/>
        <pt x="842" y="322" on="1"/>
        <pt x="820" y="316" on="0"/>
        <pt x="785" y="304" on="0"/>
        <pt x="752" y="293" on="0"/>
        <pt x="718" y="285" on="0"/>
        <pt x="696" y="283" on="1"/>
        <pt x="698" y="260" on="0"/>
        <pt x="707" y="209" on="0"/>
        <pt x="713" y="180" on="1"/>
      </contour>
      <contour>
        <pt x="385" y="481" on="1"/>
        <pt x="385" y="522" on="0"/>
        <pt x="379" y="573" on="1"/>
        <pt x="381" y="586" on="1"/>
        <pt x="393" y="616" on="1"/>
        <pt x="325" y="621" on="0"/>
        <pt x="199" y="644" on="0"/>
        <pt x="156" y="659" on="1"/>
        <pt x="148" y="654" on="0"/>
        <pt x="126" y="637" on="0"/>
        <pt x="105" y="605" on="0"/>
        <pt x="90" y="557" on="0"/>
        <pt x="90" y="522" on="1"/>
        <pt x="90" y="490" on="0"/>
        <pt x="104" y="446" on="0"/>
        <pt x="123" y="416" on="0"/>
        <pt x="144" y="398" on="0"/>
        <pt x="150" y="393" on="1"/>
        <pt x="192" y="406" on="0"/>
        <pt x="297" y="416" on="0"/>
        <pt x="352" y="416" on="1"/>
        <pt x="381" y="416" on="1"/>
        <pt x="383" y="431" on="0"/>
        <pt x="385" y="463" on="0"/>
      </contour>
      <contour>
        <pt x="295" y="1020" on="1"/>
        <pt x="287" y="1015" on="0"/>
        <pt x="265" y="998" on="0"/>
        <pt x="244" y="966" on="0"/>
        <pt x="229" y="918" on="0"/>
        <pt x="229" y="883" on="1"/>
        <pt x="229" y="851" on="0"/>
        <pt x="243" y="807" on="0"/>
        <pt x="262" y="776" on="0"/>
        <pt x="283" y="758" on="0"/>
        <pt x="289" y="754" on="1"/>
        <pt x="318" y="762" on="0"/>
        <pt x="392" y="772" on="0"/>
        <pt x="430" y="774" on="1"/>
        <pt x="432" y="783" on="0"/>
        <pt x="432" y="802" on="0"/>
        <pt x="432" y="811" on="1"/>
        <pt x="432" y="842" on="0"/>
        <pt x="424" y="907" on="0"/>
        <pt x="418" y="942" on="1"/>
        <pt x="416" y="952" on="1"/>
        <pt x="420" y="958" on="1"/>
        <pt x="434" y="987" on="1"/>
        <pt x="394" y="993" on="0"/>
        <pt x="321" y="1009" on="0"/>
      </contour>
    </TTGlyph>
</ttFont>
